<svg width="155" height="22" viewBox="0 0 155 22" fill="none" xmlns="http://www.w3.org/2000/svg">
<g clip-path="url(#clip0)">
<path d="M54.7127 10.1828C55.8077 6.47424 57.1881 2.61638 60.157 0.0078125C61.0901 0.927098 61.9306 1.93281 62.6632 3.02496C59.3781 4.76924 58.0903 8.54853 56.6637 11.7621C58.26 10.1671 59.7637 8.10067 62.1697 7.84138C62.2159 9.95496 61.599 11.9821 61.1517 14.0171C63.0488 13.145 64.7376 11.8485 65.7555 9.96281C65.6244 9.05924 65.5087 8.15567 65.4007 7.2521C65.8789 7.02424 66.8428 6.56067 67.3209 6.32496C68.6164 7.65281 69.3182 9.34996 69.4107 11.22C70.4363 11.2121 71.4542 11.2042 72.4721 11.1964C73.0968 9.20067 73.8448 7.24424 74.7547 5.35853C75.549 5.67281 76.351 5.99496 77.1453 6.3171C76.405 8.5721 75.4102 10.7485 74.9706 13.0978C76.351 11.605 77.392 9.8371 78.703 8.28138C78.6798 10.2614 78.942 12.3357 78.1323 14.1978L77.0913 12.6264C76.3202 13.7657 75.31 14.4807 74.0684 14.7635C72.341 14.8892 72.6264 12.8307 72.2871 11.6992C71.0764 11.8721 69.858 12.0292 68.6473 12.1864V14.025C68.1383 13.2707 67.6679 12.485 67.2284 11.6835C66.9893 12.1707 66.5112 13.1371 66.2721 13.6242C66.7425 14.1192 67.2052 14.6142 67.6602 15.1092C65.4393 15.8557 64.4908 14.6457 64.3134 12.6657C63.1336 13.6792 61.9846 15.5571 60.1878 14.7478C59.3473 12.4142 61.491 10.3478 61.9383 8.17924C58.1597 9.65638 56.8102 13.8442 55.1522 17.215C54.2192 15.8242 54.1266 14.135 54.0341 12.5164C52.006 13.8678 51.6281 16.3978 50.2863 18.2914C49.6771 18.2992 49.0756 18.2992 48.4664 18.3071C48.3353 17.5764 48.2042 16.8457 48.0654 16.1071C48.7286 15.3685 49.3918 14.6378 50.055 13.8992C49.1219 11.495 47.6413 8.65853 49.5229 6.30924C51.9828 5.96353 50.6256 9.09853 50.1244 10.3635C50.6488 11.2828 51.1731 12.2021 51.6975 13.1214C52.808 12.2964 54.4042 11.7307 54.7127 10.1828Z" fill="#FEFEFE"/>
<path d="M120.576 9.13781C121.555 5.75924 123.059 2.38067 125.696 0.0078125C126.637 0.927098 127.47 1.93281 128.226 3.00924C124.933 4.75353 123.63 8.54853 122.211 11.7621C123.815 10.1828 125.303 8.04567 127.748 7.88067C127.748 9.97853 127.138 11.99 126.699 14.025C128.603 13.1371 130.292 11.8407 131.31 9.9471C131.164 9.05924 131.04 8.17924 130.932 7.29138C131.41 7.04781 132.367 6.56067 132.845 6.3171C134.156 7.6371 134.873 9.33424 134.958 11.22C135.629 11.2121 136.963 11.2121 137.634 11.2042C138.258 9.1771 139.022 7.18924 139.955 5.28781C140.626 5.81424 142.006 5.75138 142.137 6.77281C141.397 9.31067 139.546 11.8485 141.258 14.4021C140.248 14.5435 139.238 14.6221 138.227 14.6457C137.826 13.7342 137.664 12.7364 137.433 11.77C136.353 11.9114 135.274 12.045 134.202 12.1785L134.194 14.025C133.678 13.2707 133.215 12.4771 132.775 11.6757C132.536 12.1628 132.066 13.1371 131.827 13.6321C132.29 14.1192 132.752 14.6221 133.215 15.125C130.948 15.8478 130.03 14.6378 129.86 12.6657C128.727 14.0171 127.354 15.1407 125.496 14.9835C125.365 12.54 126.683 10.395 127.478 8.1871C123.707 9.66424 122.357 13.8442 120.699 17.215C119.01 14.8028 119.82 11.7464 120.576 9.13781Z" fill="#FEFEFE"/>
<path d="M150.188 14.4179C149.24 9.81359 150.666 5.19359 152.324 0.942871C152.903 1.27287 154.067 1.94073 154.653 2.27073C153.242 6.35644 151.098 10.1436 150.188 14.4179Z" fill="#FEFEFE"/>
<path d="M4.54995 3.80278C4.75045 2.52992 6.14622 2.33349 7.07931 1.86206C6.57806 6.00277 5.25169 9.97849 4.41886 14.0485C6.11537 14.0956 7.81189 14.0956 9.50841 14.1978C6.30816 15.1171 3.58602 17.0578 0.578559 18.3935C-0.0460677 17.0892 0.917863 15.9106 1.24945 14.7085C2.47557 11.1099 3.33926 7.40135 4.54995 3.80278Z" fill="#FEFEFE"/>
<path d="M16.4098 6.28567C17.9213 5.1071 18.8621 3.40996 20.1576 2.0271C20.7822 3.0171 20.9441 4.19567 21.1215 5.33496C21.7076 5.31139 22.8643 5.2721 23.4504 5.25639C21.5842 5.94781 19.4173 6.37996 19.4713 8.99639C19.4404 8.23424 19.3787 6.69424 19.3479 5.92424C19.263 7.18139 17.3198 8.76067 18.6847 9.93139C18.3145 11.77 18.0215 13.6635 18.3377 15.5414C20.7745 14.6378 21.8695 12.1942 23.1265 10.0964C22.1009 12.7992 20.8208 16.3035 17.6591 16.8771C16.0011 16.4528 15.6541 14.7007 15.2608 13.2785C13.4949 14.4728 10.7959 15.3607 9.16877 13.4592C7.773 10.9685 9.20733 7.91996 11.3511 6.39567C12.1839 7.11853 13.626 7.38567 13.919 8.61924C13.6414 9.97067 13.1479 12.3042 11.0581 11.3457C11.8061 10.4264 12.6004 9.54639 13.4024 8.67424C12.9088 8.76067 11.9218 8.93353 11.4205 9.0121C11.0504 10.0021 10.6879 10.9842 10.3255 11.9664C11.0041 12.7521 11.7829 14.4571 13.063 13.5221C15.9163 12.7757 16.2325 9.57781 17.0113 7.1971C16.8648 6.96924 16.564 6.51353 16.4098 6.28567Z" fill="#FEFEFE"/>
<path d="M81.6334 5.39795C82.8364 8.30509 81.4021 11.2201 80.2376 13.8601C79.8135 13.4751 79.3816 13.0901 78.9575 12.7051C80.3764 10.4972 80.9162 7.89652 81.6334 5.39795Z" fill="#FEFEFE"/>
<path d="M90.3475 5.2251C91.0723 6.03438 91.7972 6.85938 92.5067 7.69224C91.5736 9.50724 90.6096 11.3065 89.7768 13.1687C92.3139 11.668 94.2263 9.4051 96.2004 7.2601C95.491 9.97081 94.4499 12.5637 93.6942 15.2587C95.6606 13.8208 97.4574 12.1708 99.0382 10.3165C98.8069 8.50938 99.2465 6.85153 100.789 5.76724C102.061 7.51153 102.732 9.59367 103.241 11.6837C106.218 10.898 106.765 7.41724 108.986 5.63367C108.716 7.89653 108.138 10.1044 107.798 12.3515C109.518 11.2751 110.86 9.7351 112.171 8.20295C111.7 10.0808 111.222 11.9587 110.875 13.868C112.641 12.8858 114.184 11.5501 115.734 10.2537C114.484 11.9901 113.266 14.3315 110.922 14.5987C109.842 14.9287 109.41 13.5222 108.786 12.9251C107.367 13.0901 105.925 13.0587 104.845 11.9587C104.151 11.9901 103.465 12.0215 102.786 12.053C101.845 13.4044 100.958 14.9601 99.3159 15.5258C98.6912 14.6851 98.1052 13.813 97.5577 12.9251C96.3932 14.5987 94.8355 15.8794 93.3781 17.2622C92.1057 18.9515 91.0184 20.8294 89.1985 21.9922L89.9542 22.0001H87.7564C86.3684 21.4894 85.3273 20.4522 84.3711 19.3601C85.8054 19.0222 87.2783 18.8965 88.7358 19.1637C87.9492 19.5172 86.3838 20.2165 85.6049 20.5701C87.2937 21.2222 88.8206 20.4444 90.2549 19.6272C89.5532 19.1637 88.8437 18.7001 88.1266 18.2522C90.6019 18.1187 91.3962 15.6908 92.5221 13.8915C91.2883 13.9701 89.7537 14.363 89.1291 12.933C87.5174 10.5287 89.6072 7.62938 90.3475 5.2251Z" fill="#FEFEFE"/>
<path d="M144.027 13.1764C145.369 10.7485 146.016 8.03782 146.88 5.42139C147.713 8.08496 146.965 10.9135 145.569 13.2235C144.752 14.7714 142.754 13.7892 142.037 12.6735L141.76 13.4278C141.451 12.7442 141.15 12.0607 140.857 11.3771L141.443 11.7228C142.13 10.5521 142.893 9.42067 143.657 8.30496C143.811 9.92353 143.934 11.55 144.027 13.1764Z" fill="#FEFEFE"/>
<path d="M27.7842 11.7701C28.1775 9.43649 29.5038 7.08721 31.5936 5.91649C31.2466 8.00649 30.6143 10.0258 30.2673 12.1158C32.2645 11.4401 33.429 9.63292 34.7862 8.13221C34.3081 9.97863 33.6834 11.7936 33.4058 13.6793C34.7091 13.2315 35.8581 12.4615 36.8837 11.5422C36.2745 9.44435 36.7911 7.37792 37.9864 5.61792C39.4053 7.04006 39.0583 8.77649 38.1484 10.3872C38.7036 11.2908 39.2665 12.1943 39.8295 13.0901C41.2406 12.1551 42.5979 11.1336 44.0399 10.2458C43.0914 11.7936 41.765 13.0272 40.323 14.0958C40.0762 16.3429 38.5956 18.0558 36.5829 18.9201C37.1382 17.7258 37.7319 16.5551 38.2486 15.3451C37.2615 16.0208 36.2822 16.6965 35.2951 17.3643C36.1742 16.1858 37.0996 15.0386 38.0327 13.8993C37.917 13.3808 37.6934 12.3358 37.5854 11.8172C36.1588 13.5143 31.9638 16.6336 31.4394 12.5793C30.221 13.0272 28.0001 13.7893 27.7842 11.7701Z" fill="#FEFEFE"/>
<path d="M150.041 17.4115C150.088 16.2958 149.764 14.858 151.183 14.5044C152.108 15.6987 150.905 16.7437 150.041 17.4115Z" fill="#FEFEFE"/>
</g>
<defs>
<clipPath id="clip0">
<rect width="155" height="22" fill="white"/>
</clipPath>
</defs>
</svg>