<svg width="16" height="15" viewBox="0 0 16 15" xmlns="http://www.w3.org/2000/svg">
    <g clip-path="url(#clip0)">
        <path fill="#fff" d="M8.26099 0.00145851C4.20801 -0.0784556 0.854259 3.13557 0.761719 7.18825C0.772294 9.25122 1.68577 11.2061 3.26147 12.5377V14.6875C3.26147 14.8601 3.40137 15 3.57394 15C3.6325 15 3.68989 14.9835 3.73954 14.9525L5.48125 13.8645C6.36862 14.2039 7.31092 14.377 8.26099 14.3751C12.314 14.455 15.6677 11.241 15.7603 7.18828C15.6677 3.13557 12.314 -0.0784556 8.26099 0.00145851Z"/>
        <path d="M13.1969 5.12587C13.1039 5.00126 12.9334 4.96396 12.7969 5.03837L9.54722 6.81008L7.52556 5.07648C7.40158 4.9702 7.21668 4.97726 7.10123 5.09274L3.3516 8.84238C3.22994 8.96477 3.23053 9.16262 3.35295 9.28428C3.45082 9.38157 3.60089 9.40313 3.7222 9.33733L6.97187 7.56563L8.99541 9.29983C9.11939 9.40611 9.30429 9.39905 9.41974 9.28358L13.1694 5.53394C13.2786 5.42365 13.2904 5.24985 13.1969 5.12587Z" fill="#124E86"/>
    </g>
    <defs>
        <clipPath id="clip0">
            <rect x="0.759766" width="15" height="15"/>
        </clipPath>
    </defs>
</svg>