<?xml version="1.0" encoding="utf-8"?>
<!-- Generator: Adobe Illustrator 23.0.1, SVG Export Plug-In . SVG Version: 6.00 Build 0)  -->
<svg version="1.1" id="Слой_1" xmlns="http://www.w3.org/2000/svg" xmlns:xlink="http://www.w3.org/1999/xlink" x="0px" y="0px"
	 viewBox="0 0 472 472" style="enable-background:new 0 0 472 472;" xml:space="preserve">
<style type="text/css">
	.st0{fill:#282828;}
	.st1{fill:#F3CEB5;}
	.st2{fill:#124E86;}
	.st3{fill:#0D4675;}
	.st4{fill:#EAEAEA;}
	.st5{fill:#D6D6D6;}
	.st6{fill:#012851;}
	.st7{fill:#E8C3AA;}
	.st8{fill:#074577;}
	.st9{fill:#0D4370;}
	.st10{fill:#92BDD3;}
	.st11{fill:#F9AF92;}
	.st12{fill:#F2AE4E;}
	.st13{fill:#470E46;}
	.st14{fill:#CC8A42;}
	.st15{fill:#876339;}
	.st16{opacity:0.3;fill:#470E46;}
</style>
<g>
	<path class="st0" d="M385.8,386.6c0,0,1.7,1.9,2.2,4.4c0.3,2.8-0.3,5-0.3,5.5s-2.5,1.1-5.8,1.1c-3.3,0-5-0.8-6.4-0.8
		c-1.4-0.3-7.2,0.8-10,0.8s-6.9-0.3-8-0.8c-1.1-0.6-1.4-4.4,4.7-5c3.6-0.3,7.5-2.5,10.3-3.9c2.2-1.1,3.9-1.7,3.9-1.7
		S384.1,387.4,385.8,386.6z"/>
	<path class="st1" d="M432.3,374.1v12.5c0,0-4.4,2.8-9.4,0l-1.7-14.1"/>
	<path class="st0" d="M432.3,386.6c0,0,1.7,1.9,2.2,4.4c0.3,2.8-0.3,5-0.3,5.5s-2.5,1.1-5.8,1.1s-5-0.8-6.4-0.8
		c-1.4-0.3-7.2,0.8-10,0.8s-6.9-0.3-8-0.8c-1.1-0.6-1.4-4.4,4.7-5c3.6-0.3,7.5-2.5,10.3-3.9c2.2-1.1,3.9-1.7,3.9-1.7
		S430.7,387.4,432.3,386.6z"/>
	<path class="st2" d="M370.2,307.7c0.6,11.4,2.8,45.7,5,69.3c6.1,0.8,10.3,0.3,12.2-0.3c0.6-9.7,1.9-19.4,3.3-29.4
		c1.9-15.8,4.2-30.8-0.8-40.5c0.6-1.9,1.4-4.2,2.2-6.7V300c0.3-0.8,0.6-1.4,0.8-2.2c0,0,0,0,0-0.3c3.3-10.3,7.8-23.6,10.3-32.7
		c1.1,16.1,2.8,39.4,3.6,44.9c0,0.6,0.3,1.1,0.3,1.9c1.9,11.9,10,40.8,13.6,64.6c7.2,0.8,10.8,0,12.8-0.6c-0.3-8.3,0-16.4,0-25.2
		c0.3-14.7,0.6-29.4-5.8-40.2c1.7-12.5,6.4-37.2,7.2-49.6c0.8-3.6,7.5-32.2-15-51c0,0-19.4,5.8-31.6,6.4c-10,0.8-15,0-15,0
		s-0.8,25-0.8,38.5c-0.6,15.2-1.7,41-2.2,47.1c0,1.4,0,2.8,0,3.9C370.2,306.1,370.2,306.9,370.2,307.7z"/>
	<path class="st3" d="M393,297.7c3.3-10.3,7.8-23.6,10.3-32.7l-1.7-20.8C401.6,243.9,397.7,282.2,393,297.7z"/>
	<path class="st1" d="M361.6,148.6l-18.9,32.7c0,0-1.7,9.1,8.6,7.2c10.3-1.9,24.1-28.3,24.1-28.3"/>
	<path class="st1" d="M366.3,175.2c0,0-7.2,9.4-10.3,11.6c-2.5,1.9-6.7,3.9-10,1.7c-3.6-2.2-20.5-16.6-33.8-31.9
		c0,0,1.9-1.9,3.9-4.4c0,0,7.2,6.1,16.6,11.1c9.4,5,17.2,11.4,17.2,11.4"/>
	<path class="st4" d="M352.8,161.3c0,0,5.3,6.4,13.6,9.7c1.4,0.6,3,1.1,4.7,1.4l-0.6-22.2l-0.3-18
		C370.2,132.2,356.6,153.6,352.8,161.3z"/>
	<path class="st5" d="M366.3,171c1.4,0.6,3,1.1,4.7,1.4l-0.6-22.2C369.4,155.2,367.5,163.3,366.3,171z"/>
	<path class="st4" d="M373.8,209.3c-0.3,3.6-1.9,6.4-0.6,8.3c1.4,1.9,12.8,3.3,20.8,3.3c8.9,0,28-0.8,32.7-3.6
		c0.6-0.3,1.4-1.1,1.4-1.9c0-1.1-1.1-2.5-1.1-5.5c0-4.7,1.4-25.2,1.9-33.3c0-1.7,0.3-3.3,0.3-5.3c0.8-11.6,2.5-25,2.8-32.4
		c-1.4-2.5-3-4.4-4.4-5.8c-4.4-4.7-8.9-6.4-9.4-6.7c-6.7-1.9-14.1-3-18.9-3c-13.3-0.3-26.1,5.5-29.1,8.9
		C367.2,135.5,374.1,205.7,373.8,209.3z"/>
	<path class="st4" d="M428.2,186.8c0,0,1.1,26.6,4.4,36c0,0-35.5,10-61.8,1.4c0,0-0.8-46.9-0.8-61.8"/>
	<path class="st6" d="M374.9,79.5c0,0-1.7,13,2.5,14.4c4.2,1.4,3.6-4.4,3.6-4.4v-6.4"/>
	<path class="st1" d="M407.7,126.4c0,0-3.9,6.9-15.5,5.5c-11.9-1.4-4.4-7.5-4.4-7.5s0.6-1.7,1.1-4.2c0.6-2.2,1.4-5,1.9-7.2l4.4-3.6
		l9.1-7.8C404.1,101.7,402.9,120.3,407.7,126.4z"/>
	<path class="st7" d="M400.5,109.5c0,0-3.6,8.3-11.9,10.8c0.6-2.2,1.4-5,1.9-7.2l4.4-3.6H400.5z"/>
	<path class="st1" d="M376.9,88.1c0,0-1.4,26.1,6.4,28.8c0,0,8.9,1.9,16.4-6.4c2.2-2.5,3.9-5.3,5-8.3c1.9-5,4.4-14.1,2.8-20
		C404.9,73.7,379.1,68.4,376.9,88.1z"/>
	<path class="st6" d="M378.8,77.6c0,0,6.1-0.6,10.8,1.7c4.7,2.2,1.7,10.3,5.3,13.9c3.6,3.9,16.1-0.3,16.1-0.3s3.3-8.9-3-18
		C399.9,63.7,384.6,65.7,378.8,77.6z"/>
	<path class="st6" d="M397.7,90.6c0,0,3.9,0.6,5,6.4c1.1,5.8-0.3,14.1,1.7,14.1s0.6-5,3-8.9c1.1-1.9,6.1-11.1,3.3-20
		c-2.8-8.9-13.3-17.2-20.2-14.7C383.5,70.4,397.7,90.6,397.7,90.6z"/>
	<path class="st1" d="M397.7,94.8c0,0,0.8-5,4.2-3.9c4.4,1.1,1.4,12.8-3.3,10.3"/>
	<path class="st6" d="M393.8,82.6c0,0-21.1,6.4-24.4-8.9c0,0-0.6-3.6,0.6-3.9c1.1-0.3,12.5,0,21.3-2.2"/>
	<path class="st1" d="M436.2,151.6c0,0,5,35.2,4.2,38c-0.8,2.8-10.5,4.7-14.7,0.6c-4.2-4.2-8.3-31.1-8.3-31.1"/>
	<path class="st4" d="M414,148.8c0,7.5,2.2,22.2,2.2,22.2c3.6,1.4,8.6,1.1,13,0.6c5.3-0.8,10.5-2.8,10.5-2.8s-0.8-8.3-2.8-16.4
		c-1.7-6.4-4.2-11.9-5-13.6c-1.4-2.5-3-4.4-4.4-5.8L414,148.8z"/>
	<path class="st1" d="M440.1,183.2c0,0,1.1,11.9,0.3,13c-0.8,1.1-2.2,3.3-6.4,2.8c-4.2-0.3-26.1-5-44.6-12.2c0,0,0.8-2.8,1.4-5.8
		c0,0,9.1,1.9,19.7,1.9s20.5,2.2,20.5,2.2"/>
	<path class="st4" d="M418.2,126.4c0,0,9.7,2.8,12.2,6.9c2.5,3.9,6.7,19.1,6.7,19.1l-10.5-4.4"/>
	<g>
		<path class="st1" d="M317.3,153c0,0-4.2-8.9-7.2-11.1c0,0-1.1,0.3-0.8,1.4c0,1.4,1.9,2.8,1.9,3.9s-0.8,1.1-1.7,0.8
			s-8.3-4.2-8.9-3.9c-0.8,0.3,0,1.1,0.6,1.4s4.4,2.8,4.4,2.8s-6.9-3.6-7.5-2.5c-0.3,0.8,6.1,4.2,6.1,4.2s-5.5-3-5.8-1.9
			c-0.3,1.1,4.4,3,4.4,3s-2.8-1.4-3-0.8c-0.3,0.8,3.9,3,5,3.6c1.1,0.8,3.9,1.9,5,1.9c1.1,0,1.9-0.3,2.5,0.6"/>
	</g>
	<path class="st1" d="M386.9,375l-1.1,11.6c0,0-4.4,2.8-9.4,0l-0.3-14.1"/>
</g>
<g>
	<path class="st6" d="M36,135c-3,8,0.7,40.4,0.7,40.4l31.8-1.3c0,0,8.2-41.7-8.3-48.6C43.8,118.6,36,135,36,135z"/>
	<path class="st8" d="M23.1,179.1c0,0-3.9,8.7,13.4,15.1C53.8,200.6,23.1,179.1,23.1,179.1z"/>
	<path class="st1" d="M64.8,168.9c0,0,7.9,1.3,11.1,6.7C89.7,198.8,98.6,205,98.6,205l10.9-27.5l2.7,3.5c0,0-6.7,36.2-12.3,35.3
		c-5.6-0.9-20.5-11.9-20.5-11.9L64.8,168.9z"/>
	<path class="st9" d="M83.1,184.5c0,0.5,0,1,0,1.5c0,0.8-0.2,1.7-0.4,2.4c-0.1,0.4-0.3,0.8-0.5,1.2c-0.2,0.4-0.5,0.8-0.9,1.1
		c-0.1,0.1-0.2,0.2-0.3,0.3c-0.2,0.1-0.4,0.3-0.7,0.3c-0.5,0.2-1.2,0.3-2,0.2c-1.7-0.2-3.5-1.8-5.3-4.2c-0.3-0.4-0.6-0.8-0.9-1.3
		c-0.8-1.2-1.6-2.4-2.3-3.8c-0.2-0.4-0.5-0.8-0.7-1.2c-0.5-1-1-2-1.5-3c-0.2-0.4-0.4-0.8-0.6-1.3c-0.6-1.3-1.2-2.6-1.7-3.7
		c-0.2-0.5-0.4-0.9-0.6-1.3c-0.8-2-1.3-3.3-1.3-3.3c0,0,0,0,0.1,0c0,0,0.1,0,0.1,0c0.9,0.1,5.9,1,9.2,2.7
		c3.6,1.9,10.1,10.2,10.1,10.2s0,0.2,0.1,0.5c0.1,0.4,0.1,1,0.2,1.8C83.1,184,83.1,184.2,83.1,184.5z"/>
	<path class="st1" d="M98.9,388.8c-0.3,1-0.8,2.5-1.2,4h11.4c-0.9-1.5-1.7-3-2-4.1c-1-3.4-2.2-7.7-3.4-12.5h-7.4
		c1.4,5,2.4,9,2.9,11.2C99.2,387.9,99.1,388.3,98.9,388.8z"/>
	<path class="st1" d="M57.6,376.2h-8c1.1,6.2,1.8,10.7,1.8,10.7V397h9.1c-1.2-5.5-2.9-13.9-2.9-18C57.6,378.1,57.6,377.1,57.6,376.2
		z"/>
	<path class="st1" d="M104.2,378.1c-5.4-20.8-12.1-52.4-13-57.6c-0.6-3.4-1.1-14.1-2.4-27.3c-0.3-15-2.1-49.3-10.5-68.8l-19.8,0.5
		c0.8,15.5-14.2,32.2,4.1,50c2.4,6.7,10.3,29.3,11.4,39.3c1.3,11.8,3.5,17,10.4,30.1c5.9,11.4,10.1,24.6,12.6,33.7H104.2z"/>
	<path class="st2" d="M81.3,196.1c0,0.5-0.1,1-0.1,1.5c-0.3,3.2-1.3,5.5-1.7,6.4c-0.1,0.3-0.2,0.4-0.2,0.4l0,0.9l-0.3,6.1l-0.1,1.2
		l-0.2,4.2l-0.1,1.2l-0.3,6c-13.7,6-29.7,1.4-29.7,1.4c-0.2-1.8-0.6-3.7-1.1-5.5c-0.1-0.4-0.2-0.8-0.3-1.2c-0.7-2.1-1.4-4.2-2.3-6
		c-0.2-0.4-0.4-0.8-0.6-1.2c-1.4-2.9-2.7-5.2-3.7-6.5c-3.3-4.6-8.2-11.6-10.8-18.4c-0.2-0.5-0.4-1-0.5-1.4c-0.1-0.4-0.3-0.8-0.4-1.3
		c-0.6-2-0.9-3.9-0.9-5.7c0-0.6,0-1.2,0.1-1.8c0.2-1.9,0.9-3.7,2.1-5.2c1.4-1.7,3.1-2.7,4.9-3.1c0.1,0,0.2,0,0.2,0
		c0.1,0,0.3,0,0.3-0.1c4.4-0.9,9.5,0.5,13.1-0.1c5.5-1,11.8,0.1,14.6,0.7c0,0,0,0,0.1,0c0,0,0.1,0,0.1,0c0.8,0.2,1.2,0.3,1.2,0.3
		c2,1.4,3.7,2.8,5.3,4.2c0,0,0,0,0,0c1,0.9,1.9,1.7,2.7,2.6c0,0,0,0,0,0c0.9,0.9,1.6,1.8,2.3,2.7c0,0,0,0,0,0
		c0.7,0.9,1.3,1.8,1.9,2.7c0.8,1.3,1.5,2.5,2,3.8c0.4,1,0.8,1.9,1.1,2.8c0.2,0.7,0.4,1.3,0.5,1.9v0c0.1,0.4,0.2,0.8,0.3,1.2
		c0.1,0.7,0.2,1.4,0.3,2.1C81.3,194.1,81.4,195.2,81.3,196.1z"/>
	<path class="st1" d="M37,292.3L37,292.3c1.3,6.6,3.1,11,4.1,16.5c1.4,8.1-2.7,19.8,1.5,32.8c2,6.2,5.6,26.5,7.6,37.7h7.5
		c0-0.1,0-0.2,0-0.3c0-27.4-3.8-60-3.2-72.4c0.2-5.2,1.1-12.6,2.1-19.4c0,0,3.6-23.1,6.4-24.7c1.7-1,15.4-38.1,15.4-38.1l-29.7,1.4
		c0,0-17.3,14.4-12.8,40c0,0,0,0.3,0,0.7C35.1,278.5,35.8,286.3,37,292.3z"/>
	<path class="st10" d="M98.1,309.6c-4.1,10-15.8-0.6-28.6,8.7c-7.8,5.6-21.2-8.8-31.6-4.8c-7.1,2.7-9.1-4.9-9.1-4.9
		s0.8-39.5,5.6-60.2c4.2-17.9,14-25,14-25c2.3,0.8,5.4,1.2,8.7,1.4c4.8,0.3,10.1,0.1,14.2-0.1c1.3-0.1,2.6-0.2,3.6-0.3
		c2.1-0.2,3.5-0.3,3.5-0.3C92.6,241,98.1,309.6,98.1,309.6z"/>
	<path class="st0" d="M97.4,401.8c0,0-0.8-10.3,1.2-13c2-2.7,7.5,2.5,7.5,2.5l4.9-2.2c0,0-0.2,3.2,3.7,5.8c4,2.6,7.2,1.9,7.5,6.9
		H97.4z"/>
	<path class="st0" d="M49.9,391.1c0,0,0.1-3.4,4.9-3c4.7,0.4,4.4,3.8,4.4,3.8s0.7-0.6,1.3,0c0.6,0.6,0.1,5.3,1.3,6.3
		c1.2,1,0.8,3.6,0.8,3.6H48.7c0,0-0.7-3.4,0.6-4.6C50.7,395.9,47.2,391.5,49.9,391.1z"/>
	<path class="st1" d="M83.5,218.5c0,0,3-3,5.5-3.8c2.5-0.8,5.1-1.1,5.1-1.1s0.6,0.4-1.5,1.3c-2.1,1-3.2,2.5-3.2,2.5s4.4,0.5,5.2,0.3
		c0.8-0.2,3.1-1.6,4.4-1.4l-2.8,2.6c0,0-0.8,1.9-2,2.4c-1.2,0.5-0.9,1.5-2.8,2.3c-1.9,0.8-8-0.8-8-0.8L83.5,218.5z"/>
	<g>
		<path class="st1" d="M122.6,170.3c0,0,0.1,1,0.1,1.3c-0.1,1.3-0.6,2.7-1.2,3.9c-0.6,1.2-1.4,2.3-2,3c-0.5,0.6-2.2,1.9-4.1,3
			c0,0-0.1,0-0.2,0.1c-0.1,0.1-0.2,0.1-0.4,0.2c-1.7,0.8-3.8,0.8-4.6,0.1c-0.8-0.8-0.4-1.9-0.7-2.5c-0.3-0.6,0-2.4,0-2.4
			c1.1-4.4,6.1-8.4,6.1-8.4s1,0.6,0,2.2c-0.4,0.7-0.6,1.3-0.7,1.7c0,0,0,0,0,0c-0.1,0.6,0,1,0,1s5.4-2.2,6.2-3.8
			C122,168.1,123.4,167.9,122.6,170.3z"/>
		<path class="st11" d="M114.9,172.5c-0.8,1.8-0.4,3.5-1.8,4.4c0,0,1.8-1.2,1.8-3.4L114.9,172.5z"/>
		<path class="st11" d="M122.6,170.3c0,0-0.4-0.4-0.9,0c-0.5,0.4-1,1.5-1.5,2.1c-0.5,0.7-2.2,1.3-2.2,1.3s0.8-0.1,1.7-0.7
			C120.7,172.6,121.6,170.1,122.6,170.3z"/>
		<path class="st11" d="M122.3,172.5c0,0-0.6-0.5-1,0.4c-0.5,0.9-1.5,2.2-2.5,2.8c-1,0.6-1,0.6-1,0.6s0.6,0.1,1.6-0.6
			C120.4,175,121.5,172.1,122.3,172.5z"/>
		<path class="st11" d="M121.5,175.5c0,0-0.1-0.9-0.8-0.4c-0.8,0.5-1.2,1.3-1.7,1.8c-0.5,0.5-1.2,0.9-1.2,0.9s0.9-0.2,1.5-0.9
			C119.9,176.2,121.3,174.6,121.5,175.5z"/>
	</g>
	<g>
		<path class="st1" d="M45.1,128c0,0,18.1-3.9,20.3,8.8c2.1,12.7-2.8,25.2-12.2,23.8C41.6,159,30.8,133.4,45.1,128z"/>
		<path class="st6" d="M51.4,135.1c0,0-4.6,4.7-5.1,11.3c0,0-2.5-3.9-4.4-1c-1.9,3,3.8,8.2,3.8,8.2s-0.5,4-3.2,3.8
			c-2.7-0.2-8.7-12.3-6.5-17.3C38.1,135.2,43.6,130.6,51.4,135.1z"/>
		<path class="st7" d="M46.2,150.9c0.9,3.8,5.4,10.6,11,9.4c0,0-1.1,6.9,0.9,9.1c0,0-0.4,5.7-3.5,5.8c-3.6,0-10.7-7.4-10.7-7.4
			c3.3-9.1,0.3-16.4,0.3-16.4C45.5,152.5,46.2,150.9,46.2,150.9z"/>
		<path class="st6" d="M60.1,130.2c0,0-3.3,7.7-14.8,9.3c-11.4,1.7-9.9,3.6-9.9,3.6s-1.5-12.5,7-17.7c8.5-5.3,29.4-0.6,23.9,15.6
			C66.3,141,68.2,133.1,60.1,130.2z"/>
	</g>
	<path class="st1" d="M27.5,173.8c0,0,6.5,2.2,9.8,8c3.3,5.8,12.2,37.4,12.2,37.4s16.7-1.6,34.7-0.7l0.3,3.9c0,0-41.2,12.1-43.2,9.8
		c-1.2-1.5-8-27.5-13-39.4C23.3,180.7,25.6,176.2,27.5,173.8z"/>
	<path class="st2" d="M42.1,190.2c0,0.7-0.1,1.3-0.1,1.9c-0.1,1-0.2,1.7-0.2,1.7c-0.1-0.3-0.3-0.7-0.4-1c-0.2-0.4-0.4-0.7-0.7-1
		c-1.4-1.5-3.6-2.3-5.9-3.1c-0.4-0.1-0.9-0.3-1.3-0.5c-1.3-0.4-2.5-0.9-3.7-1.6c-0.4-0.2-0.9-0.5-1.2-0.8c-0.2-0.2-0.4-0.3-0.6-0.5
		c-0.1-0.1-0.2-0.2-0.3-0.3c-1.2-1.2-2.1-2.2-2.8-3.1c-0.3-0.4-0.6-0.7-0.8-1c-0.7-1.1-1-1.7-1-1.7c1.9-8.3,9.6-10.6,12-11.1
		c0.1,0,0.2,0,0.2,0c0.1,0,0.3,0,0.3-0.1c0.1,0,0.1,0,0.1,0c1,1.2,1.9,2.4,2.6,3.7c0.2,0.4,0.4,0.7,0.6,1.1c0.9,1.9,1.5,3.8,2,5.7
		c0.1,0.4,0.2,0.8,0.3,1.2c0.2,1.1,0.4,2.1,0.5,3.1c0,0.4,0.1,0.8,0.1,1.2C42.1,186.4,42.1,188.6,42.1,190.2z"/>
</g>
<g>
	<g>
		<g>
			<g>
				<path class="st12" d="M388.9,218.3c0,7-0.5,13.9-1.5,20.6c-2.2,14.9-6.7,28.9-13.3,41.9c-9.6,19.1-23.4,35.6-40.3,48.4
					c-7,5.3-14.6,10-22.6,13.9c-11.6,5.7-24.1,9.9-37.3,12.2c-7.8,1.4-15.9,2.1-24.1,2.1c-26.2,0-50.8-7.3-71.7-19.9
					c-12.9-7.7-24.4-17.5-34.1-28.9c-13.4-15.6-23.4-34.3-28.7-54.8c-3-11.4-4.6-23.3-4.6-35.6c0-4,0.2-8,0.5-11.9
					c1.5-18.1,6.6-35.3,14.4-50.8c0.9,6.6,2.5,14.6,5.6,20.8c3.6,7.2,9.2,11.9,17.9,9c0.5-0.2,0.9-0.3,1.4-0.5
					c22.6-8.6,21.3-30.8,21.3-30.8s1.9,2.8,4.9,5.7c4.8,4.7,13.5,9,20.6,4c11.4-8.1,2.9-29.7,2.7-30.5c0.3,0.2,3.1,2.1,7.1,3.5
					c6,2.1,14.4,2.7,19.7-6.5v0c0,0,0.1-0.1,0.1-0.1c7.1-12.9-4.3-35.5-26.4-41.9c4.5-1.7,9.1-3.2,13.8-4.4
					c11.4-3,23.2-4.6,35.5-4.6c15.3,0,30,2.5,43.8,7c20.2,6.7,38.4,17.9,53.3,32.5C372.8,143.9,388.9,179.2,388.9,218.3z"/>
				<g>
					<path class="st13" d="M387.9,218.3c-0.4,66.3-48.6,124.6-114.3,136.1c-65.6,11.4-132-27.2-154.2-90.1
						c-12.4-35.4-9.8-74.6,6.9-108.1c-0.6-0.1-1.2-0.2-1.8-0.2c1.3,9.5,3.4,22.2,11.6,28.6c7.2,5.6,16.7,1.5,23.2-3.2
						c8.3-6,13.9-16.7,13.3-27.1c-0.6,0.2-1.2,0.3-1.8,0.5c6.5,9.2,22.2,19.2,30.6,6.2c5.2-8.1,2.4-19.3-0.5-27.7
						c-0.5,0.4-1,0.7-1.4,1.1c5.8,3.9,14.1,6.7,20.8,3.6c6-2.7,9.1-8.7,9.6-14.8c1.2-17-14.2-31.1-29.2-35.7c0,0.6,0,1.2,0,1.9
						c35.6-13.4,75.9-11.7,110.1,5.2c29.1,14.4,52.6,39,65.6,68.7C384,180.5,387.8,199.3,387.9,218.3c0,1.2,1.9,1.3,1.9,0
						c-0.2-32.9-11.7-65-32.9-90.2c-22.7-26.9-55.2-44.6-90.2-48.8c-22.5-2.7-45.3,0.1-66.5,8c-0.9,0.3-1,1.6,0,1.9
						c13.5,4.2,26.9,15.9,27.7,30.9c0.4,6-2,12.4-7.4,15.5c-6.3,3.6-14.5,0.7-20-3c-0.7-0.5-1.7,0.3-1.4,1.1
						c2.3,6.5,4.1,13.7,2.8,20.6c-1.3,7.2-7.2,12.3-14.8,10.5c-6.1-1.4-11-6.1-14.5-11.1c-0.5-0.7-1.9-0.6-1.8,0.5
						c0.4,8.1-3.2,16.8-8.9,22.5c-5.8,5.8-16.9,12.2-24.5,6.3c-7.8-6-9.6-18.4-10.9-27.5c-0.1-0.8-1.4-0.9-1.8-0.2
						c-14.9,30-19,64.7-10.8,97.3c7.8,31.1,26.5,59,52.2,78.2c54.9,40.9,133.9,35.3,182.4-13c26.4-26.3,41.1-62.2,41.3-99.3
						C389.8,217,387.9,217,387.9,218.3z"/>
				</g>
			</g>
			<g>
				<g>
					<g>
						<path class="st14" d="M300.8,234.4c4.1-4.2,11.9-6.7,15.2-0.3c0.2,0.5,0.9,0.6,1.3,0.3c5.5-3.5,14,0.8,11.4,7.8
							c-0.4,1.2,1.4,1.7,1.9,0.5c1.3-3.5,0.6-6.9-2.4-9.3c-3.4-2.7-6.1-1.8-9.9-1.7c-2.8,0,0.6,0.9-1.9-0.6
							c-0.4-0.3-0.7-0.8-1.1-1.1c-1.4-1.1-3.1-1.6-4.8-1.8c-4.2-0.3-8.2,1.8-11.1,4.8C298.6,234,300,235.3,300.8,234.4L300.8,234.4z
							"/>
					</g>
				</g>
				<g>
					<g>
						<path class="st14" d="M252.3,208.4c-0.6,4.1,1.8,6.8,5.7,7.7c-0.2-0.3-0.5-0.6-0.7-0.9c-0.2,6.8,5.8,8.6,11.3,5.9
							c1.1-0.6,0.1-2.2-1-1.7c-4.1,2.1-8.5,1.1-8.3-4.2c0-0.4-0.3-0.8-0.7-0.9c-2.7-0.7-4.8-2.3-4.3-5.4
							C254.3,207.7,252.5,207.2,252.3,208.4L252.3,208.4z"/>
					</g>
				</g>
				<g>
					<g>
						<path class="st14" d="M247,110.5c5.1-1.5,10.1-1.8,10,5c0,0.5,0.5,0.9,1,1c2,0.1,4.5-0.2,6.3,0.7c3.7,1.8,4.7,7.2,1.7,10.2
							c-0.9,0.9,0.5,2.3,1.4,1.4c2.9-3,3-7.6,0.6-11c-2.4-3.4-6.3-3.1-10-3.2c0.3,0.3,0.6,0.6,1,1c0.1-8.1-5.8-8.8-12.4-6.9
							C245.3,109,245.8,110.9,247,110.5L247,110.5z"/>
					</g>
				</g>
				<g>
					<g>
						<path class="st14" d="M329.6,189.7c2,0.2,3.5-1,5.3-1.7c5.8-2.2,7.1,2.6,7.2,7.1c0,0.5,0.4,1,1,1c4.6-0.5,8,8.8,3.4,10.7
							c-1.1,0.5-0.6,2.4,0.5,1.9c6.5-2.7,3.1-15.2-3.9-14.5c0.3,0.3,0.6,0.6,1,1c-0.1-3.4,0-7-3.4-8.9c-4.4-2.5-7,1.8-11.1,1.5
							C328.4,187.7,328.4,189.6,329.6,189.7L329.6,189.7z"/>
					</g>
				</g>
				<g>
					<g>
						<path class="st14" d="M348.1,149c-0.1,5.1-0.8,13.4,6.5,13.1c-0.3-0.3-0.6-0.6-1-1c0.4,6.2,1.7,9.3,8.4,9.2c1.2,0,1.3-2,0-1.9
							c-2.1,0-4.5,0.1-5.7-1.9c-0.8-1.5-0.7-3.7-0.8-5.4c0-0.5-0.4-1-1-1c-5.8,0.2-4.6-7.3-4.5-11.1
							C350,147.7,348.1,147.7,348.1,149L348.1,149z"/>
					</g>
				</g>
				<g>
					<g>
						<path class="st14" d="M212.5,340c0.9-3.5,5.5-4.9,8.6-4.9c4.2,0,6.8,2.7,9.1,5.9c0.6,0.8,1.7,0.5,1.8-0.5
							c0.8-6.3,10.1-1.6,11,2.3c0.3,1.2,2.2,0.7,1.9-0.5c-1.5-6.5-13.8-10.1-14.8-1.8c0.6-0.2,1.2-0.3,1.8-0.5
							c-3-4.2-6.4-7.4-11.9-6.8c-3.8,0.4-8.4,2.2-9.4,6.3C210.3,340.7,212.2,341.2,212.5,340L212.5,340z"/>
					</g>
				</g>
				<g>
					<g>
						<path class="st14" d="M282.5,323.5c3.2,5.2,12.5,6.9,13.8-0.6c-0.6,0.1-1.2,0.2-1.8,0.2c2.2,5.2,9.8,5.2,11.5-0.4
							c0.4-1.2-1.5-1.7-1.9-0.5c-1.3,4.2-6.5,3.3-7.9-0.1c-0.3-0.7-1.6-0.6-1.8,0.2c-1,5.8-8,3.9-10.3,0.1
							C283.5,321.5,281.8,322.5,282.5,323.5L282.5,323.5z"/>
					</g>
				</g>
				<g>
					<g>
						<path class="st14" d="M341,288.1c2.7,3.1,2.6,5.6,0,8.7c-0.5,0.6-0.2,1.7,0.7,1.7c0.9,1.3,1.8,2.6,2.8,3.9
							c-0.4,1.2-1.1,2.1-2.1,2.7c-1,0.8-2.1,1.3-3.3,1.7c-1.1,0.5-0.6,2.3,0.5,1.9c3.2-1.3,6.6-3.2,6.9-7c0.3-3.2-1.6-5.4-4.8-5.2
							c0.2,0.6,0.5,1.1,0.7,1.7c3.3-4,3.4-7.5,0-11.5C341.5,285.8,340.1,287.1,341,288.1L341,288.1z"/>
					</g>
				</g>
				<g>
					<g>
						<path class="st14" d="M215,293.3c-2-2.6,4.1-9,5.9-6.2c0.5,0.7,1.5,0.6,1.8-0.2c0.9-2.9,4.8-5,7.2-2.4
							c0.8,0.9,2.2-0.5,1.4-1.4c-3.4-3.7-9.1-1-10.4,3.3c0.6-0.1,1.2-0.2,1.8-0.2c-3.5-5.5-12.6,3.8-8.9,8.5
							C214.4,295.6,215.8,294.3,215,293.3L215,293.3z"/>
					</g>
				</g>
				<g>
					<g>
						<path class="st14" d="M277.8,277c0.4-2.8,4.1-3.6,5.8-1.4c0.8,1,2.1-0.4,1.4-1.4c-2.6-3.3-8.4-1.9-9,2.3
							C275.7,277.7,277.6,278.2,277.8,277L277.8,277z"/>
					</g>
				</g>
				<g>
					<g>
						<path class="st14" d="M309.1,155.5c0.6-0.9,1.4-1.2,2.1-0.2c0.6,0.8,0.7,2,0.1,2.8c-0.8,1,0.6,2.3,1.4,1.4
							c1.4-1.6,1.3-4-0.2-5.6c-0.6-0.7-1.5-1.1-2.4-1.1c-1.2,0-2.1,0.9-2.7,1.8C306.8,155.5,308.4,156.5,309.1,155.5L309.1,155.5z"
							/>
					</g>
				</g>
				<g>
					<g>
						<path class="st14" d="M176.3,181.8c-0.1,5.5,1,11.9,7.8,11.7c-0.3-0.3-0.6-0.6-1-1c0.3,4.9,3.7,10.4,8.2,5.2
							c0.8-0.9-0.5-2.3-1.4-1.4c-0.5,0.5-1.8,1.8-2.5,1.7c-0.8-0.2-1.3-1.4-1.6-2c-0.5-1.1-0.7-2.4-0.8-3.6c0-0.5-0.4-1-1-1
							c-5.7,0.2-6-5.4-5.9-9.7C178.3,180.6,176.3,180.6,176.3,181.8L176.3,181.8z"/>
					</g>
				</g>
				<g>
					<g>
						<path class="st14" d="M240,128.6c2.3-0.3,0.7,6.3-0.1,7.2c-0.3,0.3-0.4,0.8-0.2,1.2c3.7,5.2-1.6,6.9-6.1,6.9
							c-1.2,0-1.3,1.9,0,1.9c6.2,0.1,12.3-3.3,7.7-9.8c-0.1,0.4-0.1,0.8-0.2,1.2c2.2-2.4,3.3-11.2-1.8-10.4
							C238.3,126.9,238.8,128.8,240,128.6L240,128.6z"/>
					</g>
				</g>
				<g>
					<g>
						<path class="st14" d="M122.2,189c0.3,1.8,0.9,3.7,2.1,5.1c1.3,1.5,3.2,1.5,4.9,0.6c1.1-0.6,0.1-2.3-1-1.7
							c-2.8,1.5-3.7-2.5-4.1-4.5C123.8,187.3,121.9,187.8,122.2,189L122.2,189z"/>
					</g>
				</g>
				<g>
					<g>
						<path class="st14" d="M163.4,247.5c0.4-4,6.3-5.9,6-0.5c0,0.7,0.9,1.2,1.5,0.8c2.1-1.3,4.4-1.7,6.5-0.1c1,0.7,3.1,3.6,1.1,4.4
							c-1.1,0.5-0.6,2.4,0.5,1.9c2.8-1.2,2.6-4.2,1-6.4c-2.5-3.4-6.6-3.5-10-1.4c0.5,0.3,1,0.6,1.5,0.8c0.5-7.9-9.2-6-9.9,0.5
							C161.3,248.8,163.3,248.8,163.4,247.5L163.4,247.5z"/>
					</g>
				</g>
				<g>
					<g>
						<path class="st14" d="M160.2,203.1c-1.5,3.4-0.3,7.8,3.8,8.4c1.2,0.2,1.7-1.7,0.5-1.9c-2.8-0.4-3.7-3.1-2.7-5.5
							C162.4,202.9,160.7,202,160.2,203.1L160.2,203.1z"/>
					</g>
				</g>
				<g>
					<g>
						<path class="st14" d="M135.4,283.9c3.2-2.6,7.9-5.4,10.6-0.4c0.3,0.5,1.1,0.6,1.5,0.2c3.2-3.4,10.4-3,10.3,2.7
							c0,1.2,1.9,1.2,1.9,0c0.2-7.4-9.2-8.8-13.6-4.1c0.5,0.1,1,0.1,1.5,0.2c-3.4-6.2-9.2-3.7-13.7,0
							C133,283.3,134.4,284.7,135.4,283.9L135.4,283.9z"/>
					</g>
				</g>
				<g>
					<g>
						<path class="st14" d="M370,205.4c-1.8,3.8,0.3,9.1,5,8.9c1.2-0.1,1.3-2,0-1.9c-3.1,0.2-4.5-3.4-3.3-5.9
							C372.2,205.3,370.5,204.3,370,205.4L370,205.4z"/>
					</g>
				</g>
				<g>
					<g>
						<path class="st14" d="M233.8,95c0.9-3.2,6.5-3.6,8.6-1.4c0.9,0.9,2.2-0.5,1.4-1.4c-3.1-3.3-10.5-2.4-11.8,2.3
							C231.6,95.7,233.4,96.2,233.8,95L233.8,95z"/>
					</g>
				</g>
			</g>
		</g>
		<g>
			<g>
				<path class="st15" d="M346.8,118.6c-4.9,11-15.9,18.7-28.8,18.7c-17.4,0-31.5-14.1-31.5-31.5c0-7.5,2.6-14.3,7-19.7
					C313.7,92.9,331.9,104.1,346.8,118.6z"/>
				<g>
					<path class="st13" d="M346,118.2c-5.9,12.6-19.3,20.2-33.2,17.8c-12.3-2.1-22.3-11.9-24.7-24.1c-1.3-6.8-0.6-17.2,4.4-22.6
						c1.5-1.6,1.6-1.6,4-1c1.6,0.4,3.2,1.2,4.7,1.8c3.5,1.4,7,3,10.4,4.7c12.8,6.4,24.4,14.8,34.6,24.7c0.9,0.9,2.3-0.5,1.4-1.4
						c-15.3-14.8-33.6-25.9-53.7-32.7c-0.4-0.2-0.8,0.1-1.1,0.4c-12,15.6-8,38.6,9.4,48.5c16.6,9.4,37.6,2,45.6-15
						C348.2,118,346.5,117,346,118.2z"/>
				</g>
			</g>
			<g>
				<path class="st15" d="M387.3,238.9c-2.2,14.9-6.7,28.9-13.3,41.9c-0.8,0.1-1.7,0.1-2.6,0.1c-13.2,0-23.8-10.8-23.8-24
					c0-13.3,10.7-24,23.8-24C377.6,232.8,383.1,235.1,387.3,238.9z"/>
				<g>
					<path class="st13" d="M386.4,238.6c-1.9,12.2-5.2,24.1-10.2,35.3c-1,2.2-1.7,5.2-4.1,5.9c-2,0.6-5.6-0.4-7.6-1.1
						c-5-1.6-9.4-5-12.3-9.4c-5.7-8.8-4.6-20.7,2.6-28.4c8.4-9.1,22.5-9.3,31.8-1.4c0.9,0.8,2.3-0.6,1.4-1.4
						c-9.1-7.7-22.1-8.5-31.7-1.1c-8.8,6.8-12,19.1-7.8,29.3c2,4.9,5.5,9.1,10,11.8c2.5,1.5,5.2,2.6,8,3.1c1.9,0.4,6,1.3,7.7,0.3
						c1.8-1.1,2.7-4.9,3.6-6.7c1.5-3.3,2.8-6.6,4-10c3-8.4,5.1-17,6.4-25.8C388.5,237.9,386.6,237.4,386.4,238.6z"/>
				</g>
			</g>
			<g>
				<ellipse class="st15" cx="217.8" cy="244.9" rx="14.1" ry="12"/>
				<g>
					<path class="st13" d="M230.9,244.9c-0.9,14.4-26.3,14.6-26.3,0C204.7,230.3,230.1,230.4,230.9,244.9c0.1,1.2,2,1.2,1.9,0
						c-1-16.9-30.3-17.1-30.2,0c0.1,17.1,29.2,16.9,30.2,0C233,243.6,231,243.6,230.9,244.9z"/>
				</g>
			</g>
			<g>
				<path class="st15" d="M314,271.4c0,12.1-9.6,22-21.5,22c-11.9,0-21.5-9.8-21.5-22c0-12.1,9.6-22,21.5-22
					C304.3,249.5,314,259.3,314,271.4z"/>
				<g>
					<path class="st13" d="M313,271.4c-0.3,11.2-8.9,21-20.6,21c-11.4,0-20.6-9.8-20.6-21c0-11,8.8-20.6,19.9-21
						C303.7,250,312.7,260,313,271.4c0,1.2,2,1.3,1.9,0c-0.4-12.3-9.8-23-22.5-23c-12.4,0-22.5,10.7-22.5,23c0,12.3,10,23,22.5,23
						c12.7,0,22.1-10.7,22.5-23C315,270.2,313,270.2,313,271.4z"/>
				</g>
			</g>
			<g>
				<path class="st15" d="M310.2,176c0,12.1-9.6,22-21.5,22c-11.9,0-21.5-9.8-21.5-22c0-12.1,9.6-22,21.5-22
					C300.5,154,310.2,163.9,310.2,176z"/>
				<g>
					<path class="st13" d="M309.2,176c-0.3,11.2-8.9,21-20.6,21c-11.4,0-20.6-9.8-20.6-21c0-11,8.8-20.6,19.9-21
						C299.9,154.6,308.8,164.6,309.2,176c0,1.2,2,1.3,1.9,0c-0.4-12.3-9.8-23-22.5-23c-12.4,0-22.5,10.7-22.5,23
						c0,12.3,10,23,22.5,23c12.7,0,22.1-10.7,22.5-23C311.2,174.8,309.2,174.8,309.2,176z"/>
				</g>
			</g>
			<g>
				<path class="st15" d="M239.8,170c0,7.3-5.7,13.2-12.7,13.2c-7,0-12.7-5.9-12.7-13.2c0-7.3,5.7-13.2,12.7-13.2
					C234.1,156.8,239.8,162.7,239.8,170z"/>
				<g>
					<path class="st13" d="M238.8,170c-0.3,6.4-4.9,12.2-11.7,12.2c-6.6,0-11.7-5.8-11.7-12.2c0-6,4.5-11.5,10.5-12.1
						C233.3,157.2,238.5,163.1,238.8,170c0.1,1.2,2,1.3,1.9,0c-0.4-7.5-5.7-14.2-13.6-14.2c-7.6,0-13.7,6.7-13.6,14.2
						c0,7.5,6,14.2,13.6,14.2c7.9,0,13.3-6.7,13.6-14.2C240.8,168.8,238.9,168.8,238.8,170z"/>
				</g>
			</g>
			<g>
				<path class="st15" d="M145.3,229.8c0,8-4.2,15.1-10.8,19.5c-4.5,3-10,4.8-16,4.8c-1.1,0-2.2-0.1-3.3-0.2
					c-3-11.4-4.6-23.3-4.6-35.6c0-4,0.2-8,0.5-11.9c2.3-0.6,4.8-0.9,7.4-0.9c4,0,7.8,0.8,11.2,2.2C139,211.5,145.3,220,145.3,229.8z
					"/>
				<g>
					<path class="st13" d="M144.4,229.8c-0.4,11.3-8.8,20.4-19.8,22.7c-2.1,0.5-6.6,1.5-8.3,0c-1.6-1.4-1.7-5.6-2.1-7.5
						c-1.1-5.8-1.9-11.7-2.3-17.6c-0.3-5-0.4-10.1-0.2-15.1c0.2-4.2,0.2-5.5,4.9-5.8c3-0.2,6.1,0.1,9.1,0.9
						C136.2,210.1,144,218.8,144.4,229.8c0,1.2,2,1.3,1.9,0c-0.6-18.2-18.8-28.1-35.4-24.3c-0.4,0.1-0.7,0.5-0.7,0.9
						c-1.3,16.1,0.1,32.1,4.1,47.7c0.1,0.4,0.5,0.7,0.9,0.7c15.5,1.3,30.5-8.8,31.1-25.1C146.4,228.5,144.4,228.5,144.4,229.8z"/>
				</g>
			</g>
			<g>
				<path class="st15" d="M183.8,323.1c0,1.1-0.1,2.1-0.2,3.2c-0.7,4.3-2.6,8.1-5.5,11.2c-12.9-7.7-24.4-17.5-34.1-28.9
					c3.5-3.7,8.3-6.3,13.7-7c1.1-0.2,2.2-0.2,3.3-0.2C173.6,301.4,183.8,311.1,183.8,323.1z"/>
				<g>
					<path class="st13" d="M182.8,323.1c-0.1,3.1-0.7,6-2,8.7c-0.5,0.9-1,1.8-1.6,2.7c-1.2,1.5-2.4,1.6-3.6,0.3
						c-3.6-1.2-8.2-5.5-11.1-7.8c-3.6-2.8-7.1-5.9-10.4-9c-1.2-1.2-2.5-2.4-3.7-3.6c-0.9-1-4.5-3.8-4.7-5.1
						c-0.4-3.3,7.8-5.8,10.5-6.4c4.9-1,10-0.4,14.5,1.8C178.1,308.1,182.5,315.1,182.8,323.1c0,1.2,2,1.3,1.9,0
						c-0.7-21.3-26.9-29.6-41.4-15.2c-0.4,0.4-0.3,1,0,1.4c9.9,11.4,21.4,21.1,34.3,29c0.3,0.2,0.9,0.2,1.2-0.2
						c3.8-4.4,5.8-9.3,6-15.1C184.8,321.8,182.8,321.8,182.8,323.1z"/>
				</g>
			</g>
			<g>
				<path class="st15" d="M311.2,343.1c-11.6,5.7-24.1,9.9-37.3,12.2c-0.2-1-0.3-2-0.3-3.1c0-3.1,0.8-6.1,2.3-8.6
					c3.4-5.9,10.1-9.9,17.8-9.9c4.9,0,9.5,1.6,13,4.4C308.5,339.5,310,341.2,311.2,343.1z"/>
				<g>
					<path class="st13" d="M310.7,342.3c-6.3,3.1-12.8,5.7-19.5,7.8c-3.4,1.1-6.9,2-10.4,2.8c-1.2,0.3-3.2,1.2-4.4,0.9
						c-2.4-0.5-1.8-2.9-1.3-5.2c3.7-16.6,26.6-18,35.4-5.1c0.7,1,2.4,0.1,1.7-1c-11.8-17.5-42.1-9.5-39.1,12.9
						c0.1,0.6,0.7,0.8,1.2,0.7c13.1-2.4,25.6-6.5,37.5-12.3C312.8,343.4,311.8,341.7,310.7,342.3z"/>
				</g>
			</g>
		</g>
		<g>
			<path class="st16" d="M226.7,130.2c0,0,0.1-0.1,0.1-0.1c7.1-12.9-4.3-35.5-26.4-41.9c4.5-1.7,9.1-3.2,13.8-4.4
				C227.1,94.8,248.6,117.5,226.7,130.2z"/>
			<path class="st16" d="M196.3,164.6c11.4-8.1,4-30.5,3.7-31.3c0.3,0.2,3.1,2.1,7.1,3.5C210.8,148,214,165.8,196.3,164.6z"/>
			<path class="st16" d="M176.7,159.8c-1.6,12.5-7.1,30.7-26.2,25c22.6-8.6,21.3-30.8,21.3-30.8S173.7,156.9,176.7,159.8z"/>
			<path class="st16" d="M333.7,329.2c-7,5.3-14.6,10-22.6,13.9c-11.6,5.7-24.1,9.9-37.3,12.2c-7.8,1.4-15.9,2.1-24.1,2.1
				c-26.2,0-50.8-7.3-71.7-19.9c-12.9-7.7-24.4-17.5-34.1-28.9c-13.4-15.6-23.4-34.3-28.7-54.8c-3-11.4-4.6-23.3-4.6-35.6
				c0-4,0.2-8,0.5-11.9c1.5-18.1,6.6-35.3,14.4-50.8c0.9,6.6,2.5,14.6,5.6,20.8c-0.9,8.7-1.6,19.4-1.4,31.3
				c0.2,12.9,1.5,27.2,4.8,41.6c2.4,10.5,5.8,21.1,10.6,31.4c3.4,7.3,7.6,14.3,12.5,21c3,4,6.3,7.9,9.9,11.7c4.8,5,10.2,9.3,16,13
				c8.6,5.5,18.1,9.6,28.2,12.6c19.9,5.8,42.2,7,64.1,4.7c10.4-1.1,20.7-3,30.7-5.5C316.1,335.6,325.2,332.6,333.7,329.2z"/>
		</g>
	</g>
</g>
<path class="st1" d="M392.1,181.3c0,0-2.5-0.3-3.9-1.9c-0.8-0.8-0.8-1.7-1.4-2.2c-0.6-0.6-2.2-2.2-2.8-3.6c-0.6-1.1-0.8-1.4-1.7-0.6
	c-0.6,0.8,0.6,3,0.8,3.9c0.3,0.6,0.3,1.9,0.3,2.2c0,0.3-4.4-0.6-5-1.7c0,0-0.8,0.6-1.1,1.1c-0.3,0.6,0.3,1.1,0.3,1.4
	s-0.6,0.6-0.8,0.8c0,0.6,0.6,0.8,0.3,1.7c-0.3,0.8-0.6,0.6-0.8,1.1c-0.3,0.8,0.3,1.4,0.3,1.7s-0.6,0.6-0.3,1.1
	c0.3,0.6,3.6,1.7,5,1.9s7.2-1.4,11.1-0.6"/>
</svg>
