<svg width="33" height="35" viewBox="0 0 33 35" fill="none" xmlns="http://www.w3.org/2000/svg">
<g clip-path="url(#clip0)">
<path d="M19.7264 27.335C19.554 27.2139 19.3324 27.2139 19.16 27.335L17.9237 28.1981L16.6825 27.335C16.5101 27.2139 16.2885 27.2139 16.121 27.335L14.8798 28.1981L13.6386 27.335C13.4662 27.2139 13.2446 27.2139 13.0771 27.335L12.3432 27.8448V16.1508H11.3286V28.834C11.3286 28.9753 11.3828 29.1066 11.4764 29.2025V29.2076L16.0422 33.9618C16.1407 34.0628 16.2688 34.1133 16.4017 34.1133C16.5298 34.1133 16.6579 34.0628 16.7564 33.9618L21.3222 29.2076V29.2025C21.4158 29.1066 21.47 28.9753 21.47 28.834V18.7904H20.4553V27.8448L19.7264 27.335ZM14.5991 29.2731C14.7665 29.3892 14.9882 29.3892 15.1606 29.2731L16.4017 28.4101L17.638 29.2731C17.8104 29.3892 18.0321 29.3892 18.2044 29.2731L19.4407 28.4101L20.1697 28.9148L18.2192 30.9437H14.5793L12.6338 28.9148L13.3579 28.4101L14.5991 29.2731ZM15.594 32.0035H17.2046L16.4017 32.8414L15.594 32.0035Z" fill="white" stroke="white" stroke-width="0.3"/>
<path d="M9.04787 11.4719L7.57519 11.2498L6.92011 9.8619C6.74772 9.49851 6.18131 9.49851 6.00892 9.8619L5.35384 11.2498L3.88116 11.4719C3.68907 11.5022 3.53145 11.6384 3.47235 11.8302C3.41324 12.022 3.4625 12.234 3.60041 12.3703L4.66428 13.4553L4.41311 14.9796C4.38356 15.1764 4.45742 15.3783 4.61504 15.4944C4.77265 15.6155 4.97953 15.6307 5.15192 15.5348L6.46698 14.8181L7.78205 15.5348C7.85593 15.5752 7.93475 15.5953 8.01848 15.5953C8.12192 15.5953 8.22534 15.565 8.31399 15.4944C8.47161 15.3783 8.5504 15.1764 8.51592 14.9796L8.26475 13.4553L9.32862 12.3703C9.46653 12.234 9.51579 12.022 9.45668 11.8302C9.39758 11.6384 9.23996 11.5022 9.04787 11.4719ZM7.22055 13.3595L7.34368 14.1014L6.69846 13.7532C6.62458 13.7077 6.54578 13.6876 6.46205 13.6876C6.38324 13.6876 6.30445 13.7077 6.22564 13.7532L5.58535 14.1014L5.70848 13.3595C5.73804 13.1879 5.68383 13.0113 5.5607 12.8901L5.04354 12.3652L5.76266 12.2542C5.92519 12.229 6.06801 12.1229 6.14189 11.9665L6.46205 11.2903L6.78714 11.9665C6.86102 12.1229 7.00384 12.229 7.16637 12.2542L7.88549 12.3652L7.3634 12.8901C7.24519 13.0113 7.19099 13.1879 7.22055 13.3595Z" fill="white" stroke="white" stroke-width="0.3"/>
<path d="M9.05307 6.94972C9.0186 7.14656 9.09741 7.34845 9.2501 7.46958C9.40771 7.58567 9.61456 7.60084 9.78695 7.50495L11.432 6.60656L13.0771 7.50495C13.151 7.54532 13.2298 7.56545 13.3135 7.56545C13.417 7.56545 13.5204 7.5352 13.609 7.46958C13.7667 7.34845 13.8454 7.14656 13.811 6.94972L13.4958 5.04192L14.8256 3.68934C14.9635 3.54802 15.0177 3.34106 14.9537 3.14927C14.8946 2.95748 14.737 2.82123 14.5449 2.79095L12.7077 2.51334L11.8852 0.77718C11.7177 0.413792 11.1464 0.413792 10.974 0.77718L10.1564 2.51334L8.31427 2.79095C8.12218 2.82123 7.96456 2.95748 7.90545 3.14927C7.84635 3.34106 7.89561 3.55307 8.03352 3.68934L9.36337 5.04192L9.05307 6.94972ZM10.9444 3.22998L11.432 2.20554L11.9147 3.22998C11.9935 3.38139 12.1314 3.49246 12.2989 3.5177L13.3825 3.67924L12.5993 4.48164C12.4811 4.60277 12.427 4.77446 12.4516 4.94605L12.6387 6.07659L11.6684 5.54157C11.5946 5.5012 11.5108 5.48107 11.432 5.48107C11.3483 5.48107 11.2695 5.5012 11.1956 5.54157L10.2253 6.07659L10.4076 4.94605C10.4371 4.77446 10.3829 4.60277 10.2647 4.48164L9.47665 3.67924L10.5652 3.5177C10.7277 3.49246 10.8705 3.38139 10.9444 3.22998Z" fill="white" stroke="white" stroke-width="0.3"/>
<path d="M25.2577 6.35437C25.3956 6.2181 25.4448 6.00609 25.3857 5.8143C25.3266 5.62251 25.169 5.48626 24.9769 5.45598L22.0857 5.01682L20.7953 2.29146C20.6229 1.92807 20.0565 1.92807 19.8841 2.29146L18.5936 5.01682L15.7025 5.45598C15.5104 5.48626 15.3527 5.62251 15.2936 5.8143C15.2345 6.00609 15.2838 6.2181 15.4217 6.35437L17.515 8.47916L17.0175 11.4821C16.988 11.679 17.0668 11.8758 17.2195 11.9969C17.3771 12.113 17.5839 12.1333 17.7563 12.0374L20.3421 10.6191L22.923 12.0374C23.0018 12.0777 23.0807 12.0979 23.1595 12.0979C23.2678 12.0979 23.3713 12.0626 23.4599 11.9969C23.6175 11.8758 23.6963 11.679 23.6618 11.4821L23.1693 8.47916L25.2577 6.35437ZM22.1251 8.38329L22.4896 10.6039L20.5786 9.55412C20.5047 9.51375 20.421 9.49362 20.3421 9.49362C20.2584 9.49362 20.1796 9.51375 20.1057 9.55412L18.1947 10.6039L18.5592 8.38329C18.5838 8.21169 18.5296 8.04001 18.4114 7.91888L16.8648 6.34932L19.0025 6.02118C19.1699 6.00099 19.3127 5.89005 19.3866 5.73359L20.3421 3.71982L21.2977 5.73359C21.3716 5.89005 21.5144 6.00099 21.6769 6.02118L23.8145 6.34932L22.268 7.91888C22.1498 8.04001 22.0956 8.21169 22.1251 8.38329Z" fill="white" stroke="white" stroke-width="0.3"/>
<path d="M27.9169 14.1015L27.3407 12.8902C27.1683 12.5268 26.6018 12.5268 26.4295 12.8902L25.8532 14.1015L24.5677 14.2984C24.3756 14.3286 24.218 14.4649 24.1589 14.6567C24.0998 14.8485 24.149 15.0605 24.2869 15.1968L25.2178 16.1455L24.9962 17.4779C24.9666 17.6748 25.0454 17.8766 25.1981 17.9927C25.2868 18.0634 25.3952 18.0938 25.4986 18.0938C25.5774 18.0938 25.6611 18.0735 25.735 18.0331L26.8826 17.4073L28.0351 18.0331C28.2075 18.129 28.4144 18.1139 28.5671 17.9978C28.7247 17.8766 28.8035 17.6748 28.769 17.4779L28.5523 16.1455L29.4832 15.1968C29.6211 15.0554 29.6704 14.8485 29.6113 14.6567C29.5522 14.4649 29.3896 14.3236 29.2025 14.2984L27.9169 14.1015ZM27.5081 16.0497L27.5968 16.5997L27.119 16.3423C27.0451 16.302 26.9663 16.2818 26.8826 16.2818C26.8038 16.2818 26.725 16.302 26.6462 16.3423L26.1734 16.5997L26.262 16.0497C26.2916 15.8781 26.2374 15.7015 26.1192 15.5803L25.7301 15.1867L26.2669 15.1058C26.4295 15.0856 26.5723 14.9747 26.6462 14.8182L26.8875 14.3186L27.124 14.8182C27.1978 14.9747 27.3407 15.0856 27.5081 15.1058L28.0401 15.1867L27.651 15.5803C27.5328 15.7015 27.4786 15.8781 27.5081 16.0497Z" fill="white" stroke="white" stroke-width="0.3"/>
<path d="M14.9237 19.9914H15.9383C15.9383 16.2061 13.2048 13.1223 9.85059 13.1223V14.1772C12.6482 14.1772 14.9237 16.7865 14.9237 19.9914Z" fill="white" stroke="white" stroke-width="0.3"/>
<path d="M17.731 22.5603H18.7456C18.7456 18.8407 20.371 15.6914 22.2968 15.6914V14.6365C19.7356 14.6365 17.731 18.1189 17.731 22.5603Z" fill="white" stroke="white" stroke-width="0.3"/>
<path d="M13.791 13.7684H14.8056C14.8056 12.6026 15.4903 11.6538 16.3276 11.6538V10.5989C14.9288 10.5989 13.791 12.0222 13.791 13.7684Z" fill="white" stroke="white" stroke-width="0.3"/>
<path d="M10.3433 9.13007C11.1806 9.13007 11.8652 10.0789 11.8652 11.2448H12.8798C12.8798 9.49848 11.7421 8.0752 10.3433 8.0752V9.13007Z" fill="white" stroke="white" stroke-width="0.3"/>
<path d="M20.8192 13.1678V12.1129C18.3024 12.1129 16.2534 14.485 16.2534 17.3972H17.268C17.268 15.0654 18.8589 13.1678 20.8192 13.1678Z" fill="white" stroke="white" stroke-width="0.3"/>
<path d="M17.731 24.7306V23.7212H18.716V24.7306H17.731Z" fill="white" stroke="white" stroke-width="0.3"/>
<path d="M16.2534 19.6835V18.6741H17.2385V19.6835H16.2534Z" fill="white" stroke="white" stroke-width="0.3"/>
<path d="M14.7759 22.207V21.1976H15.761V22.207H14.7759Z" fill="white" stroke="white" stroke-width="0.3"/>
<path d="M14.7759 24.226V23.2166H15.761V24.226H14.7759Z" fill="white" stroke="white" stroke-width="0.3"/>
<path d="M14.7759 26.2448V25.2354H15.761V26.2448H14.7759Z" fill="white" stroke="white" stroke-width="0.3"/>
<path d="M5.91016 17.1602V16.1508H6.89523V17.1602H5.91016Z" fill="white" stroke="white" stroke-width="0.3"/>
<path d="M0 10.0941V9.08472H0.985075V10.0941H0Z" fill="white" stroke="white" stroke-width="0.3"/>
<path d="M3.94043 8.07521V7.0658H4.9255V8.07521H3.94043Z" fill="white" stroke="white" stroke-width="0.3"/>
<path d="M24.627 10.5988V9.58936H25.612V10.5988H24.627Z" fill="white" stroke="white" stroke-width="0.3"/>
<path d="M30.5371 6.56117V5.55176H31.5222V6.56117H30.5371Z" fill="white" stroke="white" stroke-width="0.3"/>
<path d="M1.97021 4.03761V3.0282H2.95529V4.03761H1.97021Z" fill="white" stroke="white" stroke-width="0.3"/>
<path d="M5.41797 3.53297V2.52356H6.40304V3.53297H5.41797Z" fill="white" stroke="white" stroke-width="0.3"/>
<path d="M24.1343 3.02833V2.01892H25.1194V3.02833H24.1343Z" fill="white" stroke="white" stroke-width="0.3"/>
<path d="M27.582 7.57057V6.56116H28.5671V7.57057H27.582Z" fill="white" stroke="white" stroke-width="0.3"/>
<path d="M2.02925 13.1223H1.01463V14.1772H0V15.237H1.01463V16.2919H2.02925V15.237H3.04388V14.1772H2.02925V13.1223Z" fill="white" stroke="white" stroke-width="0.3"/>
<path d="M31.0888 9.08472H30.0742V10.1396H29.0596V11.1994H30.0742V12.2543H31.0888V11.1994H32.1034V10.1396H31.0888V9.08472Z" fill="white" stroke="white" stroke-width="0.3"/>
<path d="M29.5522 2.08936C29.5522 2.9625 30.2369 3.67421 31.0742 3.67421C31.9115 3.67421 32.5961 2.9625 32.5961 2.08936C32.5961 1.21622 31.9115 0.504639 31.0742 0.504639C30.2369 0.504639 29.5522 1.21622 29.5522 2.08936ZM30.5669 2.08936C30.5669 1.79663 30.7935 1.55952 31.0742 1.55952C31.3549 1.55952 31.5815 1.79663 31.5815 2.08936C31.5815 2.38209 31.3549 2.61933 31.0742 2.61933C30.7935 2.61933 30.5669 2.38209 30.5669 2.08936Z" fill="white" stroke="white" stroke-width="0.3"/>
</g>
<defs>
<clipPath id="clip0">
<rect width="33" height="34.32" fill="white"/>
</clipPath>
</defs>
</svg>