<svg width="30" height="32" viewBox="0 0 30 32" fill="none" xmlns="http://www.w3.org/2000/svg">
<g clip-path="url(#clip0)">
<path d="M25.8164 13.1603C25.6188 12.8964 25.4114 12.6469 25.2 12.4187C23.9592 11.0805 22.431 10.2159 20.7805 9.91835C20.4618 9.86084 20.1581 10.0799 20.1022 10.4075C20.0463 10.7351 20.2593 11.0472 20.5781 11.1046C21.98 11.3574 23.2849 12.0991 24.3515 13.2494C24.5346 13.4471 24.7151 13.6643 24.8877 13.8949C25.0032 14.049 25.1769 14.1299 25.3525 14.1299C25.4772 14.1299 25.603 14.0891 25.7095 14.0048C25.9659 13.8019 26.0138 13.4238 25.8164 13.1603Z" fill="#EA345D"/>
<path d="M26.7687 14.7242C26.7635 14.7125 26.7579 14.7005 26.7522 14.6888C26.6074 14.3913 26.2561 14.2719 25.9667 14.4207C25.6773 14.5693 25.5606 14.932 25.705 15.2294C25.8041 15.4489 26.0157 15.5782 26.2368 15.5782C26.3187 15.5782 26.402 15.5605 26.4813 15.523C26.7753 15.384 26.904 15.0264 26.7687 14.7242Z" fill="#EA345D"/>
<path d="M29.3412 19.0809C29.101 18.563 28.7031 17.7054 28.6961 17.4216C29.3813 15.6859 29.1314 13.765 27.9901 12.0079C26.235 9.30554 22.6379 7.34408 19.437 7.34408C18.3708 7.34408 17.3194 7.50819 16.3103 7.83097H16.0208C15.9468 7.6199 15.8629 7.41201 15.7696 7.20859L17.4405 5.49144C17.5504 5.37847 17.6122 5.22532 17.6122 5.06562C17.6122 4.90591 17.5504 4.75271 17.4405 4.63979L14.9421 2.07215C14.7132 1.83698 14.3423 1.83698 14.1134 2.07221L12.4427 3.78935C12.2449 3.69354 12.0427 3.60736 11.8371 3.5313V1.10319C11.8371 0.770587 11.5747 0.500977 11.2512 0.500977H7.71806C7.3945 0.500977 7.13212 0.770587 7.13212 1.10319V3.5313C6.92652 3.60736 6.72431 3.69354 6.52644 3.78935L4.85582 2.07221C4.74596 1.95923 4.5969 1.89582 4.44151 1.89582C4.28612 1.89582 4.13711 1.95929 4.02719 2.07221L1.52894 4.63979C1.30013 4.87496 1.30013 5.25628 1.52894 5.49144L3.19968 7.20859C3.10639 7.41195 3.02261 7.61978 2.94854 7.83103H0.585935C0.262323 7.83103 0 8.10064 0 8.43324V12.0645C0 12.3971 0.262323 12.6667 0.585935 12.6667H2.94843C3.02249 12.8781 3.10634 13.0859 3.1995 13.2892L1.52876 15.0064C1.29996 15.2416 1.29996 15.6229 1.52876 15.8581L4.02702 18.4257C4.25588 18.661 4.62678 18.661 4.8557 18.4258L6.52644 16.7088C6.72425 16.8046 6.92652 16.8908 7.13218 16.9669V19.3949C7.13218 19.7275 7.39456 19.9971 7.71811 19.9971H9.07766C9.48734 22.4407 10.704 24.6638 12.5409 26.3057C12.5595 26.3652 12.6137 26.6439 12.3809 27.4759C12.1996 28.1241 11.9213 28.8442 11.6759 29.4795C11.5115 29.9047 11.3696 30.2719 11.2838 30.5497C11.2273 30.7328 11.259 30.9326 11.3694 31.0876C11.4798 31.2426 11.6554 31.3342 11.8423 31.3342H20.2062C20.481 31.3342 20.8585 31.2077 21.0962 30.6051C21.1995 30.343 21.2671 30.0275 21.3386 29.6934C21.4082 29.368 21.5714 28.6061 21.7336 28.5139C21.7336 28.5139 21.7431 28.5122 21.7661 28.516C21.7962 28.5208 21.8266 28.5232 21.8571 28.5232C22.733 28.5232 23.4487 28.5641 24.0801 28.6C25.9321 28.7055 27.0502 28.7694 28.0308 27.3174C28.5296 26.579 28.4731 25.5021 28.4133 24.362C28.3825 23.7744 28.3507 23.1678 28.4073 22.6637C28.5094 22.5602 28.7656 22.3794 28.9261 22.2661C29.4784 21.8763 30 21.5081 30 20.9484C30 20.5228 29.7496 19.9615 29.3412 19.0809ZM8.30405 18.7925V16.5291C8.30405 16.2607 8.13126 16.0248 7.88048 15.9505C7.46974 15.8288 7.07153 15.6591 6.69683 15.4462C6.46831 15.3163 6.18378 15.3576 5.99904 15.5474L4.44139 17.1482L2.77177 15.4322L4.32942 13.8313C4.51399 13.6415 4.55424 13.3491 4.42797 13.1142C4.2209 12.7291 4.05573 12.3197 3.93707 11.8974C3.86465 11.6397 3.63514 11.4623 3.37417 11.4623H1.17187V9.03545H3.37423C3.63526 9.03545 3.86483 8.85798 3.93713 8.60023C4.05561 8.17833 4.22078 7.76906 4.42797 7.38371C4.5543 7.14879 4.51416 6.85635 4.32947 6.6666L2.77188 5.06568L4.44151 3.34968L5.99904 4.95053C6.18367 5.14035 6.46837 5.1816 6.69671 5.05183C7.07183 4.83882 7.47009 4.66912 7.88048 4.54747C8.13126 4.4731 8.30405 4.23716 8.30405 3.96887V1.70528H10.6653V3.96881C10.6653 4.23709 10.838 4.4731 11.0889 4.54741C11.4994 4.66912 11.8976 4.83876 12.2725 5.05171C12.5009 5.18154 12.7855 5.14029 12.9702 4.95047L14.5278 3.34962L16.1975 5.06568L14.6398 6.66654C14.4552 6.85629 14.4149 7.14867 14.5412 7.38359C14.7488 7.76973 14.9138 8.17899 15.0319 8.60005C15.1042 8.85792 15.3338 9.03551 15.5949 9.03551H16.4018C16.4032 9.03551 16.4046 9.03551 16.406 9.03551H17.7975V11.4624H15.5951C15.3342 11.4624 15.1046 11.6398 15.0322 11.8975C14.9136 12.3197 14.7485 12.7291 14.5413 13.1142C14.4149 13.3491 14.4551 13.6416 14.6398 13.8314L16.1975 15.4323L14.5279 17.1483L12.9703 15.5475C12.7856 15.3577 12.501 15.3164 12.2726 15.4462C11.8977 15.6592 11.4994 15.8289 11.0889 15.9505C10.838 16.0249 10.6653 16.2608 10.6653 16.5291V18.7926H8.30405V18.7925ZM28.2627 21.2731C27.7584 21.6291 27.3227 21.9366 27.2585 22.4018C27.1703 23.0398 27.2073 23.7448 27.2431 24.4267C27.2874 25.2726 27.3377 26.2314 27.0681 26.6306C26.4851 27.4937 25.9808 27.5018 24.145 27.3974C23.5392 27.3628 22.7876 27.32 21.8965 27.3187C21.554 27.2769 20.9751 27.3433 20.5888 28.1151C20.3925 28.5072 20.2871 28.9998 20.194 29.4345C20.1473 29.6529 20.0816 29.9598 20.0201 30.1296H12.6856C12.7112 30.063 12.7378 29.9943 12.7649 29.9239C13.6089 27.7397 14.1434 26.1377 13.3298 25.4145C11.7378 23.9995 10.6666 22.0955 10.2689 19.997H11.2512C11.5748 19.997 11.8372 19.7274 11.8372 19.3948V16.9667C12.0428 16.8906 12.245 16.8045 12.4429 16.7086L14.1136 18.4257C14.3425 18.6608 14.7134 18.6608 14.9423 18.4257L17.4406 15.858C17.5505 15.745 17.6122 15.5919 17.6122 15.4322C17.6122 15.2725 17.5505 15.1193 17.4406 15.0064L15.7697 13.2893C15.863 13.086 15.9469 12.878 16.0209 12.6667H18.3835C18.7071 12.6667 18.9695 12.3971 18.9695 12.0645V8.56085C19.1249 8.55296 19.2808 8.54856 19.4371 8.54856C22.229 8.54856 25.487 10.3232 27.0155 12.6766C27.6706 13.6852 28.3032 15.2542 27.5973 17.0011C27.3673 17.5701 27.7082 18.3591 28.2834 19.5993C28.4697 20.0006 28.7392 20.5818 28.8106 20.8532C28.6896 20.9718 28.4292 21.1556 28.2627 21.2731Z" fill="#EA345D"/>
<path d="M9.4848 6.11646L9.46435 6.11658C9.1408 6.11658 8.87842 6.38619 8.87842 6.71879C8.87842 7.05139 9.1408 7.321 9.46435 7.321L9.4848 7.32088C9.80836 7.32088 10.0707 7.05127 10.0707 6.71867C10.0707 6.38607 9.80836 6.11646 9.4848 6.11646Z" fill="#EA345D"/>
<path d="M8.47461 6.82024C8.32989 6.52287 7.9778 6.40224 7.68847 6.55105C6.31691 7.25618 5.46484 8.67282 5.46484 10.2482C5.46484 11.4687 5.98603 12.6204 6.8947 13.4079C7.00462 13.5033 7.13874 13.5498 7.2721 13.5498C7.43886 13.5498 7.60444 13.477 7.72028 13.3358C7.92893 13.0815 7.89753 12.7016 7.65015 12.4872C7.00614 11.929 6.63671 11.1129 6.63671 10.2482C6.63671 9.13189 7.24064 8.128 8.2127 7.62823C8.50209 7.47942 8.61934 7.11767 8.47461 6.82024Z" fill="#EA345D"/>
<path d="M9.48489 7.9231C8.2375 7.9231 7.22266 8.96613 7.22266 10.2482C7.22266 11.5302 8.2375 12.5732 9.48489 12.5732C10.7322 12.5733 11.747 11.5302 11.747 10.2482C11.747 8.96613 10.7322 7.9231 9.48489 7.9231ZM9.48483 11.3688C8.88355 11.3688 8.39447 10.8661 8.39447 10.2481C8.39447 9.63018 8.88361 9.12746 9.48483 9.12746C10.086 9.12746 10.575 9.63018 10.575 10.2481C10.575 10.8661 10.0859 11.3688 9.48483 11.3688Z" fill="#EA345D"/>
</g>
<defs>
<clipPath id="clip0">
<rect y="0.5" width="30" height="30.8333" fill="white"/>
</clipPath>
</defs>
</svg>