<svg width="26" height="26" viewBox="0 0 26 26" fill="none" xmlns="http://www.w3.org/2000/svg">
<path d="M22.7324 2.01172H21.5254V0H19.5137V2.01172H6.23633V0H4.22461V2.01172H3.01758C1.35369 2.01172 0 3.3654 0 5.0293V22.7324C0 24.3963 1.35369 25.75 3.01758 25.75H22.7324C24.3963 25.75 25.75 24.3963 25.75 22.7324V5.0293C25.75 3.3654 24.3963 2.01172 22.7324 2.01172ZM23.7383 22.7324C23.7383 23.2871 23.2871 23.7383 22.7324 23.7383H3.01758C2.46295 23.7383 2.01172 23.2871 2.01172 22.7324V9.45508H23.7383V22.7324ZM23.7383 7.44336H2.01172V5.0293C2.01172 4.47467 2.46295 4.02344 3.01758 4.02344H4.22461V6.03516H6.23633V4.02344H19.5137V6.03516H21.5254V4.02344H22.7324C23.2871 4.02344 23.7383 4.47467 23.7383 5.0293V7.44336Z" fill="white"/>
<path d="M5.83398 11.5674H3.82227V13.5791H5.83398V11.5674Z" fill="white"/>
<path d="M9.85742 11.5674H7.8457V13.5791H9.85742V11.5674Z" fill="white"/>
<path d="M13.8809 11.5674H11.8691V13.5791H13.8809V11.5674Z" fill="white"/>
<path d="M17.9043 11.5674H15.8926V13.5791H17.9043V11.5674Z" fill="white"/>
<path d="M21.9277 11.5674H19.916V13.5791H21.9277V11.5674Z" fill="white"/>
<path d="M5.83398 15.5908H3.82227V17.6025H5.83398V15.5908Z" fill="white"/>
<path d="M9.85742 15.5908H7.8457V17.6025H9.85742V15.5908Z" fill="white"/>
<path d="M13.8809 15.5908H11.8691V17.6025H13.8809V15.5908Z" fill="white"/>
<path d="M17.9043 15.5908H15.8926V17.6025H17.9043V15.5908Z" fill="white"/>
<path d="M5.83398 19.6143H3.82227V21.626H5.83398V19.6143Z" fill="white"/>
<path d="M9.85742 19.6143H7.8457V21.626H9.85742V19.6143Z" fill="white"/>
<path d="M13.8809 19.6143H11.8691V21.626H13.8809V19.6143Z" fill="white"/>
<path d="M17.9043 19.6143H15.8926V21.626H17.9043V19.6143Z" fill="white"/>
<path d="M21.9277 15.5908H19.916V17.6025H21.9277V15.5908Z" fill="white"/>
</svg>