<svg width="30" height="30" viewBox="0 0 30 30" fill="none" xmlns="http://www.w3.org/2000/svg">
<g clip-path="url(#clip0)">
<path d="M28.5938 23.9062H1.40625C1.03329 23.9062 0.675604 23.7581 0.411881 23.4944C0.148158 23.2306 0 22.873 0 22.5L0 1.875C0 1.50204 0.148158 1.14435 0.411881 0.880631C0.675604 0.616908 1.03329 0.46875 1.40625 0.46875H28.5938C28.9667 0.46875 29.3244 0.616908 29.5881 0.880631C29.8518 1.14435 30 1.50204 30 1.875V22.5C30 22.873 29.8518 23.2306 29.5881 23.4944C29.3244 23.7581 28.9667 23.9062 28.5938 23.9062ZM1.40625 1.40625C1.28193 1.40625 1.1627 1.45564 1.07479 1.54354C0.986886 1.63145 0.9375 1.75068 0.9375 1.875V22.5C0.9375 22.6243 0.986886 22.7435 1.07479 22.8315C1.1627 22.9194 1.28193 22.9688 1.40625 22.9688H28.5938C28.7181 22.9688 28.8373 22.9194 28.9252 22.8315C29.0131 22.7435 29.0625 22.6243 29.0625 22.5V1.875C29.0625 1.75068 29.0131 1.63145 28.9252 1.54354C28.8373 1.45564 28.7181 1.40625 28.5938 1.40625H1.40625Z" fill="white" stroke="white" stroke-width="0.3"/>
<path d="M21.0938 29.5313H8.90625C8.78193 29.5313 8.6627 29.4819 8.57479 29.394C8.48689 29.3061 8.4375 29.1869 8.4375 29.0625V27.6563C8.43749 27.5766 8.45782 27.4982 8.49656 27.4285L10.8403 23.2097L11.6597 23.6653L9.375 27.7777V28.5938H20.625V27.7777L18.3403 23.6653L19.1597 23.2097L21.5034 27.4285C21.5422 27.4982 21.5625 27.5766 21.5625 27.6563V29.0625C21.5625 29.1869 21.5131 29.3061 21.4252 29.394C21.3373 29.4819 21.2181 29.5313 21.0938 29.5313Z" fill="white" stroke="white" stroke-width="0.3"/>
<path d="M8.90625 27.1875H21.0938V28.125H8.90625V27.1875Z" fill="white" stroke="white" stroke-width="0.3"/>
<path d="M7.5 28.5938H8.90625V29.5312H7.5V28.5938Z" fill="white" stroke="white" stroke-width="0.3"/>
<path d="M21.0938 28.5938H22.5V29.5312H21.0938V28.5938Z" fill="white" stroke="white" stroke-width="0.3"/>
<path d="M0.46875 19.2188H29.5312V20.1562H0.46875V19.2188Z" fill="white" stroke="white" stroke-width="0.3"/>
<path d="M10.3127 18.2811C10.2402 18.2819 10.1685 18.2659 10.1032 18.2342L9.16569 17.7655C9.09726 17.7313 9.03825 17.6808 8.9938 17.6186C8.94935 17.5563 8.92082 17.4841 8.91069 17.4083L8.68053 15.6922C8.32855 15.5866 7.98796 15.4462 7.66381 15.2731L6.28897 16.3217C6.22811 16.3681 6.15682 16.3989 6.08132 16.4114C6.00582 16.4239 5.92841 16.4178 5.85584 16.3934L4.86256 16.0606C4.79373 16.0376 4.73118 15.9989 4.67985 15.9476C4.62852 15.8962 4.58981 15.8337 4.56678 15.7649L4.23397 14.7711C4.20972 14.6985 4.20363 14.6211 4.21621 14.5456C4.22879 14.4701 4.25968 14.3988 4.30616 14.338L5.35475 12.9636C5.18136 12.6397 5.04082 12.2992 4.93522 11.9474L3.21912 11.7167C3.1433 11.7066 3.07111 11.6781 3.00884 11.6336C2.94658 11.5892 2.89615 11.5302 2.86194 11.4617L2.39319 10.5242C2.36068 10.4592 2.34375 10.3874 2.34375 10.3147C2.34375 10.242 2.36068 10.1702 2.39319 10.1052L2.86194 9.16766C2.89615 9.09924 2.94658 9.04023 3.00884 8.99578C3.07111 8.95133 3.1433 8.9228 3.21912 8.91266L4.93522 8.68204C5.04082 8.33015 5.18136 7.9897 5.35475 7.66579L4.30616 6.28907C4.25968 6.22826 4.22879 6.15699 4.21621 6.08148C4.20363 6.00598 4.20972 5.92855 4.23397 5.85595L4.56678 4.8622C4.58981 4.79336 4.62852 4.73081 4.67985 4.67948C4.73118 4.62815 4.79373 4.58945 4.86256 4.56641L5.85584 4.2336C5.92841 4.20929 6.00582 4.20312 6.08132 4.21562C6.15682 4.22812 6.22811 4.25892 6.28897 4.30532L7.66381 5.35391C7.98796 5.1808 8.32855 5.04042 8.68053 4.93485L8.91069 3.21876C8.92082 3.14293 8.94935 3.07074 8.9938 3.00848C9.03825 2.94622 9.09726 2.89578 9.16569 2.86157L10.1032 2.39282C10.1683 2.36031 10.24 2.34338 10.3127 2.34338C10.3855 2.34338 10.4572 2.36031 10.5223 2.39282L11.4598 2.86157C11.5282 2.89578 11.5872 2.94622 11.6316 3.00848C11.6761 3.07074 11.7046 3.14293 11.7148 3.21876L11.9449 4.93485C12.2969 5.04042 12.6375 5.1808 12.9616 5.35391L14.3365 4.30532C14.3973 4.25892 14.4686 4.22812 14.5441 4.21562C14.6196 4.20312 14.697 4.20929 14.7696 4.2336L15.7629 4.56641C15.8317 4.58945 15.8943 4.62815 15.9456 4.67948C15.9969 4.73081 16.0356 4.79336 16.0587 4.8622L16.3915 5.85595C16.4157 5.92855 16.4218 6.00598 16.4092 6.08148C16.3966 6.15699 16.3658 6.22826 16.3193 6.28907L15.2707 7.66345C15.4449 7.98727 15.5862 8.32771 15.6926 8.6797L17.4087 8.91032C17.4845 8.92045 17.5567 8.94899 17.6189 8.99344C17.6812 9.03789 17.7316 9.0969 17.7658 9.16532L18.2346 10.1028C18.2671 10.1679 18.284 10.2396 18.284 10.3124C18.284 10.3851 18.2671 10.4568 18.2346 10.5219L17.7658 11.4594C17.7316 11.5278 17.6812 11.5868 17.6189 11.6313C17.5567 11.6757 17.4845 11.7043 17.4087 11.7144L15.6926 11.945C15.5862 12.297 15.4449 12.6374 15.2707 12.9613L16.3193 14.3356C16.3658 14.3964 16.3966 14.4677 16.4092 14.5432C16.4218 14.6187 16.4157 14.6962 16.3915 14.7688L16.0587 15.7625C16.0356 15.8313 15.9969 15.8939 15.9456 15.9452C15.8943 15.9965 15.8317 16.0353 15.7629 16.0583L14.7696 16.3911C14.697 16.4154 14.6196 16.4216 14.5441 16.4091C14.4686 16.3966 14.3973 16.3658 14.3365 16.3194L12.9616 15.2708C12.6375 15.4439 12.2969 15.5843 11.9449 15.6899L11.7148 17.4059C11.7046 17.4818 11.6761 17.554 11.6316 17.6162C11.5872 17.6785 11.5282 17.7289 11.4598 17.7631L10.5223 18.2319C10.4572 18.2643 10.3854 18.2812 10.3127 18.2811ZM9.80694 17.0352L10.3127 17.2883L10.8185 17.0352L11.0576 15.2539C11.0702 15.1601 11.111 15.0723 11.1745 15.0021C11.238 14.9319 11.3213 14.8826 11.4133 14.8606C11.8865 14.7481 12.3388 14.5615 12.7535 14.3075C12.8342 14.258 12.9279 14.234 13.0225 14.2388C13.117 14.2435 13.2079 14.2768 13.2832 14.3342L14.7077 15.4217L15.244 15.2422L15.4235 14.7055L14.3369 13.2809C14.2796 13.2057 14.2464 13.1149 14.2416 13.0205C14.2369 12.926 14.2608 12.8323 14.3102 12.7517C14.5642 12.3371 14.7507 11.8847 14.8629 11.4116C14.8849 11.3194 14.9343 11.2361 15.0046 11.1726C15.0748 11.1091 15.1627 11.0684 15.2566 11.0558L17.0379 10.8167L17.2887 10.3124L17.036 9.80657L15.2548 9.56751C15.1609 9.55494 15.073 9.51421 15.0027 9.4507C14.9324 9.38719 14.883 9.30387 14.861 9.21173C14.7489 8.73857 14.5623 8.28622 14.3083 7.87157C14.2589 7.79096 14.235 7.69727 14.2397 7.60282C14.2445 7.50837 14.2777 7.41757 14.3351 7.34235L15.4221 5.91782L15.244 5.3811L14.7077 5.20298L13.2832 6.28954C13.2079 6.34696 13.117 6.38024 13.0225 6.38501C12.9279 6.38978 12.8342 6.36581 12.7535 6.31626C12.3388 6.06231 11.8865 5.87562 11.4133 5.76313C11.3213 5.74117 11.238 5.69184 11.1745 5.62164C11.111 5.55145 11.0702 5.46366 11.0576 5.36985L10.8185 3.59095L10.3127 3.33641L9.80694 3.58954L9.56787 5.36845C9.55522 5.46226 9.51445 5.55004 9.45095 5.62024C9.38744 5.69044 9.30417 5.73976 9.21209 5.76173C8.73898 5.87421 8.28666 6.0609 7.87194 6.31485C7.79128 6.36441 7.6975 6.38838 7.60295 6.38361C7.5084 6.37884 7.41752 6.34555 7.34225 6.28813L5.91772 5.20298L5.38147 5.38251L5.20334 5.91782L6.28991 7.34235C6.34723 7.41757 6.38045 7.50837 6.38522 7.60282C6.38999 7.69727 6.36608 7.79096 6.31663 7.87157C6.06264 8.28622 5.8761 8.73857 5.76397 9.21173C5.74198 9.30387 5.69258 9.38719 5.62229 9.4507C5.552 9.51421 5.46411 9.55494 5.37022 9.56751L3.58897 9.80657L3.33678 10.3124L3.58944 10.8181L5.37069 11.0572C5.46458 11.0698 5.55247 11.1105 5.62276 11.174C5.69305 11.2375 5.74244 11.3208 5.76444 11.413C5.87657 11.8861 6.06311 12.3385 6.31709 12.7531C6.36655 12.8337 6.39046 12.9274 6.38569 13.0219C6.38092 13.1163 6.34769 13.2071 6.29038 13.2824L5.20334 14.7069L5.38287 15.2436L5.91913 15.4231L7.34366 14.3366C7.41892 14.2792 7.50981 14.2459 7.60436 14.2411C7.69891 14.2363 7.79268 14.2603 7.87334 14.3099C8.28807 14.5638 8.74039 14.7505 9.2135 14.863C9.30558 14.8849 9.38885 14.9343 9.45235 15.0045C9.51586 15.0747 9.55662 15.1624 9.56928 15.2563L9.80694 17.0352Z" fill="white" stroke="white" stroke-width="0.3"/>
<path d="M10.3125 13.5937C9.66353 13.5937 9.02914 13.4013 8.48954 13.0408C7.94994 12.6802 7.52937 12.1677 7.28102 11.5682C7.03267 10.9686 6.96769 10.3089 7.0943 9.67236C7.22091 9.03586 7.53342 8.4512 7.99231 7.99231C8.4512 7.53342 9.03586 7.22091 9.67236 7.0943C10.3089 6.96769 10.9686 7.03267 11.5682 7.28102C12.1678 7.52937 12.6802 7.94994 13.0408 8.48954C13.4013 9.02913 13.5938 9.66353 13.5938 10.3125C13.5928 11.1824 13.2467 12.0165 12.6316 12.6316C12.0165 13.2467 11.1824 13.5928 10.3125 13.5937ZM10.3125 7.96875C9.84895 7.96875 9.39581 8.10621 9.01038 8.36374C8.62496 8.62128 8.32455 8.98732 8.14716 9.41559C7.96977 9.84385 7.92335 10.3151 8.01379 10.7697C8.10422 11.2244 8.32744 11.642 8.65522 11.9698C8.983 12.2976 9.40062 12.5208 9.85526 12.6112C10.3099 12.7016 10.7812 12.6552 11.2094 12.4778C11.6377 12.3004 12.0037 12 12.2613 11.6146C12.5188 11.2292 12.6563 10.776 12.6563 10.3125C12.6555 9.69113 12.4083 9.09542 11.969 8.65604C11.5296 8.21666 10.9339 7.9695 10.3125 7.96875Z" fill="white" stroke="white" stroke-width="0.3"/>
<path d="M26.25 13.5938H25.3125V12.6562H25.718C25.6279 12.0057 25.7738 11.3444 26.1291 10.792C26.2826 10.6027 26.4873 10.4615 26.7188 10.3852V10.3125H27.6562V10.7812C27.6562 10.9056 27.6069 11.0248 27.519 11.1127C27.431 11.2006 27.3118 11.25 27.1875 11.25C27.1251 11.2435 27.062 11.2526 27.004 11.2764C26.9459 11.3002 26.8946 11.338 26.8547 11.3864C26.5688 11.7342 26.6334 12.6464 26.7094 13.0336C26.7229 13.1015 26.7212 13.1716 26.7043 13.2388C26.6875 13.306 26.656 13.3687 26.6121 13.4222C26.5681 13.4758 26.5129 13.519 26.4503 13.5486C26.3877 13.5783 26.3193 13.5937 26.25 13.5938Z" fill="white" stroke="white" stroke-width="0.3"/>
<path d="M27.6562 10.3125H26.7188V10.2398C26.4873 10.1635 26.2826 10.0223 26.1291 9.83297C25.7738 9.28061 25.6279 8.61931 25.718 7.96875H25.3125V7.03125H26.25C26.3195 7.03124 26.3882 7.04668 26.451 7.07648C26.5138 7.10627 26.5692 7.14966 26.6132 7.2035C26.6571 7.25734 26.6886 7.32029 26.7052 7.38779C26.7219 7.45528 26.7233 7.52564 26.7094 7.59375C26.6334 7.98094 26.5688 8.89313 26.8547 9.24094C26.8949 9.28892 26.9463 9.32626 27.0043 9.34964C27.0624 9.37303 27.1253 9.38174 27.1875 9.375C27.3118 9.375 27.431 9.42439 27.519 9.51229C27.6069 9.6002 27.6562 9.71943 27.6562 9.84375V10.3125Z" fill="white" stroke="white" stroke-width="0.3"/>
<path d="M21.5625 9.84375H22.5V10.7812H21.5625V9.84375Z" fill="white" stroke="white" stroke-width="0.3"/>
<path d="M23.9062 9.84375H24.8438V10.7812H23.9062V9.84375Z" fill="white" stroke="white" stroke-width="0.3"/>
<path d="M19.2188 9.84375H20.1562V10.7812H19.2188V9.84375Z" fill="white" stroke="white" stroke-width="0.3"/>
</g>
<defs>
<clipPath id="clip0">
<rect width="30" height="30" fill="white"/>
</clipPath>
</defs>
</svg>