<svg width="30" height="32" viewBox="0 0 30 32" fill="none" xmlns="http://www.w3.org/2000/svg">
<g clip-path="url(#clip0)">
<path d="M29.8778 13.5387L24.8566 6.83482C24.6708 6.58688 24.3318 6.52571 24.0747 6.69368L20.8329 8.81272H16.6047C16.55 8.81272 16.4956 8.82471 16.4429 8.84047L13.1646 9.81037L9.76299 8.85412L6.45771 6.69368C6.20502 6.52854 5.87223 6.58452 5.68432 6.824L0.130497 13.8944C-0.0690884 14.1484 -0.0361294 14.5194 0.204654 14.7323L3.11557 17.307L5.72712 20.924C4.96334 21.7603 4.97821 23.0793 5.77289 23.8963C6.12514 24.2581 6.57306 24.4625 7.0338 24.51C7.01778 24.6173 7.00954 24.7262 7.00954 24.8368C7.00954 25.4075 7.22583 25.944 7.61837 26.3475C8.01113 26.7512 8.53321 26.9735 9.08848 26.9735C9.09603 26.9735 9.10335 26.973 9.11068 26.9728C9.11045 26.9873 9.10976 27.0017 9.10976 27.0163C9.10976 27.587 9.32605 28.1235 9.71859 28.5272C10.1113 28.9307 10.6334 29.153 11.1887 29.153C11.2983 29.153 11.4068 29.1438 11.5133 29.1268C11.5583 29.602 11.7577 30.0645 12.1111 30.4277C12.5162 30.8443 13.0486 31.0525 13.581 31.0525C14.1133 31.0525 14.6457 30.8443 15.0511 30.4277L15.369 30.101L15.5024 30.2115C15.9043 30.6117 16.4262 30.8116 16.9481 30.8116C17.4804 30.8116 18.0128 30.6034 18.4179 30.1868C18.8315 29.7618 19.0341 29.2007 19.0256 28.6425C19.5685 28.651 20.1146 28.443 20.5282 28.0182C20.9414 27.5933 21.1439 27.0327 21.1359 26.4748C21.7015 26.4839 22.238 26.2607 22.6383 25.8492C23.0519 25.4242 23.2544 24.8631 23.246 24.3049C23.7893 24.3134 24.335 24.1054 24.7486 23.6803C25.4544 22.9549 25.5453 21.8335 25.0219 21.0057L26.9287 16.9012L29.7954 14.3658C30.0323 14.1562 30.0685 13.793 29.8778 13.5387ZM6.26957 8.00373L8.64628 9.55701L3.47606 16.0308L1.40422 14.1981L6.26957 8.00373ZM6.60488 21.7295L7.32219 20.9923C7.34394 20.9699 7.36683 20.9487 7.39017 20.929C7.53048 20.8114 7.70031 20.7413 7.88021 20.7246C7.88524 20.7241 7.89051 20.7241 7.89554 20.7238C7.92118 20.7217 7.94681 20.7203 7.97268 20.7206C8.2185 20.7241 8.44692 20.8273 8.61629 21.0111C8.94863 21.3722 8.93078 21.9621 8.57647 22.3263L7.88089 23.0412C7.5291 23.4028 6.95667 23.4028 6.60488 23.0412C6.25309 22.6794 6.25309 22.0911 6.60488 21.7295ZM8.45035 25.4924C8.27984 25.3174 8.18599 25.0845 8.18599 24.8368C8.18599 24.5891 8.27984 24.3562 8.45035 24.1809L9.84127 22.7514C10.1077 22.4776 10.5265 22.4025 10.8671 22.5693C11.2182 22.7413 11.4157 23.1329 11.3642 23.527C11.3368 23.7373 11.2416 23.9353 11.0955 24.0857L9.7266 25.4924C9.55608 25.6676 9.32949 25.7641 9.08848 25.7641C8.84746 25.7641 8.62087 25.6676 8.45035 25.4924ZM10.5506 27.6719C10.3801 27.4969 10.2862 27.264 10.2862 27.0163C10.2862 26.7686 10.3801 26.5357 10.5506 26.3604L11.9413 24.9309C12.2262 24.6382 12.6833 24.5752 13.0321 24.7838C13.3507 24.9744 13.5176 25.3484 13.4629 25.721C13.4329 25.9259 13.3381 26.1186 13.1955 26.2652L11.8268 27.6719C11.6563 27.8471 11.4297 27.9436 11.1887 27.9436C10.9477 27.9436 10.7211 27.8471 10.5506 27.6719ZM12.9428 29.5726C12.5911 29.2111 12.5911 28.6227 12.9428 28.2612L13.6602 27.5239C13.6819 27.5016 13.7046 27.4806 13.7279 27.4609C13.7286 27.4604 13.7291 27.4599 13.7295 27.4595C13.8462 27.3621 13.9833 27.2969 14.1296 27.2684C14.133 27.268 14.1365 27.2675 14.1399 27.267C14.1651 27.2623 14.1907 27.2586 14.2163 27.2562C14.2266 27.2553 14.2369 27.2553 14.2475 27.2546C14.2685 27.2534 14.2894 27.252 14.3106 27.2522C14.5562 27.2557 14.7849 27.3588 14.9543 27.5427C14.9751 27.5653 14.9945 27.5888 15.0124 27.6131C15.2829 27.9765 15.2465 28.5164 14.9108 28.8617L14.2189 29.5729C13.8671 29.9344 13.2946 29.9342 12.9428 29.5726ZM23.9166 22.8252C23.5648 23.187 22.9924 23.1868 22.6406 22.8252C22.6278 22.8121 22.6143 22.7998 22.6005 22.7883L18.818 18.8598C18.5894 18.6224 18.217 18.6206 17.986 18.8556C17.7551 19.0903 17.7533 19.4731 17.9817 19.7104L21.8052 23.681C21.8056 23.6815 21.8061 23.682 21.8065 23.6825C22.1583 24.044 22.1583 24.6326 21.8065 24.9942C21.636 25.1694 21.4094 25.2659 21.1684 25.2659C20.9272 25.2659 20.7006 25.1694 20.5303 24.9942L17.9725 22.3381C17.7441 22.1007 17.3717 22.0988 17.1408 22.3336C16.9098 22.5686 16.908 22.9513 17.1364 23.1887L19.655 25.8041C19.6679 25.8205 19.6816 25.8363 19.6962 25.8514C20.048 26.2129 20.048 26.8015 19.6962 27.1631C19.3442 27.5246 18.7716 27.5244 18.4198 27.1628L17.0238 25.713C16.7952 25.4757 16.4228 25.4736 16.1918 25.7086C15.9609 25.9433 15.9591 26.3261 16.1875 26.5634L17.5445 27.9725C17.5573 27.989 17.5711 28.005 17.5859 28.02C17.9377 28.3816 17.9377 28.9702 17.5859 29.3317C17.2342 29.6935 16.6617 29.6933 16.3099 29.3317C16.2694 29.2901 16.2218 29.2581 16.1765 29.2224C16.138 29.1922 16.128 29.1713 16.1472 29.1233C16.1666 29.0746 16.1957 29.0306 16.2152 28.9817C16.2367 28.9271 16.2541 28.8709 16.271 28.8144C16.3612 28.5157 16.3877 28.1944 16.3472 27.8843C16.2694 27.2894 15.951 26.7526 15.4686 26.4129C15.2079 26.2296 14.9062 26.1094 14.5935 26.0643C14.7451 25.3774 14.5631 24.6326 14.0898 24.1186C13.7002 23.6956 13.174 23.4583 12.608 23.4503C12.5874 23.45 12.5668 23.45 12.546 23.4503C12.5586 22.8951 12.3622 22.3435 11.9898 21.9391C11.6 21.5161 11.0738 21.2788 10.508 21.2708C10.3398 21.2684 10.1699 21.2868 10.0061 21.3256C9.93603 20.8248 9.69044 20.3613 9.3185 20.0299C8.94886 19.701 8.484 19.5185 7.98893 19.5114C7.46776 19.5037 6.95575 19.7013 6.56872 20.0605L4.29477 16.9113L9.73484 10.0997L11.4686 10.5871L9.20429 14.6937C8.93055 15.1903 8.86142 15.7666 9.00951 16.3166C9.1576 16.8669 9.50504 17.3246 9.98821 17.606C10.0184 17.6236 10.0489 17.6403 10.0798 17.6563C10.0821 17.6575 10.0843 17.6587 10.0869 17.6598C10.1681 17.7015 10.2517 17.7372 10.3363 17.7674C10.7307 17.9078 11.1567 17.9231 11.5675 17.8064C12.1026 17.6542 12.548 17.2969 12.8218 16.8005L14.2932 14.1317L16.9206 14.3232L23.9168 21.5135C24.2684 21.8753 24.2684 22.4637 23.9166 22.8252ZM24.1603 20.0539L17.5972 13.3086C17.5848 13.2957 17.5718 13.2834 17.5583 13.2719C17.4637 13.191 17.3465 13.1421 17.2229 13.1331L14.006 12.8986C13.7835 12.8828 13.5624 13.0045 13.4526 13.2037L11.7982 16.2044C11.6794 16.4199 11.486 16.5749 11.2537 16.641C11.0216 16.7071 10.7781 16.6761 10.5682 16.554C10.3585 16.4319 10.2077 16.2331 10.1434 15.9943C10.0791 15.7556 10.1091 15.5053 10.2281 15.2898L12.4366 11.2839L13.3315 11.0193C13.3374 11.0174 13.3432 11.015 13.3491 11.0131L16.6892 10.0218H20.7248L25.763 16.6043L24.1603 20.0539ZM26.5336 15.6554L21.8745 9.56478L24.2524 8.01055L28.6059 13.8226L26.5336 15.6554Z" fill="#EA345D"/>
<path d="M18.1747 7.67761C18.3253 7.67761 18.4759 7.61857 18.5908 7.50048L22.609 3.37061C22.8388 3.13443 22.8388 2.7517 22.609 2.51551C22.3792 2.27933 22.0068 2.27933 21.777 2.51551L17.7588 6.64538C17.529 6.88156 17.529 7.2643 17.7588 7.50048C17.8737 7.61857 18.0243 7.67761 18.1747 7.67761Z" fill="#EA345D"/>
<path d="M11.4093 7.50048C11.5242 7.61857 11.6748 7.67761 11.8254 7.67761C11.9758 7.67761 12.1264 7.61857 12.2413 7.50048C12.4711 7.2643 12.4711 6.88156 12.2413 6.64538L8.22308 2.51551C7.99329 2.27933 7.62089 2.27933 7.3911 2.51551C7.1613 2.7517 7.1613 3.13443 7.3911 3.37061L11.4093 7.50048Z" fill="#EA345D"/>
<path d="M15.0003 7.67771C15.3251 7.67771 15.5885 7.40695 15.5885 7.07315V3.65535C15.5885 3.32154 15.3251 3.05078 15.0003 3.05078C14.6755 3.05078 14.4121 3.32154 14.4121 3.65535V7.07315C14.4121 7.40695 14.6755 7.67771 15.0003 7.67771Z" fill="#EA345D"/>
<path d="M14.4574 1.46404C14.5508 1.69669 14.7836 1.84936 15.0292 1.83619C15.2718 1.82325 15.4849 1.65482 15.5599 1.41746C15.6352 1.17822 15.5533 0.905578 15.3583 0.753143C15.1594 0.597414 14.882 0.588711 14.6739 0.73009C14.4418 0.8877 14.3519 1.20151 14.4574 1.46404Z" fill="#EA345D"/>
</g>
<defs>
<clipPath id="clip0">
<rect y="0.388916" width="30" height="30.8333" fill="white"/>
</clipPath>
</defs>
</svg>