<svg width="30" height="34" viewBox="0 0 30 34" fill="none" xmlns="http://www.w3.org/2000/svg">
<path d="M11.25 9.37506C11.25 8.35233 10.3987 7.5 9.37503 7.5C8.35141 7.5 7.5 8.35233 7.5 9.37506C7.54429 10.4416 8.35141 11.25 9.37503 11.25C10.3987 11.25 11.25 10.3978 11.25 9.37506ZM10.2264 9.41881C10.2264 9.88635 9.84255 10.2711 9.37503 10.2711C8.90751 10.2711 8.5236 9.88635 8.5236 9.41881C8.56789 8.95128 8.90751 8.56654 9.37503 8.56654C9.84255 8.56654 10.2264 8.95128 10.2264 9.41881Z" fill="white" stroke="white" stroke-width="0.4"/>
<path d="M11.25 5C11.25 4.32484 10.4368 3.75 9.37789 3.75C8.35996 3.75 7.5 4.29012 7.5 5C7.55265 5.70988 8.35996 6.25 9.37789 6.25C10.39 6.25 11.25 5.70988 11.25 5ZM10.0331 5.03476C10.0331 5.2701 9.7289 5.47067 9.37789 5.47067C9.02103 5.47067 8.71682 5.2701 8.71682 5.03476C8.76947 4.79556 9.02103 4.59489 9.37789 4.59489C9.7289 4.59489 10.0331 4.79556 10.0331 5.03476Z" fill="white" stroke="white" stroke-width="0.4"/>
<path d="M4.99998 10C5.54628 10 6.02182 9.48359 6.19082 8.7148C6.3952 7.74061 6.05722 6.66076 5.37729 6.3556C5.23973 6.30278 5.10216 6.25 4.99998 6.25C4.4576 6.25 3.97813 6.76641 3.80913 7.5352C3.70694 7.99882 3.74231 8.50937 3.87594 8.97299C4.04887 9.38379 4.28467 9.74182 4.6266 9.89441C4.76416 9.94722 4.89779 10 4.99998 10ZM4.99998 7.4296C5.03535 7.4296 5.10218 7.42965 5.13755 7.48247C5.37729 7.58224 5.47946 7.94604 5.40871 8.30403C5.3419 8.56225 5.17291 8.76767 4.99998 8.76767C4.96853 8.76767 4.8978 8.76762 4.86636 8.7148C4.62662 8.60917 4.52443 8.20429 4.59124 7.89325C4.66198 7.63503 4.83098 7.4296 4.99998 7.4296Z" fill="white" stroke="white" stroke-width="0.4"/>
<path d="M5.50658 13.5114C5.70868 13.6796 5.97685 13.75 6.24503 13.75C6.64925 13.75 7.02241 13.5427 7.25561 13.2375C7.45771 12.9637 7.52378 12.6193 7.49269 12.3103C7.42273 11.9699 7.25558 11.6961 6.9874 11.4887C6.78529 11.3205 6.5171 11.25 6.24503 11.25C5.84082 11.25 5.47159 11.4222 5.2345 11.7626C4.83029 12.3103 4.96633 13.1006 5.50658 13.5114ZM6.24503 12.0716C6.34609 12.0716 6.41609 12.1068 6.48216 12.142C6.58321 12.2086 6.64926 12.3103 6.64926 12.4159C6.68424 12.5176 6.64924 12.6546 6.58317 12.7211C6.5171 12.8267 6.38107 12.8932 6.24503 12.8932C6.14398 12.8932 6.07791 12.858 6.01184 12.8267C5.80973 12.7211 5.77475 12.4472 5.91078 12.2438C5.97686 12.142 6.11288 12.0716 6.24503 12.0716Z" fill="white" stroke="white" stroke-width="0.4"/>
<path d="M11.2452 15C11.516 15 11.7515 14.8944 11.991 14.6421C12.5366 14.0259 12.6701 12.8404 12.2618 12.0188C12.0263 11.5611 11.6534 11.25 11.2452 11.25C10.9704 11.25 10.7349 11.3557 10.4954 11.6081C9.94984 12.1773 9.84775 13.3569 10.2246 14.2313C10.4601 14.6891 10.837 15 11.2452 15ZM11.2452 12.4825C11.3786 12.4825 11.516 12.5881 11.5828 12.7407C11.7201 13.0458 11.6848 13.4567 11.4807 13.6621C11.414 13.7677 11.3119 13.7677 11.2452 13.7677C11.1078 13.7677 10.9704 13.6621 10.9037 13.5095C10.7663 13.2043 10.8016 12.7935 11.0058 12.5881C11.0725 12.4824 11.1745 12.4825 11.2452 12.4825Z" fill="white" stroke="white" stroke-width="0.4"/>
<path d="M13.7327 9.89441C14.1925 9.74182 14.6052 9.38379 14.8056 8.97299C15.0119 8.50937 15.0649 7.99882 14.9117 7.5352C14.6523 6.76641 13.9391 6.25 13.1197 6.25C12.9193 6.25 12.7129 6.30278 12.5596 6.3556C11.5929 6.66076 11.027 7.74061 11.3335 8.7148C11.6401 9.48359 12.3533 10 13.1727 10C13.379 10 13.5794 9.94722 13.7327 9.89441ZM13.1727 7.48247C13.4792 7.48247 13.6856 7.68775 13.7858 7.94598C13.8389 8.09856 13.8388 8.30403 13.7327 8.45662C13.6325 8.61507 13.5323 8.71485 13.379 8.76767C13.326 8.76767 13.2258 8.8204 13.1727 8.8204C12.8662 8.8204 12.6598 8.61512 12.5596 8.35689C12.4594 7.99891 12.6599 7.63497 12.9664 7.5352C13.0195 7.5352 13.1197 7.48247 13.1727 7.48247Z" fill="white" stroke="white" stroke-width="0.4"/>
<path d="M26.2952 19.8491C26.2952 19.8059 26.2581 19.7626 26.2581 19.7193L15.1002 4.23604C15.0585 4.19757 15.0168 4.15429 14.9797 4.11102C13.534 2.34631 11.4442 1.25 9.07635 1.25C4.74383 1.25 1.25 4.90924 1.25 9.41477C1.25 10.338 1.41219 11.2661 1.69021 12.1076L5.06354 26.9561C5.46667 29.3988 7.51013 31.25 9.91966 31.25C10.2811 31.25 10.6426 31.2067 11.004 31.125L22.2407 29.442C22.4446 29.442 22.6438 29.3988 22.8431 29.3555L23.047 29.3123C23.1258 29.3123 23.1675 29.2737 23.2045 29.2305C25.6928 28.6006 27.5 26.2829 27.5 23.5084C27.5 22.1188 27.0598 20.8589 26.2952 19.8491ZM9.96141 20.8975C7.9133 20.8975 6.18491 22.2053 5.42498 24.0565L3.37689 14.9686C4.7809 16.565 6.829 17.5747 9.07635 17.5747C13.3718 17.5747 16.8656 13.9155 16.8656 9.41477C16.8656 8.99163 16.8239 8.61178 16.7822 8.23672L23.6865 17.8296C23.0841 17.618 22.4446 17.493 21.7588 17.493C18.5894 17.493 16.0223 20.1858 16.0223 23.5084C16.0223 25.8646 17.3475 27.9274 19.2705 28.9372L13.4505 29.8171C14.3356 28.8506 14.8963 27.5042 14.8963 26.0761C14.8963 23.215 12.6907 20.8975 9.96141 20.8975ZM15.8601 9.41477C15.8601 13.3673 12.8111 16.565 9.03466 16.565C6.10615 16.565 3.57613 14.5887 2.61695 11.8527L2.49647 11.3911C2.49647 11.3046 2.45477 11.266 2.41307 11.1794C2.29259 10.6313 2.21382 10.0014 2.21382 9.41477C2.21382 5.50068 5.30452 2.25983 9.03466 2.25983C12.8111 2.25983 15.8601 5.4574 15.8601 9.41477ZM6.02739 26.7878C5.98568 26.5811 5.98564 26.3262 5.98564 26.1146C5.98564 23.8017 7.79283 21.9505 9.96141 21.9505C12.1671 21.9505 13.9325 23.845 13.9325 26.1146C13.9325 28.0957 12.6072 29.7354 10.8418 30.197L10.1606 30.2835C10.1606 30.2835 10.1606 30.2835 10.1189 30.2835C10.0402 30.2835 9.99843 30.2835 9.91966 30.2835C7.99204 30.2835 6.38882 28.8073 6.02739 26.831V26.7878ZM22.162 28.4708C22.0415 28.4708 21.8793 28.4708 21.7588 28.4708C19.113 28.4708 16.9861 26.2444 16.9861 23.4651C16.9861 20.6906 19.113 18.4595 21.7588 18.4595C24.4093 18.4595 26.5362 20.6906 26.5362 23.4651C26.5362 25.9078 24.8912 27.9274 22.6856 28.389L22.162 28.4708Z" fill="white" stroke="white" stroke-width="0.4"/>
<path d="M20 23.1251C20 24.1478 20.8514 25 21.875 25C22.8987 25 23.75 24.1478 23.75 23.1251C23.7106 22.0585 22.8987 21.25 21.875 21.25C20.8514 21.25 20 22.1023 20 23.1251ZM21.0236 23.0812C21.0236 22.6136 21.4075 22.2289 21.875 22.2289C22.3426 22.2289 22.7264 22.6136 22.7264 23.0812C22.687 23.5536 22.3426 23.9335 21.875 23.9335C21.4075 23.9335 21.0236 23.5536 21.0236 23.0812Z" fill="white" stroke="white" stroke-width="0.4"/>
<path d="M10 23.75C9.3176 23.75 8.75 24.6023 8.75 25.6251C8.75 26.6478 9.3176 27.5 10 27.5C10.712 27.4562 11.25 26.6478 11.25 25.6251C11.25 24.6023 10.6824 23.75 10 23.75ZM9.46196 25.5812C9.46196 25.1137 9.71786 24.7289 10.0295 24.7289C10.3412 24.7289 10.5971 25.1137 10.5971 25.5812C10.5676 26.0536 10.3412 26.4335 10.0295 26.4335C9.71786 26.4335 9.46196 26.0536 9.46196 25.5812Z" fill="white" stroke="white" stroke-width="0.4"/>
</svg>