<svg width="826" height="350" fill="none" xmlns="http://www.w3.org/2000/svg"><path opacity=".81" d="M67.752 505.36c-3.11-23.373 4.186-45.079 3.224-67.788-1.844-43.674-43.525-73.824-58.039-113.083-18.395-49.71-17.513-105.426 4.827-153.855 10.761-23.342 26.494-45.048 47.968-60.054 33.1-23.126 76.465-28.205 117.264-25.272 60.701 4.37 124.77 28.668 185.791 22.046 33.679-3.659 43.958-37.376 61.359-59.606 19.678-25.149 46.46-44.91 76.081-58.063 54.558-24.222 120.038-26.507 175.8-4.539 59.53 23.45 111.427 80.71 108.011 145.473-1.572 29.965-14.546 59.714-8.548 89.154 7.537 36.943 37.639 70.613 59.45 100.702 24.088 33.238 38.666 72.883 41.536 113.33 3.24 45.851-8.628 92.582-33.421 131.856H88.681c-11.034-18.494-18.106-39.151-20.929-60.301Z" fill="url(#a)"/><defs><linearGradient id="a" x1="827" y1="341.5" x2="122.5" y2="115.5" gradientUnits="userSpaceOnUse"><stop offset=".096" stop-color="#E2E2E2" stop-opacity=".8"/><stop offset=".873" stop-color="#fff" stop-opacity=".51"/></linearGradient></defs></svg>