<svg width="25" height="27" viewBox="0 0 25 27" fill="none" xmlns="http://www.w3.org/2000/svg">
<g clip-path="url(#clip0)">
<path d="M20.8279 4.27881C19.9569 4.27881 19.2518 5.00345 19.2518 5.89861C19.2518 6.14583 19.3099 6.37599 19.4011 6.58912L14.7396 11.3886C14.5322 11.2863 14.3082 11.2352 14.0677 11.2352C13.8272 11.2352 13.6032 11.2948 13.4041 11.3886L11.4217 9.34261C11.513 9.13803 11.571 8.90782 11.571 8.66061C11.571 7.76547 10.866 7.0408 9.99502 7.0408C9.12405 7.0408 8.41899 7.76544 8.41899 8.66061C8.41899 8.90782 8.47707 9.13798 8.56829 9.35111L4.97679 13.0425C4.74452 12.9061 4.47078 12.8208 4.18052 12.8208C3.30957 12.8208 2.60449 13.5455 2.60449 14.4407C2.60449 15.3358 3.30955 16.0605 4.18052 16.0605C5.05146 16.0605 5.75654 15.3358 5.75654 14.4407C5.75654 14.2531 5.72333 14.0656 5.66533 13.9036L9.3315 10.1354C9.53055 10.2292 9.75454 10.2889 9.99507 10.2889C10.2356 10.2889 10.4595 10.2292 10.6669 10.1354L12.6327 12.1644C12.5415 12.369 12.4834 12.5992 12.4834 12.8464C12.4834 13.7415 13.1884 14.4662 14.0594 14.4662C14.9304 14.4662 15.6354 13.7416 15.6354 12.8464C15.6354 12.6077 15.5857 12.3775 15.4945 12.1729L20.1643 7.36474C20.3634 7.45849 20.5873 7.51818 20.8279 7.51818C21.6988 7.51818 22.4039 6.79354 22.4039 5.89837C22.4039 5.00345 21.6988 4.27881 20.8279 4.27881ZM4.18059 14.9521C3.90685 14.9521 3.68293 14.722 3.68293 14.4407C3.68293 14.1593 3.90687 13.9292 4.18059 13.9292C4.45431 13.9292 4.67825 14.1593 4.67825 14.4407C4.67825 14.722 4.45429 14.9521 4.18059 14.9521ZM9.99507 9.17217C9.72132 9.17217 9.49741 8.94201 9.49741 8.66068C9.49741 8.37933 9.72135 8.1492 9.99507 8.1492C10.2688 8.1492 10.4927 8.37936 10.4927 8.66068C10.4928 8.94201 10.2688 9.17217 9.99507 9.17217ZM14.0594 13.3495C13.7857 13.3495 13.5618 13.1193 13.5618 12.838C13.5618 12.5567 13.7857 12.3265 14.0594 12.3265C14.3332 12.3265 14.5571 12.5567 14.5571 12.838C14.5571 13.1193 14.3332 13.3495 14.0594 13.3495ZM20.8195 6.40154C20.5458 6.40154 20.3219 6.17138 20.3219 5.89006C20.3219 5.60873 20.5458 5.37857 20.8195 5.37857C21.0933 5.37857 21.3172 5.60873 21.3172 5.89006C21.3172 6.17133 21.0933 6.40154 20.8195 6.40154Z" fill="#EA345D"/>
<path d="M25.0009 22.4798V0.527832H0.000976562V22.4798H7.79795V25.114H5.74083V26.2223H19.2611V25.114H17.2041V22.4798H25.0009ZM1.07929 1.6361H23.9227V18.1662H1.07929V1.6361ZM16.1257 25.114H16.1257H8.87621V22.4798H16.1257V25.114ZM1.07929 21.3715V19.2744H23.9227V21.3715H1.07929Z" fill="#EA345D"/>
</g>
<defs>
<clipPath id="clip0">
<rect y="0.527832" width="25" height="25.6944" fill="white"/>
</clipPath>
</defs>
</svg>