<svg width="578" height="493" fill="none" xmlns="http://www.w3.org/2000/svg"><path opacity=".81" d="M59.85 473.65c-2.75-20.679 3.697-39.883 2.847-59.974-1.63-38.64-38.448-65.315-51.27-100.049-16.248-43.98-15.469-93.273 4.265-136.12 9.506-20.652 23.403-39.855 42.372-53.131 29.24-20.461 67.546-24.954 103.586-22.359 53.62 3.865 110.216 25.363 164.119 19.504 29.75-3.237 38.831-33.067 54.201-52.735 17.383-22.25 41.041-39.733 67.206-51.37C495.371-4.014 553.213-6.035 602.47 13.4c52.586 20.748 98.429 71.407 95.411 128.704-1.388 26.511-12.849 52.831-7.55 78.878 6.658 32.685 33.249 62.474 52.515 89.094 21.278 29.407 34.156 64.482 36.691 100.267 2.862 40.566-7.621 81.91-29.523 116.657H78.336c-9.746-16.363-15.993-34.638-18.487-53.35Z" fill="url(#a)"/><defs><linearGradient id="a" x1="730.532" y1="328.678" x2="108.03" y2="129.293" gradientUnits="userSpaceOnUse"><stop offset=".096" stop-color="#E2E2E2" stop-opacity=".8"/><stop offset=".873" stop-color="#fff" stop-opacity=".51"/></linearGradient></defs></svg>