<svg width="32" height="32" viewBox="0 0 32 32" fill="none" xmlns="http://www.w3.org/2000/svg">
<g clip-path="url(#clip0)">
<path d="M14.9132 6.59863C14.9115 6.59863 14.9096 6.59863 14.9078 6.59863H14.8915C14.8897 6.59863 14.8879 6.59863 14.8861 6.59863C12.3823 6.60415 10.0353 7.55882 8.27512 9.28828C6.50008 11.0324 5.52246 13.371 5.52246 15.8732C5.52246 18.6781 6.72998 21.2662 8.83527 22.9739C9.16019 23.2376 9.70527 24.0776 9.70527 26.7418V31.0288C9.70527 31.355 9.96983 31.6195 10.296 31.6195H19.5028C19.829 31.6195 20.0936 31.355 20.0936 31.0288V26.7418C20.0936 26.7371 20.093 26.7326 20.0929 26.728C20.093 26.7233 20.0936 26.7188 20.0936 26.7141C20.0936 24.0256 20.6387 23.1821 20.964 22.9185C23.1001 21.185 24.2766 18.6829 24.2766 15.8731C24.2766 13.3708 23.2991 11.0323 21.5242 9.28818C19.7641 7.55882 17.4171 6.60415 14.9132 6.59863ZM18.9122 30.438H10.887V27.3326H16.4772C16.5033 27.3361 16.5296 27.3386 16.5566 27.3386C16.5837 27.3386 16.61 27.3362 16.6361 27.3326H18.9122V30.438ZM13.7447 17.9045H16.0663C16.0109 20.1378 15.9731 23.9396 15.9668 26.151H13.8435C13.8372 24.1034 13.801 20.1989 13.7447 17.9045ZM20.2199 22.001C19.4094 22.658 18.9835 24.0199 18.9213 26.151H17.1483C17.1548 23.7269 17.1978 20.0046 17.248 17.9045H18.5113C19.57 17.9045 20.4645 16.9668 20.4645 15.8569C20.4645 14.7723 19.57 13.8562 18.5113 13.8562C17.54 13.8562 16.4075 14.4643 16.1419 16.1714C16.1288 16.2558 16.1162 16.4475 16.1041 16.7229H13.7075C13.695 16.4361 13.6819 16.2362 13.6682 16.1477C13.4933 15.0172 12.7792 13.8091 11.2993 13.8091C10.2408 13.8091 9.34657 14.7468 9.34657 15.8569C9.34657 16.9668 10.2408 17.9045 11.2993 17.9045H12.5628C12.613 20.0149 12.6558 23.7328 12.6622 26.151H10.8769C10.8112 24.0544 10.3859 22.7104 9.57983 22.0564C7.7523 20.574 6.70409 18.3204 6.70409 15.8732C6.70409 13.6906 7.55607 11.6512 9.10328 10.1311C10.6443 8.61698 12.7026 7.78223 14.8997 7.78016C17.0969 7.78223 19.1551 8.61698 20.696 10.1311C22.2431 11.6512 23.0951 13.6905 23.0951 15.8732C23.0952 18.3201 22.074 20.4962 20.2199 22.001ZM17.2845 16.7229C17.2927 16.5357 17.3011 16.4083 17.3094 16.3524C17.4874 15.2084 18.1387 15.0376 18.5112 15.0376C18.9223 15.0376 19.2828 15.4204 19.2828 15.8568C19.2828 16.3101 18.9151 16.7228 18.5112 16.7228H17.2845V16.7229ZM12.5266 16.7229H11.2992C10.8956 16.7229 10.528 16.3102 10.528 15.8569C10.528 15.4036 10.8956 14.9906 11.2992 14.9906C12.1643 14.9906 12.4232 15.8287 12.5004 16.3285C12.509 16.3867 12.5178 16.5227 12.5266 16.7229Z" fill="white"/>
<path d="M19.0838 5.91379C19.1596 5.94628 19.2386 5.96174 19.3162 5.96174C19.5454 5.96174 19.7635 5.82754 19.8595 5.60344L21.8932 0.857932C22.0218 0.558021 21.8829 0.21075 21.583 0.082259C21.283 -0.0466261 20.9357 0.0925974 20.8073 0.392509L18.7735 5.13802C18.645 5.43803 18.7839 5.7853 19.0838 5.91379Z" fill="white"/>
<path d="M9.96878 5.60415C10.0611 5.83514 10.283 5.97565 10.5175 5.97565C10.5905 5.97565 10.6648 5.96196 10.7368 5.93321C11.0396 5.81201 11.187 5.46818 11.0659 5.16522L9.14831 0.371562C9.0272 0.0686969 8.68347 -0.0787972 8.38031 0.0424079C8.07744 0.163613 7.93005 0.507438 8.05116 0.810401L9.96878 5.60415Z" fill="white"/>
<path d="M-0.673185 10.1245L4.07183 12.1594C4.14784 12.1919 4.22671 12.2074 4.30439 12.2074C4.53351 12.2074 4.7516 12.0732 4.8477 11.8493C4.97629 11.5494 4.83746 11.2021 4.53765 11.0734L-0.207466 9.03853C-0.507574 8.91004 -0.854746 9.04877 -0.983336 9.34858C-1.11183 9.64849 -0.972998 9.99586 -0.673185 10.1245Z" fill="white"/>
<path d="M4.09835 19.866L-0.695502 21.7848C-0.998367 21.906 -1.14566 22.2499 -1.02446 22.5527C-0.932004 22.7837 -0.710271 22.9241 -0.475836 22.9241C-0.402778 22.9241 -0.32844 22.9105 -0.256564 22.8816L4.53729 20.9629C4.84015 20.8417 4.98745 20.4978 4.86624 20.1949C4.74514 19.8921 4.40102 19.7448 4.09835 19.866Z" fill="white"/>
<path d="M30.5396 21.8731L25.7929 19.8395C25.4923 19.7108 25.1457 19.8498 25.0171 20.1498C24.8886 20.4498 25.0277 20.797 25.3275 20.9256L30.0741 22.9592C30.1502 22.9917 30.2289 23.0071 30.3065 23.0071C30.5357 23.0071 30.7538 22.8729 30.8499 22.6488C30.9784 22.349 30.8395 22.0016 30.5396 21.8731Z" fill="white"/>
<path d="M25.5476 12.1751C25.6207 12.1751 25.6949 12.1614 25.767 12.1326L30.562 10.2135C30.8649 10.0923 31.0121 9.74837 30.8909 9.4455C30.7698 9.14254 30.426 8.99534 30.123 9.11655L25.3279 11.0356C25.0251 11.1568 24.8778 11.5008 24.999 11.8036C25.0914 12.0346 25.3132 12.1751 25.5476 12.1751Z" fill="white"/>
</g>
<defs>
<clipPath id="clip0">
<rect width="32" height="32" fill="white"/>
</clipPath>
</defs>
</svg>