<svg width="41" height="41" viewBox="0 0 41 41" fill="none" xmlns="http://www.w3.org/2000/svg">
<g clip-path="url(#clip0)">
<path d="M28.4865 31.1416L30.6077 24.4886C30.9397 23.2562 30.1627 21.8978 28.9094 21.562C28.5047 21.4536 28.095 21.4564 27.7134 21.5554C27.8634 20.4152 27.1011 19.2474 25.952 18.9395C25.5474 18.8311 25.1376 18.8339 24.7558 18.9301C24.9071 17.792 24.1409 16.6251 22.9946 16.317C22.5968 16.2104 22.1948 16.2116 21.8211 16.3018L22.6318 13.2761C22.9716 12.0047 22.2175 10.6936 20.9329 10.3485C19.6619 10.007 18.3499 10.7645 18.0091 12.0365L14.8943 23.6609L11.6857 19.6882C10.8342 18.6037 9.29368 18.3053 8.09973 18.9947C7.2045 19.5115 6.8966 20.6606 7.41346 21.5558L13.3063 31.7626C14.2238 33.3517 15.7061 34.4891 17.4831 34.9671L20.1683 35.6857C21.9395 36.1612 23.7902 35.9169 25.3782 35C26.8613 34.1438 27.9651 32.7733 28.4865 31.1416ZM20.4901 34.4781L17.8049 33.7595C16.3529 33.3695 15.1395 32.4377 14.3889 31.1376L8.49599 20.9308C8.32411 20.6331 8.42598 20.2496 8.72475 20.0771C9.38292 19.6971 10.2328 19.8617 10.708 20.4649L14.6953 25.4011C14.8429 25.5843 15.0803 25.668 15.311 25.62C15.5399 25.5716 15.7238 25.3976 15.7846 25.1705L19.2173 12.3594C19.3803 11.7544 20.0049 11.3937 20.6207 11.5578C20.9235 11.6399 21.1655 11.8365 21.3112 12.0887C21.4568 12.341 21.506 12.6488 21.4246 12.9527L20.0813 17.9658C20.077 17.9784 20.074 17.9931 20.0703 18.0068L19.1363 21.4962C19.047 21.8292 19.2452 22.1723 19.5781 22.2615C19.9111 22.3507 20.2542 22.1526 20.3435 21.8197L21.2864 18.3006C21.4612 17.7133 22.0765 17.3667 22.682 17.528C23.2672 17.6867 23.6431 18.3327 23.4857 18.9201L23.0349 20.5992C23.0322 20.6095 23.0288 20.6186 23.0272 20.6283L22.5506 22.4102C22.4614 22.7432 22.6595 23.0864 22.9924 23.1756C23.3254 23.2648 23.6686 23.0667 23.7578 22.7337L24.2398 20.9313C24.4121 20.3396 25.0305 19.9884 25.6394 20.1506C26.224 20.3081 26.6006 20.9553 26.4432 21.5427L25.9612 23.3278C25.9608 23.3295 25.9596 23.3301 25.9603 23.3312L25.9598 23.3329C25.9605 23.3442 25.9603 23.3414 25.9601 23.3385C25.9601 23.3385 25.9591 23.3391 25.9597 23.3401C25.9592 23.3418 25.9592 23.3418 25.9592 23.3418C25.9588 23.3435 25.9588 23.3435 25.9588 23.3435L25.9594 23.3446C25.96 23.3456 25.96 23.3456 25.96 23.3456C25.8846 23.675 26.0825 24.0053 26.4091 24.0909C26.7414 24.1791 27.0835 23.9816 27.1727 23.6486L27.2001 23.5462C27.3742 22.9578 27.99 22.6095 28.5962 22.7719C29.1814 22.9305 29.5489 23.6045 29.4083 24.136L27.2938 30.7606C26.8672 32.0966 25.9651 33.2164 24.7516 33.917C23.4537 34.6665 21.9391 34.8654 20.4901 34.4781Z" fill="white"/>
<path d="M25.9594 23.3378L25.9602 23.3392C25.9601 23.3373 25.96 23.3356 25.96 23.3356C25.9594 23.3378 25.9602 23.3392 25.9594 23.3378Z" fill="white"/>
<path d="M24.8784 15.9425C26.1677 14.1459 26.2914 11.7551 25.1908 9.84885C23.6402 7.1632 20.1929 6.23948 17.5072 7.79004C15.602 8.89001 14.5126 11.0229 14.7303 13.2224C14.7397 13.3137 14.7683 13.3982 14.8114 13.4729C14.9308 13.6797 15.163 13.8068 15.4147 13.7828C15.7581 13.7476 16.0091 13.4425 15.975 13.0984C15.8051 11.3866 16.6513 9.72756 18.1322 8.8726C20.2214 7.6664 22.9021 8.38466 24.1083 10.4739C24.9633 11.9547 24.8666 13.8147 23.8635 15.2122C23.662 15.4931 23.7251 15.8824 24.0067 16.0851C24.2858 16.2861 24.6773 16.2217 24.8784 15.9425Z" fill="white"/>
<path d="M26.0501 18.4095C28.6558 15.8155 29.1926 11.7803 27.3558 8.59893C25.1159 4.71928 20.1369 3.38517 16.2573 5.62509C13.0758 7.4619 11.5231 11.2248 12.4833 14.7752C12.4971 14.8293 12.5186 14.879 12.5449 14.9244C12.6836 15.1647 12.969 15.2915 13.2483 15.2154C13.5817 15.1254 13.7796 14.7831 13.689 14.4486C12.8776 11.4459 14.1901 8.26192 16.8823 6.70761C20.1655 4.81206 24.3784 5.94186 26.2733 9.22392C27.827 11.915 27.3733 15.3291 25.1682 17.5245C24.924 17.7665 24.9165 18.1534 25.1665 18.4088C25.4095 18.6524 25.8049 18.6522 26.0501 18.4095Z" fill="white"/>
</g>
<defs>
<clipPath id="clip0">
<rect x="26" width="30" height="30" transform="rotate(60 26 0)" fill="white"/>
</clipPath>
</defs>
</svg>