<svg width="32" height="35" viewBox="0 0 32 35" fill="none" xmlns="http://www.w3.org/2000/svg">
<g clip-path="url(#clip0)">
<path d="M25.6763 5.17677H16.4939V3.39202C17.1487 3.17462 17.626 2.51367 17.626 1.73396C17.626 0.777851 16.908 0 16.0251 0C15.1423 0 14.4241 0.777851 14.4241 1.73396C14.4241 2.51367 14.9014 3.17462 15.5564 3.39202V5.17677H6.37378C5.51294 5.17677 4.8125 5.96837 4.8125 6.94141V20.9001C4.8125 21.8732 5.51294 22.6648 6.37378 22.6648H7.04297V31.5816C7.04297 33.2828 8.32031 34.6666 9.89038 34.6666H22.5225C24.0928 34.6666 25.3701 33.2828 25.3701 31.5816V22.6645H25.6765C26.5373 22.6645 27.2375 21.8732 27.2375 20.9001V6.94141C27.2375 5.96837 26.5371 5.17677 25.6763 5.17677ZM15.3616 1.73396C15.3616 1.33803 15.6592 1.01562 16.0251 1.01562C16.3909 1.01562 16.6885 1.33803 16.6885 1.73396C16.6885 2.13016 16.3909 2.45257 16.0251 2.45257C15.6592 2.45257 15.3616 2.13016 15.3616 1.73396ZM26.3 20.9001C26.3 21.313 26.0203 21.6492 25.6765 21.6492H18.6843C18.397 21.6492 18.127 21.7703 17.9238 21.9901L16.1228 23.9409C16.0688 23.9991 15.9812 23.9991 15.9275 23.9407L14.1262 21.9904C13.9231 21.7703 13.6531 21.6492 13.3657 21.6492H10.7283C10.4692 21.6492 10.2595 21.8764 10.2595 22.157C10.2595 22.4373 10.4692 22.6648 10.7283 22.6648H13.3657C13.4021 22.6648 13.4377 22.6807 13.4634 22.7084L15.2646 24.659C15.4741 24.8862 15.7495 24.9997 16.0249 24.9997C16.3003 24.9997 16.5757 24.8859 16.7854 24.659L18.5867 22.7084C18.6123 22.6807 18.6479 22.6648 18.6843 22.6648H24.4324V31.5816C24.4324 32.7226 23.5757 33.651 22.5225 33.651H9.89038C8.83716 33.651 7.98022 32.7226 7.98022 31.5816V22.6645H8.87915C9.13794 22.6645 9.3479 22.4373 9.3479 22.1567C9.3479 21.8764 9.13794 21.6489 8.87915 21.6489H6.37353C6.02978 21.6489 5.75 21.313 5.75 20.9001V6.94141C5.75 6.52855 6.02978 6.19239 6.37353 6.19239H16.0244H16.0251H16.0256H25.6765C26.0203 6.19239 26.3 6.52855 26.3 6.94141V20.9001Z" fill="white" stroke="white" stroke-width="0.4"/>
<path d="M9.81494 12.3065C9.81494 13.2919 10.5552 14.0938 11.4653 14.0938C12.3752 14.0938 13.1157 13.2919 13.1157 12.3065C13.1157 11.3207 12.3752 10.5188 11.4653 10.5188C10.5552 10.5188 9.81494 11.3207 9.81494 12.3065ZM12.1782 12.3065C12.1782 12.732 11.8584 13.0782 11.4653 13.0782C11.072 13.0782 10.7524 12.7317 10.7524 12.3065C10.7524 11.8809 11.0723 11.5344 11.4653 11.5344C11.8584 11.5344 12.1782 11.8809 12.1782 12.3065Z" fill="white" stroke="white" stroke-width="0.4"/>
<path d="M20.5852 14.0938C21.4951 14.0938 22.2354 13.2919 22.2354 12.3065C22.2354 11.3207 21.4951 10.5188 20.5852 10.5188C19.675 10.5188 18.9346 11.3207 18.9346 12.3065C18.9346 13.2919 19.675 14.0938 20.5852 14.0938ZM20.5852 11.5344C20.9783 11.5344 21.2979 11.8809 21.2979 12.3065C21.2979 12.732 20.9783 13.0782 20.5852 13.0782C20.1921 13.0782 19.8721 12.7317 19.8721 12.3065C19.8721 11.8809 20.1919 11.5344 20.5852 11.5344Z" fill="white" stroke="white" stroke-width="0.4"/>
<path d="M20.9829 7.94653H20.3379C20.0789 7.94653 19.8691 8.17399 19.8691 8.45434C19.8691 8.73496 20.0789 8.96216 20.3379 8.96216H20.9829C22.6851 8.96216 24.0701 10.4626 24.0701 12.3066C24.0701 14.1503 22.6851 15.6505 20.9829 15.6505H11.0676C9.36548 15.6505 7.98047 14.1503 7.98047 12.3063C7.98047 10.4623 9.36548 8.96216 11.0676 8.96216H18.3169C18.5759 8.96216 18.7856 8.73496 18.7856 8.45434C18.7856 8.17399 18.5759 7.94653 18.3169 7.94653H11.0676C8.84839 7.94653 7.04297 9.9024 7.04297 12.3063C7.04297 14.7105 8.84839 16.6661 11.0676 16.6661H20.9829C23.2021 16.6661 25.0076 14.7102 25.0076 12.3063C25.0076 9.9024 23.2021 7.94653 20.9829 7.94653Z" fill="white" stroke="white" stroke-width="0.4"/>
<path d="M18.0524 18.1212C16.9345 19.332 15.1154 19.332 13.9972 18.1212C13.8144 17.9231 13.5175 17.9231 13.3344 18.1215C13.1515 18.3198 13.1515 18.6414 13.3346 18.8395C14.0763 19.6428 15.0507 20.0445 16.0251 20.0445C16.9992 20.0445 17.9735 19.6428 18.7152 18.8395C18.8983 18.6412 18.8983 18.3198 18.7155 18.1215C18.5324 17.9231 18.2357 17.9231 18.0524 18.1212Z" fill="white" stroke="white" stroke-width="0.4"/>
<path d="M9.98486 27.0223C9.98486 27.3027 10.1948 27.5301 10.4536 27.5301H21.6787C21.9377 27.5301 22.1475 27.3027 22.1475 27.0223C22.1475 26.7417 21.9377 26.5145 21.6787 26.5145H10.4536C10.1948 26.5145 9.98486 26.7417 9.98486 27.0223Z" fill="white" stroke="white" stroke-width="0.4"/>
<path d="M21.6787 28.703H10.4536C10.1948 28.703 9.98486 28.9305 9.98486 29.2108C9.98486 29.4914 10.1948 29.7186 10.4536 29.7186H21.6787C21.9377 29.7186 22.1475 29.4914 22.1475 29.2108C22.1475 28.9305 21.9375 28.703 21.6787 28.703Z" fill="white" stroke="white" stroke-width="0.4"/>
<path d="M19.5669 30.8917H12.5654C12.3066 30.8917 12.0967 31.1189 12.0967 31.3995C12.0967 31.6802 12.3066 31.9073 12.5654 31.9073H19.5669C19.8257 31.9073 20.0356 31.6802 20.0356 31.3995C20.0356 31.1189 19.8257 30.8917 19.5669 30.8917Z" fill="white" stroke="white" stroke-width="0.4"/>
</g>
<defs>
<clipPath id="clip0">
<rect width="32" height="34.6667" fill="white"/>
</clipPath>
</defs>
</svg>