<?xml version="1.0" encoding="UTF-8"?>
<svg id="Layer_1" xmlns="http://www.w3.org/2000/svg" version="1.1" viewBox="0 0 171.18 67.15">
  <!-- Generator: Adobe Illustrator 30.1.0, SVG Export Plug-In . SVG Version: 2.1.1 Build 136)  -->
  <defs>
    <style>
      .st0 {
        fill: #ffffff;
      }

      .st1 {
        fill: #ffffff;
      }
    </style>
  </defs>
  <g>
    <path class="st1" d="M22.95,36.72c.56-1.38.88-2.14,1.19-2.81.88-2.12,1.06-2.82,1.73-4.52.61-1.4,1.28-2.8,1.58-4.26.18-.73.61-1.46,1.09-2.13.18-.3.04-.26.47-.38.79-.24.33-.1,1-.04.55.06.87.24,1.35.36.55.12,1.09.24,1.09.91-.06.43.12.67.37.97.18.18.06.61,0,.85,0,.3-.18.55.06.67.12.06.06.24,0,.37-.3.85-.43,1.83-.97,2.68-.36.61-.61,1.16-.73,1.7-.36,1.46-.97,3.04-1.52,4.5-.61,1.83-1.16,3.59-1.4,5.29-2.92,12.41,5.94.73,8.13-4.38.36-.85.73-1.58,1.09-2.43.55-1.4,1.16-2.86,1.58-4.2.61-1.95,1.28-3.83,1.52-5.72.36-2.31.61-4.5.61-6.69-.06-1.1-.06-2.13-.12-3.1,0-.43-.06-.67-.18-1.03-.18-.24-.49-.49-.91-.36-.67.12-.85-.24-.97-.61-.18-.43-.36-.79-.49-1.22-.06-.12,0-.37.06-.55s.18-.36.3-.61c.24-.12.61-.24.79-.3.79.3,1.58.49,2.37.79.55.12,1.1.3,1.52.73.12.06.24.12.43.18.31.12.43.36.49.73.06.36-.2.55-.02.85.24.36.49.67.91.91.18.06.18.3.24.49.12.43.18.79.61,1.03.36.18.49.67.3,1.22-.06.3,0,.49.18.67.24.3.36.61.36,1.03-.06.43.3.73.18,1.22-.12.24-.06.49-.18.73-.06.24-.12.43,0,.61.06.12.12.24.06.36-.3.43-.06.61-.06.91.12.37.06.79.06,1.22,0,.37,0,.73-.06,1.04,0,.49,0,1.03-.12,1.52-.18.67-.49,1.34-.61,2.01-.06.12-.12.24-.18.43-.49.79-.55,1.58-.91,2.56-.12-.43-.18-.73-.3-1.16-.12.18-.3.3-.3.43-.12,1.34-.23,2.86-.71,4.2,0,.12-.12.3-.18.36-.73.36-.73.97-.85,1.46-.12.49-.24.79-.73,1.22-.36.36-.79.85-.91,1.4-.06.3-.24.61-.36.91-.43.67-.79,1.28-1.16,1.95-.79,1.28-1.52,2.56-2.43,3.83-1.04,1.46-2.25,2.98-3.47,4.44-.73.97-1.76,1.58-2.92,1.46-.18,0-.36,0-.55.06-.55.06-1.16,0-1.58-.18-.91-.43-1.95-.85-2.56-1.64-.3-.3-.49-.73-.61-1.1-1.3-2.39-1.48-5.23-1.74-5.27-.9-.13-1.89,1.52-4.29,4.5-.43.3-.73.67-1.1.91-1.34,1.1-1.53,1.55-3.07,2.42-.18,0-1.71.62-3.77.45-.85-.07-1.52-.06-2.07-.49-.3-.18-.55-.55-.61-.91-.3-1.76.15-4.54.64-6.42.49-1.83,1.09-3.59,1.52-5.29.91-3.16,1.7-6.33,2.8-9.49.55-1.64.73-3.35,1.1-4.99.3-1.4.55-2.74.49-4.02,0-.06,0-.18.06-.3.61-.12,1.22-.24,1.83-.24.55-.06.85.18.91.67,0,.24.06.49.18.67.37.91.24,1.89.06,2.98-.36,1.64-.67,3.29-.97,4.93-.3,1.4-.49,2.86-.73,4.32-.12.73-.12,1.52-.18,2.31,0,.49-1.02,4.2-1.08,4.75-2.27,8.79,1.36,8.13,4.83,1.25.24-.36,2.08-3.49,2.52-4.56ZM40.72,26.09c-.3.73-.49,1.58-.73,2.37-.24.79-.36,1.52-.61,2.31h.24c.97-2.37,1.4-4.69,1.76-7.06-.43.79-.43,1.58-.67,2.37ZM42.06,20.44c.31-.36.18-.61.18-.97,0-.3.06-.67.06-.97s-.06-.61-.06-.91h-.06c-.12,1.03-.24,1.95-.36,2.92.06-.06.18-.06.24-.06ZM45.88,28.23c0-.3.62-.55.62-.91-.3.24-.87.06-.75.91h.12Z"/>
    <path class="st1" d="M55.86,35.7c1.39-1.26,2.94-1.6,4.41-.67.63,1.05.04,3.57-.21,4.66-.25.97-2.39,6.54-2.68,7.46-.29,2.61,4.41-2.84,5.04-3.38.04-.04,1.54-1.21,1.58-1.29.46-.55.66-.79,1.12-1.38.38-.5.65-1.16,1.16-1.58.67-.55.42.17.08.76-.59.76-.67.92-1.13,1.72-.21.34-.71.76-.8,1.22-.13.34-.62,1.02-.83,1.28-.25.34-2.53,3.46-2.74,3.84-.17.21-1.55,1.3-1.68,1.39-1.39,1.3-5.21,1.6-4.71-2.4.25-1.43,3.12-8.08,3.63-9.35.13-.29.21-.55.29-.84.08-.21.33-.34.33-.6.87-1.94-.35-1.46-2.39.57-.13.08-.34.29-.46.55-.13.25-.29.46-.5.67-.5.63-1.87,2.24-2.37,2.88-.29.34-.63.67-.88,1.05-.38.55-2.48,4.07-2.78,4.61-.13.25-.21.46-.25.76-.04.25-.13.46-.21.71-.04.25-.17.55-.21.84-.04.38-.21.84-.5,1.01-.08.08-.13.21-.25.38h-.25c-.13-.13-.34-.04-.55,0-.34.04.08.08-.21.08-.08,0-.13-.13-.25-.17-.13-.21-.34-.38-.5-.59-.34-.29-.55-.8-.59-1.43-1.39-5,1.93-13.15,3.28-17.36.63-1.3,1.22-2.56,1.93-3.82.84-1.6,1.72-3.15,2.73-4.45.63-.88,1.3-1.64,2.06-2.23,1.85-1.43,4.41,1.84,4.78,3.52.25.38.42,1.13.17,1.77-.17.38-.25-.08-.5-.21-.17-.04-.25-.08-.34-.13-.17-.04-.34-.13-.5-.17-.21-.04-.42.04-.63.29-.21.21-.38.42-.59.63-.63.59-1.51,1.68-1.93,2.44-.25.42-.5.8-.84,1.05-.13.13-.17.34-.29.46-.34.63-.71,1.18-1.05,1.72-.29.5-.55.97-.8,1.47-.42.76-.84,1.51-1.22,2.27-.29.71-.67,1.39-.92,2.1-.46,1.13-.81,3.38-.33,3.03.89-.64,2.31-2.06,2.56-2.56.92-.98,2.23-2.1,2.73-2.6Z"/>
    <path class="st1" d="M67.36,36.59l.05-.05c.15-.2.25-.25.4-.35.55-.1,1.8-1,2.3-.7.15.2.65.45.85.65.2.25.25.6.1,1.1-.3.65-.65,1.25-1.05,2.05-.1.3-.2.55-.25.75-.2.45-.4,1.05-.65,1.5-.2.6.7-1.3.6-.8,0,.15-.1.3-.15.4-.4,1-.4.8-.45,1.7,0,.5-.2,3.05-.15,3.5.05.35.25.55.4.75.2.1.45.3.75.4.25.2.5.1.8.05,4.15-1.5,2.65-2.05,5.05-4.6.45-.65,1-1.25,1.25-2.05q0-.05.15-.3c.25.5-.3,1.2.4,1.35-1.05,1.9-1.8,4.65-3.5,5.65-.5.65-3.9,3.65-6.11,2.8-.7.25-1.35-.45-2.1-.75-.5-.2-1-.6-1.45-1.1-.25-.65-.5-1.35-.5-2-.1-.3-.1-.65-.1-.9.15-.6.05-1.75.25-2.15.05-.25.15-.5.15-.8.1-.05,0-.3.35-.35.05,0,.1-.2.15-.25.25-.35.3-.65.55-1,0,0-1.05,1.05-.45.05.4-1,1.3-2.1,1.6-2.8,0-.1.1-.25.1-.25.15-.3.3-.5.2-.85-.05-.2,0-.4.15-.7.1.05.15.1.3.05ZM72.72,31.42c-.12.18-.24.3-.3.54,0,.06,0,.18-.12.3-.18.18-.36.42-.61.73-.12.18-.6.42-.91.48-.12-.06-.3.06-.42.18-.36.24-.61.18-.85.06-.18-.12-.3-.12-.48-.12-.24,0-.42,0-.67-.06.06-.06.12-.18.18-.24,0-.18.12-.36.18-.6.12-.3.24-.48.42-.79,0-.12.18-.24.18-.3,0-.36.3-.67.48-1.03.12-.18.24-.36.36-.54.12-.12.24-.24.36-.24.12-.06.24-.06.3,0,0,.12.12.12.24.06s.18-.12.24-.06c.24.12.54.18.79.24.42.18.73.48.97.91-.18.18-.24.36-.36.48Z"/>
    <path class="st1" d="M90.2,38.8c0,.25-.13.25-.08.46.04.17-.42,1.39-.51,1.56-.25.68-.55,1.35-.8,2.03-.38.76-.76,1.44-1.14,2.16-.17.3-2.15,2.83-2.37,3-.55.38-1.48,1.48-1.99,1.82-.34.21-1.61.68-1.9.72-.55.04-1.14.08-1.65-.04-.89-.13-2.2-1.44-2.62-2.28-.21-.38-.46-.72-.59-1.14-.17-.55-.3-1.44-.34-2.07,0-3.55.42-4.06,1.44-7.48.08-.3.13-.55.21-.85.04-.3.17-.59.25-.85.13-.46.25-.93.38-1.35.21-.93,1.31-2.54.3-2.75-.3-.04-.55,0-.8-.21-.25-.17-.51-.3-.76-.46-.08-.08-.21-.17-.25-.38.08-.04.17-.08.21-.08.59-.13,1.14-.25,1.73-.38.38-.08.8-.13,1.23-.17.17-.04.34-.13.42-.34.13-.34.34-.63.42-1.01.42-.8.72-1.65,1.18-2.41.42-.68.85-1.27,1.39-1.77.08-.13.21-.25.3-.34.17-.13.34-.21.55-.17.25.08.51-.04.8-.04t.08-.04c.59-.13.8.13.97.59.21.42.3.85.3,1.35,0,.25.04.46.08.68.04.17.04.38,0,.59-.04.21-.08.42-.13.68-.08.34-.17.68-.25,1.01,0,.13,0,.21-.04.34.13.08.25.08.42.08.51-.04,1.06-.08,1.56-.13h2.2c.25,0,.51.08.8.13-.08.13-.13.21-.17.25-.08.08-.21.17-.3.21-.3.13-.63.3-.93.42,0,.04-.04.04-.04.04-.47.04-.97.25-1.48.21-.3,0-.59.04-.89.13-.17.08-.38.08-.55.13-.34.04-.63.08-.97.13-.17.04-.25.17-.34.34-.04.04-.04.08-.08.13-.51,1.44-1.18,2.79-1.73,4.18-.08.17-.17.34-.21.46-.21.42-.38.8-.51,1.27-.13.38-.34.76-.55,1.1-.17.3-.13.68-.34.97-.46,1.06-1.01,4.27-.93,5.87.04.68.21,1.31.42,1.94.08.21.25.34.38.51.04,0,.08.04.17.04.38,0,1.14.04,1.52-.21.25-.17,1.52-1.18,1.78-1.39.63-.63,2.07-2.2,2.49-3.04.38-.72.59-1.65.97-2.32.17-.42.59-1.35.8-1.82.21.04.51-.13.46,0ZM83.65,32.54c.42-1.06.55-1.9-.84-1.01-.47,1.39-.63,2.37-1.01,3.68-.93,3.51.42.89,1.01-.68.3-.8.46-1.23.84-1.99ZM84.96,27.68c.04-.17.08-.38.13-.59.04-.34.13-.68.17-1.01.04-.38,0-.76-.04-1.14-.04-.17-.17-.21-.25-.13-.17.13-.3.21-.38.42-.17.34-.34.72-.42,1.1-.04.13-.13.25-.17.38-.08.17-.17.34-.25.55-.08.42-.17.89-.3,1.35-.17,1.1,1.01,1.14,1.27.38.08-.42.17-.85.25-1.31Z"/>
    <path class="st1" d="M161.79,38.8c0,.25-.13.25-.08.46.04.17-.42,1.39-.51,1.56-.25.68-.55,1.35-.8,2.03-.38.76-.76,1.44-1.14,2.16-.17.3-2.15,2.83-2.37,3-.55.38-1.48,1.48-1.99,1.82-.34.21-1.61.68-1.9.72-.55.04-1.14.08-1.65-.04-.89-.13-2.2-1.44-2.62-2.28-.21-.38-.46-.72-.59-1.14-.17-.55-.3-1.44-.34-2.07,0-3.55.42-4.06,1.44-7.48.08-.3.13-.55.21-.85.04-.3.17-.59.25-.85.13-.46.25-.93.38-1.35.21-.93,1.31-2.54.3-2.75-.3-.04-.55,0-.8-.21-.25-.17-.51-.3-.76-.46-.08-.08-.21-.17-.25-.38.08-.04.17-.08.21-.08.59-.13,1.14-.25,1.73-.38.38-.08.8-.13,1.23-.17.17-.04.34-.13.42-.34.13-.34.34-.63.42-1.01.42-.8.72-1.65,1.18-2.41.42-.68.85-1.27,1.39-1.77.08-.13.21-.25.3-.34.17-.13.34-.21.55-.17.25.08.51-.04.8-.04t.08-.04c.59-.13.8.13.97.59.21.42.3.85.3,1.35,0,.25.04.46.08.68.04.17.04.38,0,.59-.04.21-.08.42-.13.68-.08.34-.17.68-.25,1.01,0,.13,0,.21-.04.34.13.08.25.08.42.08.51-.04,1.06-.08,1.56-.13h2.2c.25,0,.51.08.8.13-.08.13-.13.21-.17.25-.08.08-.21.17-.3.21-.3.13-.63.3-.93.42,0,.04-.04.04-.04.04-.47.04-.97.25-1.48.21-.3,0-.59.04-.89.13-.17.08-.38.08-.55.13-.34.04-.63.08-.97.13-.17.04-.25.17-.34.34-.04.04-.04.08-.08.13-.51,1.44-1.18,2.79-1.73,4.18-.08.17-.17.34-.21.46-.21.42-.38.8-.51,1.27-.13.38-.34.76-.55,1.1-.17.3-.13.68-.34.97-.46,1.06-1.01,4.27-.93,5.87.04.68.21,1.31.42,1.94.08.21.25.34.38.51.04,0,.08.04.17.04.38,0,1.14.04,1.52-.21.25-.17,1.52-1.18,1.78-1.39.63-.63,2.07-2.2,2.49-3.04.38-.72.59-1.65.97-2.32.17-.42.59-1.35.8-1.82.21.04.51-.13.46,0ZM155.24,32.54c.42-1.06.55-1.9-.84-1.01-.47,1.39-.63,2.37-1.01,3.68-.93,3.51.42.89,1.01-.68.3-.8.46-1.23.84-1.99ZM156.55,27.68c.04-.17.08-.38.13-.59.04-.34.13-.68.17-1.01.04-.38,0-.76-.04-1.14-.04-.17-.17-.21-.25-.13-.17.13-.3.21-.38.42-.17.34-.34.72-.42,1.1-.04.13-.13.25-.17.38-.08.17-.17.34-.25.55-.08.42-.17.89-.3,1.35-.17,1.1,1.01,1.14,1.27.38.08-.42.17-.85.25-1.31Z"/>
    <path class="st1" d="M93.8,41.58c0,.1-.1.2-.2.25-.05.05-.15.1-.15.25-.05.2-.1.25-.25.3-.1.05-.1.1-.15.4.1,0,.15,0,.2.05v.05h-.35c.05-.15.05-.3.05-.4h-.1c-.05.35-.1.7-.15,1.05.1.05.15.1.2.1.05.35.05.65.05,1s.1.65.2.9c.15.2.55,1.3.7,1.5.7.7,1.55,1.6,2.35,1.65.25.05,1.7-.2,1.95-.25,1.2-.35,2.35-1,3.44-1.85.85-.65,1.65-1.4,2.5-2.1l.15-.15c.3-.35.6-.65.9-1,.55-.55,1.05-1.1,1.5-1.75.15-.25.3-.5.6-.6-.1.45-.2.85-.4,1.25-.05.15-.15.3-.25.4-.3.35-.55.65-.75,1.05-.15.2-.35.4-.5.6-.05.05-.1.15-.2.3.15-.05.25-.1.4-.15-.05.3-.3.35-.35.6.05.05.05.1.15.15-.15.25-.3.4-.5.6-.3.25-.6.55-.85.85-.45.5-.95.9-1.45,1.3-.25.2-.45.4-.7.55-.2.15-.4.25-.6.4-.3.15-.6.3-.9.5-.5.3-1.05.55-1.6.65l-.45.15c-.6.2-1.2.3-1.8.35-.7.1-3.64-.45-4.29-.7-1.75-.7-2.1-1.55-2.9-2.25-.3-.25-.55-.65-.7-1.05-.25-.65-.3-1.35-.35-2.1,0-1.55.4-3.04,1.05-4.44q.15-.3.1-.75c-.25.15-.4.25-.5.55-.15.45-.35.85-.6,1.3,0-.45.2-.75.35-1.1.4-.9.85-1.75,1.4-2.55.55-.85,1.15-1.6,1.85-2.3.7-.75,1.45-1.4,2.25-1.9.2-.1.35-.15.5-.25.25-.1.5-.15.65.1.15.15.35.1.45.2.15.1.2.3.3.4.5.25,2.4.75,2.84,1.05.15.1.25.3.35.5.25.45.45.95.8,1.25.1.1.15.3.2.45.1.6.15,1.15,0,1.8-.1.7-.4,1.35-.75,1.95-.2.35-.4.65-.55,1.05-.1.35-.3.65-.5,1-.2.4-.55.65-.9.75-.3.15-.65.2-.95.15-.15-.05-.3,0-.4-.2,0-.05-.05-.05-.05-.05-.4.05-.65-.4-.95-.55-.05-.05-.1-.2-.1-.25.1-.2,0-.3-.05-.45-.2-.4-.4-.85-.65-1.25-.05-.15-.2-.2-.35-.05-.05.25-.25.45-.25.75ZM89.06,46.07c.05.15.1.25.15.4,0,.15.15.25.05.45-.05-.05-.1-.05-.1-.1-.25-.5-.35-1.15-.45-1.8-.05-.05,0-.1,0-.15,0-.75,0-1.45.2-2.2.05-.15.1-.3.1-.45v-.35c-.15.3-.25.5-.3.7-.05.25-.1.45-.15.7-.2,1.3-.15,2.5.4,3.54.1.2.25.35.4.55.1.1.2.15.35.2,0,.05.05,0,.15,0-.15-.25-.3-.45-.4-.7-.15-.3-.15-.6-.3-.85-.05,0-.1.05-.1.05ZM89.06,42.88c-.25.8-.2,1.55-.1,2.3,0,.05.05.05.1.1.05-.55.1-1.05.15-1.55.05-.35.1-.7-.05-1-.05.05-.1.1-.1.15ZM92.6,44.13v.1-.1ZM95.35,38.88c-.1.15-.25.35-.35.55-.2.35-.15.6.1.75.15.1.35.2.45.35.3.35.7.3,1.1.25.35-.1.6-.45.8-.8.35-.85.55-1,.85-1.85.8-1.9-.8-1.45-1.55-.85-.55.4-.95,1.05-1.4,1.6Z"/>
    <path class="st1" d="M117.73,42.5c-.05,1.05.32.7,1.89.59.51-.04,3.1-.72,3.92-1.4.41-.34.83.16,1.02.39-.01.17-.63.96-.73,1.03-1.85.89-4.59,1.34-5.9,1.4-1.07.16-1.2.69-1.65,1.5l-.2.32c-.17.49-.5.84-.74,1.2-.09.08-.52,1.05-.6,1.08l-.46.47c-.19.28-.47.59-.79.77l-.32.31-.45.34c-.13.03-.25.02-.38-.03-.12-.09-.27-.24-.4-.29-.03-.13-.02-.25,0-.38-.05-.38-.15-.73-.52-.81-.16-.1-.27-.28-.38-.41-.14-.27-.26-.36-.46-.5-.35-.29-.05-1.82.33-2.33.2-.36.43-.55.7-.7.27-.19.58-.33.88-.43.53-.29.99-.25,1.56-.45.31-.14.54-.42.75-.86.39-1.06,1.78-4.82,2.01-5.94l.13-1.42c0-.08.01-.17-.02-.25-.02-.21-.22-.32-.37-.16-.09.03-.13.07-.19.19-.33.43-.67.87-.92,1.35-.74,1.16-2.35,4.6-3.08,5.72-.54.84-1.03,1.6-1.49,2.48-.76,1.45-2.32,2.83-3.01,4.41-.15.28-.26.57-.53.71-.22.06-.33.39-.35.64-.03.29-.1.62-.2.87-.1.16-.2.32-.29.4-.28.27-.38.47-.52.67-.51,1.01-.94,2.03-1.13,3.15-.09.5-.13,1-.3,1.49-.08.37-.27.65-.57.75-.22.11-.4.26-.56.58-.05.04-.19.19-.23.19-.13-.01-.19.28-.29.4h-.04c-.68.06-1.05-.48-1.23-1.3s-.19-1.7-.15-2.55c.1-2.02.39-3.93.82-5.92.15-.79.4-1.61.59-2.35.28-1.28.69-2.55,1.14-3.74.62-1.8,1.29-3.56,1.99-5.27.16-.41.36-.77.53-1.26.61-1.21,1.15-2.51,1.77-3.77.27-.61.66-1.29,1.01-1.89.22-.15.43-.13.63.06l.95.72.04.05c.56.81.86,1.76.87,3.03.03.64-.08,1.34-.31,2.04-.34.98-.73,2.04-1.2,3.06-.31.65-.64,1.46-.95,2.19-.88,2.28.49,2.11.84,1.43.16-.32.86-1.1,1.02-1.51l2.55-4.92c.26-.53.5-.88.87-1.27.32-.31.65-.7,1.02-1.01.27-.23.67-.4.96-.38l.71.06c.38-.05.69.31,1,.64.2.14.34.49.35.83.01.34.06.72.04,1.02l.06,1.23-1.01,3.75ZM112.47,45.44c-.25.13-.42.42-.42.92.04.21.17.38.29.38.08-.08.21-.08.29-.17.21-.13.42-.29.55-.5.46-.63.63-1.3.5-1.05-.46.21-.84.13-1.22.42Z"/>
    <path class="st1" d="M124.31,39.66c-.44-.87-.59-1.89-.65-2.96-.08-.79.21-1.51.68-2.21.05-.09.15-.17.34-.2.39-.29.87-.53,1.45-.81.44-.24.99-.25,1.49-.11.37.03,1.31,1.03,1.52,1.23.26.25.51.55.82.76.38.4.63.83.81,1.45.11.38.18.71.33,1.04.11.42.12.89.17,1.35.01.42-.01.74.05,1.11t.04.14c-.08-.75.02.33-.04.46-.09.55,0,1.06-.17,1.56-.16.26.09.61.46.64,2.26.04,3.11.43,5.34.23.24-.07.48-.19.76-.31.1-.04.24-.12.34-.16.08.14.02.32-.03.41-.16.22.3.35.1.52-1.49,1.36-5.71.98-7.37.85h-.14c-.14-.02-.28.01-.29.11s-.06.13-.11.22c-.2.77-.67,1.47-1.05,2.23-.27.53-.63.92-.98,1.31-.21.26-.41.57-.7.73-.1.04-.19.12-.34.2-.1.04-.24.12-.3.25-.4.38-.84.67-1.35.77-.09,0-.33.07-.47.15-.66.13-1.3.04-1.89-.1-.82-.16-1.32-.8-1.72-1.61-.11-.38-.21-.85-.32-1.27-.03-.83,0-1.66.15-2.53.16-.87.5-1.67.98-2.46.49-.98,1.16-1.8,1.91-2.58.14-.04.15-.13.21-.26,0-.05,0-.09-.04-.14ZM130.23,38.85c-.09-.53-.18-.92-.31-1.41-.13-.44-.31-.79-.61-1.05-.18-.18-.31-.4-.57-.53-.26-.22-.48-.4-.79-.57-.53-.44-1.49.48-1.8.79-1.19,1.67-.04,3.95,1.05,5.14,1.03,2.02,3.38.38,3.08-1.32.09-.35.09-.75-.04-1.05ZM124.89,47.36c-.2.56.08.97.27,1.17s.42.26.64.34t.09-.04s.13-.09.18-.13c.75-.79,1.27-1.8,1.71-2.81.22-.35.31-.75.44-1.05-1.01-.44-1.63-.96-2.2-.22-.48.7-.86,1.96-1.12,2.75Z"/>
    <path class="st1" d="M139.9,43.56c.17-.65,1.68-3.7,1.98-4.22.26-.39.52-.78.73-1.21.26-.34.52-.73.69-1.08.17-.3.43-.47.69-.52.3,0,.56-.04.82-.04.52,0,.82.39,1.08.95v.17c.09.56.22,1.16.3,1.77.09.56.04,1.16.04,1.72,0,.39.04.78,0,1.16.22.13.17.3.22.26.09-.09.39.04.47-.04.04-.09.13-.13.17-.22.17-.13.34-.26.52-.47.13-.22.26-.22.43,0,0,.13.33.14.2.22-.04.04,0-.04-.05.05-.04.13-.33.57-.46.61-.04.04-.27.25-.31.29s-.23.1-.23.15c-.04.04-.38.23-.56.23-.04,0-.16.06-.4.04-.13.09-.26.09-.34,0-.3-.17-.6-.22-.9-.34-.52-.13-.9-.6-1.12-1.21-.26-.78-.26-1.64-.13-2.45.09-.39.09-.73.13-1.08.04-.26.09-.52.13-.78.09-.17.09-.3.04-.47-.04,0-.13-.04-.13.04-.04.04-.13.13-.17.22-.17.34-.39.69-.6,1.08-.13.22-.22.47-.26.78.04.17-.09.3-.13.43-.39.73-.73,1.42-.99,2.24-.22.6-.52,1.12-.78,1.72-.39.9-.86,1.72-1.16,2.67-.09.3-.26.65-.39.99-.09.26-1.16,2.33-1.42,2.54,0,.09-.13.13-.22.22-.52.73-1.12.69-1.81.52-.09.09-.17,0-.26-.09-.69-.17-1.03-.82-1.21-1.68-.13-.73-.13-1.51-.13-2.24.04-1.12.09-2.24.17-3.36.22-1.25.04-1.16.39-2.33.3-1.68.13-1.42.73-3.1.04-.3.22-.52.3-.82.3-.78.56-1.46.9-2.15.17-.56.35-.65.78-.56.3,0,.69.09,1.08.17.26.04.52.13.86.43.3.56.73.95,1.16,1.46.39.69.47,1.21.22,2.02-.22.86-.3.22-.52,1.12-.56,1.81-1.59,3.23-2.07,4.87-.65,2.07,1.34.04,1.51-.69Z"/>
  </g>
  <path class="st0" d="M147.42,42.04s.28-.19,1.17-2.45l.23,1.13s-.83,1.52-1.16,1.77-.25-.44-.25-.44Z"/>
</svg>