<svg width="162" height="161" viewBox="0 0 162 161" fill="none" xmlns="http://www.w3.org/2000/svg">
<path d="M80.5 161C124.959 161 161 124.959 161 80.5C161 36.0411 124.959 0 80.5 0C36.0411 0 0 36.0411 0 80.5C0 124.959 36.0411 161 80.5 161Z" fill="#F6F8FA"/>
<mask id="mask0" mask-type="alpha" maskUnits="userSpaceOnUse" x="0" y="0" width="162" height="161">
<path d="M80.8335 161C125.292 161 161.333 124.959 161.333 80.5C161.333 36.0411 125.292 0 80.8335 0C36.3746 0 0.333496 36.0411 0.333496 80.5C0.333496 124.959 36.3746 161 80.8335 161Z" fill="#F6F8FA"/>
</mask>
<g mask="url(#mask0)">
<path d="M70.3291 144.583C70.3291 144.583 106.904 147.154 119.005 148.66L110.093 136.428C110.093 136.428 65.2625 116.295 59.6304 128.551C57.1423 133.972 70.3291 144.583 70.3291 144.583Z" fill="black"/>
<path d="M123.71 127.114C116.992 115.438 59.314 160.615 59.314 160.615L67.6151 167.194C79.5126 164.576 114.481 144.05 114.481 144.05C114.481 144.05 126.673 132.304 123.71 127.114Z" fill="#161616"/>
<path d="M54.9482 149.842C55.2197 149.911 55.6721 143.563 65.1946 147.641C76.9338 152.668 68.2029 166.198 68.2029 166.198L54.9482 149.842Z" fill="#474747"/>
<path d="M54.609 147.757C57.6851 144.861 60.9423 145.672 63.8375 148.174C64.0184 148.336 64.1994 148.498 64.403 148.683C67.5244 151.649 70.397 161.611 76.9338 165.364C83.3802 169.048 85.1445 176.137 77.2052 176.531C68.5875 176.948 59.5851 167.148 55.559 161.171L54.0887 158.553C52.1209 154.985 52.3245 150.49 54.609 147.757Z" fill="black"/>
<path d="M148.093 154.8C148.093 154.8 153.024 149.888 153.25 150.166C162.999 163.163 157.299 184.964 139.814 186.678C137.643 186.887 129.387 186.099 127.306 186.285C124.117 186.563 116.675 187.049 114.413 186.771C93.6718 184.223 88.8766 177.991 77.0921 169.001C73.2469 166.059 69.9219 162.839 67.6148 159.619C59.178 147.873 56.3506 141.594 57.3458 130.96C57.4137 130.196 57.9339 129.292 58.7482 128.412C62.1863 124.589 68.3838 123.384 73.6314 125.307C79.9873 127.647 85.4385 131.864 92.1337 138.675C100.571 147.27 105.004 150.421 105.004 150.421L103.918 146.923L148.093 154.8Z" fill="#212121"/>
<path d="M58.7712 110.665L110.546 98.5717C111.564 98.34 112.152 97.228 111.79 96.2318L99.3947 62.5228C99.1007 61.7351 98.3317 61.2717 97.4948 61.4107L47.3713 69.4268C46.3308 69.5889 45.6749 70.6315 45.969 71.6509L56.7129 109.437C56.9844 110.341 57.8891 110.851 58.7712 110.665Z" fill="#111111" stroke="url(#paint0_linear)" stroke-width="1.5" stroke-miterlimit="10"/>
<path d="M60.3541 108.047L108.555 97.1121L96.3633 63.1483L49.9268 70.8631L60.3541 108.047Z" fill="white"/>
<path d="M81.4126 94.5405C80.5983 94.7027 79.8067 94.8649 78.9924 95.027C78.6079 95.0965 78.2007 95.1892 77.8162 95.2587C77.6579 95.2819 77.59 95.2355 77.5448 95.0734C77.3865 94.1698 77.2055 93.2663 77.0472 92.3396C77.0246 92.2006 77.0246 92.0616 77.0019 91.9457C76.9793 91.8299 77.0472 91.8067 77.1377 91.7836C77.4996 91.7141 77.8841 91.6677 78.246 91.5751C78.8793 91.4361 79.5353 91.2739 80.1686 91.1349C81.0281 90.9495 81.9102 90.7874 82.7698 90.602C83.765 90.3935 84.7828 90.2313 85.8007 90.0228C87.3162 89.7216 88.8316 89.3973 90.3245 89.0961C90.4828 89.0729 90.6411 89.0498 90.7768 89.0266C90.7995 89.0266 90.8673 89.0498 90.8673 89.0729C90.8899 89.0961 90.8673 89.1656 90.8673 89.1888C90.8673 89.2351 90.8673 89.2815 90.8673 89.3046C90.8899 89.3741 90.9125 89.4668 90.9125 89.5363C91.003 90.1155 91.0935 90.7179 91.184 91.297C91.2292 91.6909 91.2745 92.1079 91.3197 92.5018C91.3197 92.5713 91.3197 92.6639 91.2971 92.7334C91.2745 92.8029 91.2292 92.8956 91.1613 92.8956C91.0935 92.9188 91.003 92.8956 90.9578 92.8261C90.9126 92.7566 90.8673 92.7566 90.7995 92.7798C89.4876 93.1736 88.1078 93.359 86.7733 93.6138C85.9138 93.776 85.0316 93.8687 84.1495 94.0077C83.2674 94.2162 82.34 94.4015 81.4126 94.5405ZM77.7936 95.0039C77.9746 94.9575 78.1103 94.9344 78.2686 94.9112C79.015 94.749 79.7614 94.5869 80.5305 94.4478C82.2495 94.1003 83.9686 93.7992 85.6876 93.5443C86.909 93.359 88.1304 93.1273 89.3518 92.8956C89.8721 92.8029 90.3923 92.6408 90.8899 92.5249C91.0935 92.4786 91.0935 92.4554 91.0709 92.2701C91.0709 92.2006 91.0483 92.1311 91.0483 92.0616C90.9804 91.158 90.7316 90.2777 90.7542 89.3973C90.6637 89.4205 90.5733 89.4436 90.4828 89.4436C89.0578 89.7216 87.6554 90.0228 86.2305 90.3008C85.2126 90.5093 84.2174 90.6947 83.1995 90.88C82.3174 91.0422 81.4126 91.1812 80.5531 91.3897C79.5805 91.6214 78.6305 91.8531 77.6353 91.9689C77.477 91.9921 77.3412 92.0384 77.2281 92.0616C77.4091 93.0114 77.59 94.0077 77.7936 95.0039Z" fill="#424242"/>
<path d="M77.7486 95.3977C77.5903 95.3977 77.4998 95.305 77.4546 95.1197C77.2962 94.2162 77.1153 93.3126 76.957 92.3859C76.9343 92.3164 76.9343 92.2469 76.9343 92.1774C76.9343 92.1079 76.9117 92.0616 76.9117 91.9921C76.8891 91.9226 76.9117 91.8531 76.9343 91.8067C76.9796 91.7372 77.0474 91.7141 77.1379 91.7141L77.432 91.6677C77.7034 91.6214 77.9748 91.5751 78.2462 91.5287C78.5403 91.4592 78.8569 91.3897 79.151 91.3202C79.4903 91.2507 79.8295 91.158 80.1688 91.0885C81.0962 90.9032 82.001 90.7178 82.77 90.5557C83.2224 90.463 83.6748 90.3703 84.1271 90.3008C84.6926 90.185 85.2355 90.0923 85.7783 89.9765C86.7057 89.7911 87.6557 89.6058 88.5831 89.3973C89.1485 89.2815 89.7366 89.1656 90.3021 89.0498C90.4604 89.0266 90.6414 89.0034 90.7771 88.9803C90.845 88.9803 90.9581 89.0034 90.9807 89.0729C91.0033 89.1193 91.0033 89.1888 91.0033 89.2351V89.2583C91.0033 89.2815 91.0033 89.2815 91.0033 89.3046C91.0033 89.3278 91.0033 89.351 91.0033 89.351C91.0033 89.3973 91.0259 89.4205 91.0259 89.4668C91.0259 89.5131 91.0485 89.5595 91.0485 89.6058L91.1164 89.9997C91.1842 90.463 91.2521 90.9032 91.32 91.3665C91.3652 91.7141 91.4104 92.0847 91.433 92.4323L91.4557 92.5713C91.4557 92.6871 91.4557 92.7798 91.433 92.8493C91.4104 92.8956 91.3426 93.0578 91.2295 93.081C91.1164 93.1041 90.9807 93.0809 90.9128 92.9883C90.8902 92.9651 90.8902 92.9651 90.8902 92.9651C90.8902 92.9651 90.8902 92.9651 90.8676 92.9651C89.8045 93.2895 88.6735 93.4748 87.6105 93.6601C87.339 93.7065 87.0902 93.7528 86.8188 93.7991C86.2986 93.8918 85.7783 93.9613 85.2807 94.0308C84.9188 94.0772 84.5569 94.1235 84.2176 94.193C83.5617 94.3088 82.9283 94.4015 82.2724 94.5173L81.345 94.6795L78.9022 95.1892C78.5629 95.2587 78.201 95.3282 77.8617 95.3977C77.8165 95.3977 77.7712 95.3977 77.7486 95.3977ZM77.5677 94.4942C77.6129 94.6795 77.6355 94.8649 77.6808 95.0502C77.7034 95.166 77.7034 95.166 77.8165 95.1429C78.1557 95.0734 78.4951 95.0039 78.857 94.9344L81.526 94.4015V94.4247L82.2498 94.3088C82.9057 94.193 83.5391 94.0772 84.195 93.9845C84.5569 93.915 84.9188 93.8686 85.2581 93.8223C85.7557 93.7528 86.2986 93.6833 86.7962 93.5906C87.0676 93.5443 87.3164 93.498 87.5878 93.4516C88.6509 93.2663 89.7592 93.0578 90.8223 92.7566C90.8902 92.7334 91.0033 92.7334 91.0938 92.8261C91.1164 92.8493 91.1616 92.8493 91.2069 92.8493C91.2069 92.8493 91.2295 92.8029 91.2521 92.7566C91.2747 92.7103 91.2747 92.6408 91.2747 92.5713L91.2521 92.4323C91.2068 92.0847 91.1842 91.7372 91.139 91.3897C91.0711 90.9264 91.0033 90.4862 90.9354 90.0228L90.8676 89.629C90.8676 90.0692 90.958 90.5325 91.0259 90.9727C91.0938 91.3202 91.139 91.6909 91.1616 92.0616C91.1616 92.1311 91.1616 92.2006 91.1842 92.2701C91.2069 92.5249 91.1842 92.5944 90.9354 92.6639C90.7997 92.6871 90.664 92.7334 90.5283 92.7566C90.1438 92.8493 89.7593 92.9651 89.3747 93.0346L88.9676 93.1041C87.9045 93.3126 86.7962 93.5211 85.7105 93.6833C84.1724 93.915 82.5438 94.193 80.5534 94.5869C80.0331 94.6795 79.5355 94.7954 79.0153 94.9112L77.726 95.1892L77.5677 94.4942ZM77.3415 92.1311L77.8843 94.8649L78.9474 94.6332C79.4676 94.5173 79.9653 94.4247 80.4855 94.3088C82.476 93.915 84.1272 93.637 85.6426 93.4053C86.7283 93.2431 87.814 93.0346 88.8771 92.8261L89.2843 92.7566C89.6688 92.6871 90.0533 92.5713 90.4152 92.4786C90.5509 92.4554 90.6866 92.4091 90.8223 92.3859C90.8449 92.3859 90.9128 92.3628 90.9354 92.3628C90.9354 92.3628 90.9128 92.2933 90.9128 92.2701C90.9128 92.2006 90.8902 92.1311 90.8902 92.0616C90.8676 91.6909 90.7997 91.3202 90.7545 90.9727C90.6866 90.4862 90.5961 89.9997 90.5961 89.5131L89.239 89.7911C88.2438 89.9997 87.2259 90.2082 86.2307 90.3935C85.2807 90.5788 84.3081 90.7642 83.3355 90.9495L83.1998 90.9727C82.9057 91.019 82.6117 91.0885 82.3176 91.1349C81.7295 91.2275 81.1415 91.3434 80.5534 91.4824L80.4855 91.5055C79.5581 91.7141 78.5855 91.9457 77.6355 92.0847C77.5224 92.0847 77.4319 92.1079 77.3415 92.1311ZM90.7997 89.1656C90.664 89.1888 90.5057 89.1888 90.3699 89.2351C89.8045 89.351 89.2164 89.4668 88.6509 89.5826C87.7235 89.768 86.7735 89.9765 85.8462 90.1618C85.3033 90.2777 84.7379 90.3703 84.1724 90.4862C83.72 90.5788 83.2676 90.6483 82.8153 90.741C82.0462 90.9032 81.1188 91.0654 80.2141 91.2739C79.8748 91.3434 79.5355 91.436 79.1962 91.5055C78.9022 91.5751 78.5855 91.6446 78.2915 91.7141C78.0201 91.7836 77.7486 91.8299 77.4772 91.8762L77.1832 91.9226C77.1379 91.9226 77.1379 91.9457 77.1379 91.9457C77.1379 91.9457 77.1379 91.9457 77.1379 91.9689L77.2058 91.9457C77.2284 91.9457 77.2736 91.9226 77.3189 91.9226C77.4093 91.8994 77.5224 91.8762 77.6355 91.8531C78.5855 91.7372 79.5581 91.5056 80.4629 91.297L80.5307 91.2739C81.1188 91.1349 81.7295 91.019 82.3176 90.9264C82.6117 90.88 82.9057 90.8105 83.1998 90.7642L83.3355 90.741C84.3081 90.5557 85.2581 90.3703 86.2307 90.185C87.2259 89.9765 88.2438 89.768 89.239 89.5826L90.8223 89.2583C90.7997 89.212 90.7997 89.1888 90.7997 89.1656Z" fill="#424242"/>
<path d="M76.2101 94.8656C76.2327 95.0277 76.2553 95.1899 76.2553 95.3521C76.2553 95.5606 76.1648 95.6764 75.9387 95.7228C75.8256 95.7459 75.7125 95.7923 75.5994 95.7923C75.5315 95.7923 75.4636 95.7923 75.4184 95.7691C75.3958 95.7691 75.3505 95.7459 75.3279 95.7459C75.2375 95.7459 75.1244 95.7691 75.0339 95.7923C73.903 96.024 72.7494 96.2788 71.6185 96.5336C70.3518 96.8117 69.1077 97.0665 67.8411 97.3677C66.5744 97.6689 65.3304 97.9932 64.0637 98.2712C63.634 98.3639 63.1816 98.4334 62.7292 98.5029C62.5483 98.5261 62.3899 98.5724 62.209 98.5956C61.9828 98.6187 61.915 98.5724 61.8697 98.3639C61.7566 97.8079 61.5531 97.275 61.3495 96.7422C61.259 96.4873 61.2138 96.2093 61.1685 95.9313C61.1233 95.6996 61.1007 95.4448 61.0781 95.2131C61.0781 95.2131 61.0781 95.2131 61.0781 95.1899C61.0328 95.0046 61.0328 95.0046 61.2364 94.9582C61.5757 94.8656 61.9376 94.7497 62.2769 94.6571C62.7292 94.5181 63.159 94.4022 63.6114 94.2864C64.109 94.1474 64.6292 94.0315 65.1268 93.9157C66.5744 93.6145 68.022 93.3365 69.447 93.0353C70.4875 92.8268 71.5054 92.5951 72.5458 92.3866C73.2018 92.2708 73.8577 92.1781 74.491 92.0854C74.6946 92.0623 74.9208 92.0623 75.1244 92.0391C75.2827 92.0391 75.3506 92.0855 75.3958 92.2476C75.5994 92.9195 75.8029 93.6145 76.0065 94.2864C76.097 94.4949 76.1422 94.6802 76.2101 94.8656ZM62.209 98.3407C62.3447 98.3176 62.5257 98.2712 62.7066 98.2481C63.3852 98.109 64.0411 97.9932 64.7197 97.8542C65.828 97.5994 66.9137 97.2982 68.022 97.0202C69.4697 96.6727 70.8946 96.3715 72.3422 96.0471C73.2244 95.8618 74.1065 95.6764 74.9886 95.4911C75.2148 95.4448 75.441 95.4216 75.6446 95.3984C75.6898 95.3984 75.7125 95.3984 75.7577 95.3984C75.8255 95.3984 75.8934 95.4216 76.0065 95.4216C75.8255 94.3559 75.4863 93.3597 75.2375 92.3635C75.0113 92.3866 74.7851 92.3635 74.5589 92.4098C73.8125 92.5025 73.0661 92.5951 72.3196 92.7341C71.3923 92.8963 70.4875 93.128 69.5601 93.3133C67.9994 93.6377 66.4613 93.9389 64.9006 94.24C64.8102 94.2632 64.7197 94.2864 64.6292 94.3095C63.7245 94.5412 62.8197 94.7961 61.9376 95.0277C61.7114 95.0972 61.5078 95.1436 61.259 95.2131C61.3269 95.5374 61.3721 95.8386 61.4399 96.1398C61.4626 96.2788 61.5078 96.4178 61.553 96.5336C61.7566 97.1128 61.9828 97.7152 62.209 98.3407Z" fill="#424242"/>
<path d="M62.1413 98.7107C61.9377 98.7107 61.8473 98.618 61.802 98.3632C61.6889 97.8303 61.508 97.3206 61.327 96.8341L61.3044 96.7414C61.2139 96.5098 61.1687 96.2549 61.1234 96.0232L61.1008 95.9306C61.0782 95.7684 61.0556 95.5831 61.033 95.4209C61.033 95.3514 61.0104 95.2819 61.0104 95.1892V95.166C60.9651 94.9344 60.9877 94.888 61.2139 94.8185C61.4175 94.7722 61.5758 94.7027 61.7568 94.6564C61.9151 94.61 62.0961 94.5637 62.2544 94.5173L62.4127 94.471C62.7972 94.3552 63.2044 94.2393 63.5889 94.1467L63.6568 94.1235C64.1317 94.0077 64.6294 93.8687 65.127 93.776C65.9413 93.6138 66.7329 93.4516 67.5472 93.2895C68.1805 93.1736 68.8139 93.0346 69.4472 92.8956C69.8543 92.8029 70.2615 92.7334 70.6912 92.6408C71.3019 92.5018 71.9353 92.3628 72.5686 92.2469C73.0888 92.1542 73.6317 92.0847 74.1293 92.0152L74.5138 91.9689C74.6721 91.9457 74.8305 91.9457 74.9888 91.9226C75.0567 91.9226 75.1019 91.9226 75.1698 91.9226C75.3733 91.8994 75.4864 91.9921 75.5543 92.2237C75.7578 92.8956 75.9614 93.5906 76.165 94.2625C76.2102 94.3783 76.2329 94.5173 76.2781 94.6332L76.3233 94.8185L76.3459 94.9575C76.3686 95.0734 76.3686 95.1892 76.3912 95.305C76.3912 95.4904 76.3459 95.7452 75.984 95.7916C75.9388 95.7916 75.871 95.8147 75.8257 95.8379C75.7579 95.8611 75.7126 95.8611 75.6448 95.8842C75.5769 95.8842 75.5091 95.8842 75.4638 95.8611H75.4186C75.396 95.8611 75.3733 95.8611 75.3507 95.8379C75.2603 95.8379 75.1471 95.8379 75.0567 95.8611L74.8079 95.9074C73.7448 96.1391 72.7043 96.3476 71.6412 96.5793L70.9174 96.7414C69.9222 96.95 68.8817 97.1816 67.8639 97.4133C67.2079 97.5755 66.5294 97.7377 65.8734 97.8998C65.2853 98.0388 64.6972 98.201 64.1091 98.34C63.8151 98.4095 63.4984 98.4558 63.2044 98.5022C63.0687 98.5254 62.9103 98.5485 62.7746 98.5717C62.7068 98.5949 62.6389 98.5949 62.571 98.618C62.458 98.6412 62.3675 98.6644 62.2544 98.6875C62.2092 98.7107 62.1639 98.7107 62.1413 98.7107ZM61.4401 96.5329C61.4627 96.5793 61.4627 96.6488 61.4853 96.6951L61.508 96.7878C61.6889 97.2975 61.8925 97.8072 62.0056 98.34C62.0508 98.5022 62.0508 98.5254 62.2092 98.5022C62.3222 98.479 62.4127 98.4558 62.5258 98.4558C62.5937 98.4327 62.6615 98.4327 62.7294 98.4095C62.8651 98.3863 63.0234 98.3632 63.1591 98.34C63.4532 98.2937 63.7472 98.2473 64.0413 98.1778C64.6294 98.0388 65.2175 97.8998 65.8055 97.7376C66.4615 97.5755 67.1401 97.4133 67.796 97.2511C68.8139 97.0195 69.8543 96.7878 70.8496 96.5793L71.5734 96.4171C72.6364 96.1854 73.6769 95.9537 74.74 95.7452L74.9888 95.6989C75.1019 95.6757 75.1924 95.6757 75.2829 95.6526C75.3281 95.6526 75.3507 95.6526 75.396 95.6757L75.4638 95.6989C75.5091 95.6989 75.5317 95.7221 75.5769 95.6989C75.6222 95.6989 75.6674 95.6757 75.7352 95.6526C75.8031 95.6294 75.871 95.6062 75.9162 95.6062C75.9841 95.6062 76.0293 95.5831 76.0745 95.5599L75.69 95.5136C75.6674 95.5136 75.6674 95.5136 75.6448 95.5136C75.5769 95.5136 75.5317 95.5367 75.4638 95.5367C75.3055 95.5599 75.1471 95.5599 74.9888 95.6062C74.0162 95.8147 73.1341 96.0001 72.3424 96.1623L71.7317 96.3013C70.5103 96.5793 69.2662 96.8341 68.0222 97.1353C67.4567 97.2743 66.8913 97.4133 66.3258 97.5523C65.7829 97.6913 65.2627 97.8303 64.7199 97.9462C64.2675 98.062 63.7925 98.1547 63.3401 98.2242C63.1365 98.2705 62.9103 98.2937 62.7068 98.34L62.1187 98.4558L61.9377 97.923C61.7794 97.4596 61.5984 96.9963 61.4401 96.5561V96.5329ZM61.3949 95.2587L61.4175 95.4209C61.4627 95.6526 61.508 95.8611 61.5532 96.0696C61.5758 96.2086 61.6211 96.3476 61.6663 96.4634C61.8246 96.9268 61.983 97.367 62.1639 97.8303L62.277 98.1778L62.6841 98.1083C62.8877 98.062 63.1139 98.0157 63.3175 97.9925C63.7698 97.8998 64.2222 97.8072 64.6746 97.7145C65.2175 97.5986 65.7377 97.4596 66.2805 97.3206C66.846 97.1816 67.4115 97.0426 67.977 96.9036C69.221 96.6256 70.465 96.3476 71.6865 96.0696L72.2972 95.9306C73.1115 95.7452 73.971 95.5599 74.9436 95.3746C75.1019 95.3514 75.2829 95.3282 75.4412 95.305C75.509 95.305 75.5543 95.2819 75.6221 95.2819C75.6674 95.2819 75.69 95.2819 75.7352 95.2819L75.8709 95.305C75.7352 94.6332 75.5543 93.9845 75.3733 93.3358C75.2829 93.0578 75.215 92.7566 75.1472 92.4786C75.1019 92.4786 75.0567 92.4786 75.0114 92.4786C74.8531 92.4786 74.7174 92.4786 74.5817 92.5018L74.1519 92.5481C73.5638 92.6176 72.9305 92.7103 72.3424 92.8261C71.7769 92.9188 71.2115 93.0578 70.6686 93.1736C70.3067 93.2431 69.9448 93.3358 69.5829 93.4053C68.5424 93.6138 67.502 93.8223 66.4615 94.0308L64.946 94.332C64.8556 94.3552 64.7651 94.3783 64.6746 94.4015C63.7698 94.6332 62.8651 94.888 61.983 95.1197L61.3949 95.2587ZM75.4186 92.6176C75.4864 92.8261 75.5317 93.0578 75.5995 93.2663C75.8031 93.9613 75.984 94.6564 76.1197 95.3977L76.1424 95.4672C76.165 95.4441 76.165 95.3977 76.165 95.3514C76.165 95.2355 76.1424 95.1429 76.1424 95.027L76.1197 94.888L76.0745 94.7259C76.0293 94.61 76.0067 94.471 75.9614 94.3552C75.7579 93.776 75.5995 93.1968 75.4186 92.6176ZM75.1924 92.1542C75.1924 92.1542 75.1698 92.1542 75.1472 92.1542C75.0793 92.1542 75.034 92.1542 74.9662 92.1542C74.8079 92.1542 74.6721 92.1774 74.5138 92.1774L74.1293 92.2237C73.6091 92.2933 73.0888 92.3628 72.5686 92.4554C71.9353 92.5713 71.3246 92.7103 70.7139 92.8493C70.3067 92.9419 69.8996 93.0346 69.4698 93.1041C68.8365 93.2431 68.2032 93.359 67.5698 93.498C66.7556 93.6601 65.9639 93.8223 65.1496 93.9845C64.652 94.0772 64.177 94.2162 63.702 94.332L63.6341 94.3552C63.2496 94.4478 62.8425 94.5637 62.458 94.6795L62.2996 94.7259C62.1413 94.7722 61.9603 94.8185 61.802 94.8649C61.7342 94.888 61.6663 94.9112 61.5984 94.9344L61.8925 94.8649C62.7972 94.6332 63.702 94.3783 64.5841 94.1467C64.6746 94.1235 64.7651 94.1003 64.8556 94.0772L66.371 93.776C67.4115 93.5675 68.452 93.359 69.4924 93.1505C69.8543 93.081 70.2162 92.9883 70.5781 92.9188C71.121 92.8029 71.6865 92.6871 72.2519 92.5713C72.8626 92.4554 73.4733 92.3859 74.0614 92.2932L74.4912 92.2237C74.6495 92.2006 74.7852 92.2006 74.9436 92.2006C75.0114 92.2006 75.0793 92.2006 75.1698 92.2006H75.2376C75.2603 92.1774 75.2376 92.1542 75.1924 92.1542Z" fill="#424242"/>
<path d="M83.6069 92.549C83.6521 92.5027 83.72 92.4332 83.7652 92.3869C83.8331 92.3173 83.9009 92.2478 83.9688 92.1783C84.014 92.132 84.0592 92.1088 84.1045 92.132C84.1271 92.1552 84.1497 92.2015 84.1724 92.2478C84.195 92.2942 84.1723 92.3637 84.195 92.4332C84.2402 92.41 84.2854 92.3869 84.3081 92.3637C84.4212 92.2942 84.5569 92.2015 84.67 92.132C84.7604 92.0857 84.8735 92.0857 84.9414 92.1783C85.0092 92.2478 85.0997 92.2478 85.1902 92.2247C85.3712 92.132 85.5295 92.0393 85.7104 91.9467C85.8235 91.8772 85.9592 91.8772 86.095 91.9467C86.2081 92.0162 86.3211 91.9698 86.4116 91.9235C86.5247 91.854 86.6604 91.8077 86.7735 91.7382C86.8414 91.715 86.9319 91.715 86.9997 91.715C87.045 91.715 87.0449 91.7613 87.0449 91.8077C87.0449 91.854 87.0223 91.9003 86.9771 91.8772C86.864 91.854 86.7735 91.9003 86.683 91.9467C86.5926 91.993 86.4795 92.0393 86.389 92.0857C86.2759 92.132 86.1402 92.1552 86.0271 92.0857C85.9366 92.0393 85.8462 92.0393 85.7557 92.0857C85.5747 92.1783 85.3938 92.271 85.2128 92.3637C85.0997 92.41 84.9866 92.41 84.8961 92.3405C84.8961 92.3405 84.8735 92.3405 84.8735 92.3173C84.7831 92.2015 84.6926 92.2478 84.6021 92.2942C84.5342 92.3405 84.4664 92.3868 84.3985 92.4332C84.3759 92.4564 84.3533 92.4564 84.3533 92.4795C84.1497 92.6185 84.0592 92.5722 84.014 92.3173C83.9914 92.3637 83.9461 92.3868 83.9235 92.41C83.833 92.5027 83.7426 92.5954 83.6521 92.688C83.5843 92.7575 83.5164 92.7575 83.4485 92.7344C83.3807 92.8039 83.3128 92.8502 83.245 92.9197C83.1997 92.966 83.1319 92.9892 83.064 92.9429C82.9962 92.8965 82.9962 92.8502 82.9962 92.7807C82.9962 92.7575 82.9962 92.7344 82.9962 92.688C82.9509 92.7344 82.9283 92.7807 82.8831 92.8039C82.8152 92.8734 82.7473 92.9429 82.6795 92.9892C82.6569 93.0124 82.589 93.0355 82.5664 93.0124C82.5438 92.9892 82.5212 92.9197 82.5212 92.8965C82.5438 92.7807 82.589 92.6649 82.6116 92.549V92.5259C82.589 92.549 82.589 92.5722 82.5664 92.5954C82.4307 92.7807 82.295 92.9892 82.114 93.1282C81.9783 93.2441 81.8878 93.2672 81.7747 93.1977C81.6164 93.4294 81.4807 93.6611 81.345 93.8696C81.2997 93.9391 81.2545 94.0086 81.1866 94.0549C81.1414 94.1013 81.0962 94.1244 81.0283 94.1013C80.9605 94.0781 80.9604 94.0086 80.9604 93.9391C80.9831 93.7769 81.0057 93.6147 81.0509 93.4757C81.1188 93.2209 81.2319 92.9429 81.3223 92.688C81.345 92.6185 81.4128 92.5259 81.4581 92.4564C81.4807 92.4332 81.5033 92.41 81.5259 92.4332C81.5485 92.4564 81.5712 92.4795 81.5712 92.5027C81.5712 92.549 81.5938 92.5954 81.5938 92.6649C81.5938 92.688 81.5712 92.7112 81.5712 92.688C81.5486 92.688 81.5259 92.6649 81.5259 92.6649C81.5259 92.6417 81.5259 92.5954 81.5033 92.549C81.345 92.688 81.0283 93.8464 81.0962 93.9854C81.1188 93.9623 81.1414 93.9391 81.1414 93.9391C81.345 93.6842 81.5259 93.3831 81.6843 93.0819C81.6843 93.0587 81.7069 93.0355 81.7069 93.0124C81.6616 92.827 81.7069 92.6649 81.7521 92.4795C81.7973 92.2942 81.8426 92.1088 81.9105 91.9235C81.9557 91.8077 82.0235 91.715 82.0688 91.6223C82.0914 91.576 82.1366 91.5296 82.2045 91.5528C82.2723 91.576 82.2724 91.6455 82.2724 91.715C82.2497 91.8308 82.2271 91.9467 82.2045 92.0625C82.0914 92.3637 81.9783 92.688 81.8878 92.9892C81.8878 93.0124 81.8878 93.0355 81.8878 93.0819C81.9104 93.0819 81.9557 93.1051 81.9783 93.0819C82.0688 93.0124 82.1819 92.9197 82.2497 92.827C82.4307 92.5722 82.6116 92.2942 82.7926 92.0162C82.8152 91.9698 82.8605 91.9003 82.9283 91.9467C82.9962 91.9698 82.9735 92.0393 82.9509 92.0857C82.8831 92.3173 82.8152 92.5259 82.7247 92.7575C82.7247 92.7807 82.7021 92.8039 82.7247 92.8502C82.7474 92.827 82.7926 92.8039 82.8152 92.7575C82.8831 92.6649 82.9509 92.5954 83.0188 92.5027C83.0414 92.4795 83.0866 92.4564 83.1319 92.4795C83.1545 92.4795 83.1771 92.549 83.1771 92.5722C83.1771 92.6185 83.1771 92.688 83.1545 92.7344C83.1545 92.7575 83.1545 92.8039 83.1545 92.8502C83.245 92.7807 83.3128 92.7112 83.3807 92.6185C83.4259 92.549 83.4712 92.4795 83.4938 92.41C83.5164 92.3637 83.539 92.3405 83.5842 92.3637C83.6295 92.3869 83.6295 92.4332 83.6295 92.4795C83.6069 92.4795 83.5843 92.5027 83.6069 92.549C83.5843 92.549 83.5843 92.549 83.6069 92.549ZM81.82 92.688C81.9331 92.41 82.0462 92.1088 82.0914 91.8077C81.9331 92.0857 81.8878 92.3869 81.82 92.688Z" fill="#424242"/>
<path d="M81.096 94.1698C81.0734 94.1698 81.0282 94.1698 81.0056 94.1467C80.9151 94.1003 80.8699 94.0077 80.8925 93.8918V93.8223C80.9151 93.6833 80.9377 93.5443 80.9829 93.4285C81.0734 93.1505 81.1639 92.8956 81.2544 92.6408C81.277 92.5713 81.3222 92.5018 81.3675 92.4323L81.3901 92.4091C81.4127 92.3627 81.5032 92.3164 81.571 92.3396C81.6163 92.3628 81.6389 92.4323 81.6389 92.4554C81.6841 92.2701 81.7294 92.0616 81.7972 91.8762C81.8425 91.7836 81.8877 91.6909 81.9329 91.5982L81.9556 91.5519C82.0234 91.436 82.1139 91.4129 82.1817 91.436L82.2044 91.3897V91.4592C82.2496 91.4824 82.3401 91.5519 82.3175 91.7141C82.2948 91.8299 82.2722 91.9457 82.2496 92.0616C82.1818 92.2701 82.1139 92.4554 82.046 92.6639L81.9556 92.9188C82.0234 92.8493 82.1139 92.8029 82.1591 92.7334C82.2948 92.5481 82.4305 92.3396 82.5663 92.1542L82.7246 91.8994C82.7472 91.8531 82.8151 91.7372 82.9508 91.8067C83.0865 91.8762 83.0413 91.9921 83.0186 92.0384C82.9734 92.1774 82.9282 92.3164 82.8829 92.4323C82.9055 92.4091 82.9282 92.3859 82.9508 92.3628C82.996 92.3164 83.0865 92.2932 83.1544 92.3164C83.2222 92.3396 83.2675 92.4554 83.2675 92.4786C83.2675 92.5018 83.2675 92.5249 83.2675 92.5481C83.2901 92.5249 83.2901 92.5018 83.3127 92.4786C83.3579 92.4091 83.3805 92.3627 83.4258 92.2932L83.4484 92.2701C83.5163 92.1311 83.6067 92.1774 83.652 92.1774C83.6972 92.2006 83.7198 92.2237 83.7425 92.2701L83.8329 92.1774C83.8782 92.1311 83.9008 92.1079 83.946 92.0616C84.0139 91.9689 84.1044 91.9689 84.1948 92.0152C84.2627 92.0616 84.2853 92.1311 84.2853 92.1774C84.2853 92.2006 84.2853 92.2237 84.2853 92.2237L84.3984 92.1542C84.4889 92.1079 84.5794 92.0384 84.6698 91.9921C84.8055 91.9226 84.9412 91.9457 85.0543 92.0616C85.077 92.0847 85.1222 92.1311 85.2127 92.0847C85.3032 92.0384 85.371 91.9921 85.4615 91.9689C85.552 91.9226 85.6424 91.8762 85.7329 91.8299C85.9139 91.7372 86.0496 91.7372 86.1853 91.8299C86.2531 91.8762 86.321 91.8531 86.4341 91.8067C86.4793 91.7836 86.5246 91.7604 86.5472 91.7372C86.6377 91.6909 86.7055 91.6446 86.796 91.6214C86.8639 91.5982 86.9543 91.5982 87.0448 91.5982H87.0674C87.1127 91.5982 87.1579 91.6214 87.1579 91.6446C87.2031 91.6909 87.2031 91.7604 87.2031 91.7836C87.2031 91.8531 87.1805 91.8994 87.1353 91.9226C87.1127 91.9457 87.0674 91.9457 87.0222 91.9457C86.9543 91.9226 86.8865 91.9457 86.796 91.9921L86.7281 92.0384C86.6377 92.0847 86.5698 92.1311 86.4793 92.1542C86.321 92.2237 86.1627 92.2237 86.0496 92.1311C86.0043 92.1079 85.9365 92.1079 85.8686 92.1311C85.7782 92.1774 85.7103 92.2237 85.6198 92.2469C85.5293 92.2933 85.4163 92.3396 85.3258 92.3859C85.1901 92.4554 85.0543 92.4554 84.9186 92.3628C84.9186 92.3628 84.896 92.3396 84.8734 92.3396C84.8282 92.2932 84.8055 92.2701 84.7151 92.3396C84.6698 92.3628 84.6246 92.4091 84.5567 92.4323L84.4436 92.5018C84.3532 92.5481 84.2401 92.6176 84.127 92.5713C84.0591 92.5481 84.0365 92.5018 84.0139 92.4323L83.946 92.5018C83.8782 92.5713 83.8103 92.6408 83.7425 92.7103C83.652 92.7798 83.5841 92.8029 83.4937 92.7798L83.471 92.8029C83.4258 92.8493 83.3805 92.8956 83.3127 92.9419C83.1996 93.0346 83.1091 93.0114 83.0413 92.9883C82.996 92.9651 82.9508 92.9188 82.9508 92.8724C82.8829 92.9188 82.8377 92.9883 82.7698 93.0346C82.7246 93.081 82.6115 93.1041 82.5436 93.0578C82.4984 93.0114 82.4758 92.9419 82.4758 92.8724C82.4079 92.9651 82.3175 93.0578 82.2044 93.1505C82.1139 93.22 82.0008 93.3126 81.8425 93.2663L81.752 93.4053C81.6389 93.5675 81.5484 93.7296 81.4353 93.8918C81.3901 93.9613 81.3222 94.0308 81.277 94.1003C81.2091 94.1467 81.1639 94.1698 81.096 94.1698ZM81.4806 92.7334C81.3675 92.9651 81.2317 93.4516 81.1865 93.7296C81.3675 93.498 81.5032 93.2663 81.6163 93.0346C81.6163 93.0114 81.6163 93.0114 81.6163 93.0114C81.5937 92.9188 81.5937 92.8261 81.5937 92.7566H81.5484C81.5258 92.7566 81.5032 92.7566 81.4806 92.7334ZM81.7746 92.6871C81.752 92.8029 81.752 92.8956 81.7746 93.0114C81.7746 92.9883 81.7746 92.9651 81.7972 92.9419L81.8877 92.7103L81.7746 92.6871ZM82.6341 92.8724V92.8956V92.9188V92.8724ZM83.4484 92.6408L83.4937 92.6639C83.5163 92.6871 83.5389 92.6871 83.5841 92.6639L83.5615 92.6408L83.6067 92.5713L83.5389 92.6408L83.4937 92.5944V92.5713C83.471 92.5713 83.4484 92.5944 83.4484 92.6408ZM82.6341 92.3628L82.702 92.4554C82.702 92.4554 82.702 92.4554 82.702 92.4786C82.7472 92.3396 82.7925 92.2006 82.8377 92.0616L82.702 92.2701C82.6794 92.2933 82.6567 92.3396 82.6341 92.3628Z" fill="#424242"/>
<path d="M69.0404 94.6573C68.9499 94.7731 68.8594 94.8658 68.7689 94.9816C68.6558 95.0975 68.5427 95.2133 68.4296 95.3523C68.407 95.3755 68.3844 95.3986 68.3618 95.4218C68.2035 95.5377 68.0677 95.5377 67.9999 95.3755C67.9773 95.2828 67.9546 95.2133 67.932 95.0975C67.8415 95.2133 67.7511 95.306 67.6832 95.3987C67.5023 95.6072 67.3213 95.7925 67.1404 95.9778C67.1177 96.001 67.0725 96.0473 67.0273 96.0705C66.982 96.0937 66.8916 96.1169 66.8689 96.0937C66.8237 96.0705 66.8011 96.0242 66.8237 95.9778C66.8463 95.8852 66.8689 95.7925 66.8916 95.6998C66.9142 95.6535 66.9368 95.6072 66.9142 95.5377C66.8689 95.584 66.8237 95.6303 66.7785 95.6767C66.6428 95.8157 66.507 95.9778 66.3713 96.1168C66.2808 96.2095 66.1904 96.279 66.0773 96.3485C65.9642 96.418 65.8963 96.418 65.8058 96.3485C65.6475 96.5339 65.4892 96.696 65.3309 96.8814C65.3082 96.9277 65.263 96.9509 65.2178 96.9741C65.0368 97.1131 64.8785 97.0667 64.8333 96.9046C64.788 96.7424 64.8106 96.5802 64.8559 96.418C64.969 95.9547 65.1725 95.4913 65.4666 95.0511C65.5797 94.9121 65.6928 94.7731 65.8963 94.6805C66.0999 94.5878 66.2582 94.6573 66.2808 94.8195C66.3035 94.9353 66.3035 95.0511 66.3035 95.167C66.394 95.167 66.3713 95.2133 66.3487 95.2596C66.2808 95.3987 66.2356 95.5377 66.1677 95.6767C66.0773 95.8157 66.0547 95.9547 66.0094 96.0937C66.0094 96.1169 66.0094 96.1168 65.9868 96.1632C66.0547 96.0937 66.1225 96.0705 66.1904 96.001C66.394 95.7925 66.5749 95.584 66.7785 95.3755C66.8237 95.3291 66.8915 95.2596 66.9594 95.2365C67.0046 95.2133 67.0725 95.1901 67.1178 95.2133C67.163 95.2365 67.1856 95.2828 67.1856 95.3291C67.1856 95.3986 67.163 95.4682 67.1404 95.5608C67.1177 95.6303 67.0951 95.6767 67.0725 95.7462H67.0951C67.2082 95.6303 67.2987 95.5145 67.4118 95.3987C67.5249 95.2596 67.638 95.1206 67.7284 94.9816C67.7511 94.9585 67.7737 94.9121 67.7963 94.889C67.9094 94.7963 68.0451 94.7963 68.0903 94.9121C68.113 94.9816 68.1356 95.0743 68.1582 95.1438C68.1582 95.167 68.1808 95.2133 68.2034 95.2596C68.3165 95.1438 68.4296 95.028 68.5427 94.9353C68.6558 94.7963 68.7689 94.6573 68.882 94.5414C68.9272 94.4951 68.9725 94.4256 69.0404 94.3793C69.0856 94.3561 69.1761 94.3098 69.1987 94.3329C69.2439 94.3329 69.2892 94.4024 69.2892 94.4488C69.2892 94.5646 69.2665 94.6805 69.2439 94.7963C69.2439 94.8426 69.2439 94.8658 69.2439 94.9353C69.3118 94.889 69.3344 94.8658 69.3796 94.8426C69.538 94.7036 69.6963 94.5646 69.832 94.4488C69.8546 94.4256 69.8772 94.4024 69.8999 94.4024C70.0582 94.3098 70.1939 94.3329 70.2618 94.4488C70.3296 94.5878 70.4201 94.611 70.5784 94.4719C70.8046 94.3098 71.0082 94.1476 71.2118 93.9854C71.257 93.9391 71.3248 93.9159 71.3701 93.8928C71.5058 93.8464 71.5963 93.8928 71.5963 94.0086C71.5963 94.1013 71.5737 94.1708 71.551 94.2634C71.5284 94.3793 71.4832 94.4951 71.4379 94.6341C71.5284 94.6109 71.5737 94.5878 71.6415 94.5646C71.8451 94.4719 72.0486 94.4024 72.2522 94.3098C72.4784 94.2403 72.6141 94.3098 72.6141 94.4951C72.6141 94.5414 72.6141 94.5878 72.6368 94.6341C72.7498 94.5646 72.8629 94.5183 72.976 94.4719C73.3379 94.2634 73.7224 94.0318 74.0843 93.8232C74.1522 93.7769 74.1974 93.7769 74.2427 93.8232C74.2879 93.8696 74.2653 93.9159 74.1974 93.9623C73.7451 94.2866 73.2474 94.5878 72.7272 94.8426C72.5463 94.9353 72.4105 94.889 72.3879 94.7268C72.3879 94.6573 72.3879 94.5878 72.3653 94.5183C72.2748 94.5414 72.1844 94.5646 72.1165 94.6109C71.9582 94.6805 71.8225 94.75 71.6641 94.8195C71.6415 94.8195 71.6415 94.8195 71.6189 94.8426C71.3475 94.9353 71.1891 94.8658 71.2344 94.6109C71.257 94.4951 71.3022 94.4024 71.3249 94.2866C71.3249 94.2634 71.3475 94.2171 71.3475 94.1708C71.2344 94.2634 71.1213 94.3561 71.0082 94.4488C70.8951 94.5414 70.782 94.6341 70.6689 94.7036C70.4879 94.8195 70.2844 94.8426 70.1713 94.75C70.1261 94.7036 70.0808 94.6573 70.0129 94.5878C69.9225 94.6805 69.8094 94.75 69.7189 94.8426C69.6284 94.9121 69.5606 94.9816 69.4701 95.0511C69.4475 95.0743 69.4023 95.0975 69.3796 95.1206C69.1761 95.2365 69.0177 95.1901 68.9951 95.0048C69.0177 94.8658 69.0404 94.7731 69.0404 94.6573ZM64.969 96.9046C64.9916 96.9046 64.9916 96.9046 65.0142 96.9046C65.0368 96.8814 65.0594 96.8582 65.0821 96.8582C65.3761 96.5802 65.6249 96.279 65.8285 95.9315C65.8737 95.862 65.8737 95.7925 65.9642 95.7462V95.723C65.9868 95.6072 66.0094 95.5145 66.032 95.3987C66.0773 95.2133 66.0999 95.0511 66.0546 94.889C66.032 94.8195 65.9868 94.7963 65.9189 94.8426C65.8285 94.889 65.7154 94.9585 65.6475 95.028C65.2404 95.5377 65.0142 96.0937 64.9237 96.6729C64.9463 96.7655 64.969 96.835 64.969 96.9046Z" fill="#424242"/>
<path d="M64.9909 97.1584C64.9683 97.1584 64.923 97.1585 64.9004 97.1353C64.8099 97.1121 64.7421 97.0426 64.7195 96.9268C64.6742 96.7414 64.6969 96.5793 64.7421 96.3939C64.8778 95.8842 65.0814 95.4209 65.3528 95.0039C65.4885 94.8185 65.6242 94.6795 65.8278 94.61C65.9635 94.5405 66.0992 94.5405 66.1897 94.61C66.2349 94.6332 66.3028 94.7027 66.3254 94.8417C66.348 94.9112 66.348 95.0039 66.348 95.0734V95.1197C66.3706 95.1197 66.3933 95.1429 66.3933 95.166C66.4385 95.2355 66.3933 95.305 66.3933 95.3282C66.3706 95.3745 66.348 95.4209 66.3254 95.4672C66.2802 95.5599 66.2576 95.6526 66.1897 95.7452C66.1445 95.8147 66.1218 95.8842 66.0992 95.9537C66.1897 95.8611 66.2802 95.7452 66.3706 95.6526C66.4611 95.5599 66.5516 95.4672 66.6421 95.3514C66.7099 95.2819 66.7778 95.2355 66.8456 95.1892C66.9135 95.1429 67.004 95.1197 67.0718 95.1429C67.1397 95.166 67.2076 95.2587 67.2076 95.3282C67.2076 95.3745 67.2075 95.4209 67.1849 95.444C67.2302 95.3977 67.2528 95.3745 67.2754 95.3282C67.3433 95.2355 67.4111 95.166 67.479 95.0734L67.5921 94.9344C67.6147 94.9112 67.6373 94.8648 67.6825 94.8417C67.773 94.7722 67.8635 94.749 67.954 94.7722C68.0218 94.7953 68.0897 94.8417 68.1123 94.9112C68.1349 94.9575 68.1349 95.027 68.1575 95.0734C68.1575 95.0965 68.1575 95.1197 68.1802 95.1197L68.2028 95.0965C68.2706 95.027 68.3385 94.9575 68.4063 94.888C68.4742 94.8185 68.5421 94.749 68.5873 94.6563C68.6325 94.5868 68.6778 94.5405 68.7456 94.471C68.7909 94.4015 68.8587 94.3552 68.9266 94.3088C68.9718 94.2857 69.0849 94.2162 69.1528 94.2393C69.2432 94.2625 69.3111 94.3552 69.3111 94.4478C69.3111 94.5405 69.3111 94.61 69.2885 94.6795C69.2885 94.7027 69.2885 94.7258 69.2885 94.749C69.379 94.6795 69.4694 94.5868 69.5599 94.5173L69.7409 94.3552C69.7635 94.332 69.7861 94.3088 69.8313 94.2857C69.9444 94.2162 70.0575 94.193 70.148 94.2162C70.2159 94.2393 70.2837 94.2857 70.3289 94.3552C70.3516 94.3783 70.3742 94.4247 70.3968 94.4247C70.4194 94.4247 70.442 94.4247 70.5325 94.3552C70.6682 94.2625 70.8039 94.1467 70.917 94.054C71.0075 93.9845 71.0754 93.9381 71.1659 93.8686C71.2337 93.8223 71.3016 93.776 71.3468 93.7528C71.4373 93.7065 71.5504 93.7296 71.6182 93.776C71.6635 93.8223 71.7087 93.8918 71.7087 93.9613C71.7087 94.054 71.6861 94.1467 71.6635 94.2162C71.6408 94.2857 71.6182 94.3552 71.5956 94.4247C71.6182 94.4247 71.6182 94.4247 71.6408 94.4015C71.7087 94.3783 71.7766 94.3552 71.8444 94.3088C71.9801 94.2625 72.1158 94.193 72.2515 94.1467C72.3873 94.1003 72.523 94.1003 72.6134 94.1698C72.6813 94.2162 72.7265 94.3088 72.7265 94.4247C72.7265 94.4247 72.7265 94.4247 72.7265 94.4478C72.7944 94.4015 72.8849 94.3783 72.9527 94.332C73.3146 94.1235 73.6991 93.8918 74.061 93.6833C74.1741 93.6138 74.2646 93.6138 74.3325 93.6833C74.3777 93.7296 74.3777 93.776 74.3777 93.7991C74.3777 93.8455 74.3325 93.8918 74.2872 93.9381C73.7444 94.3088 73.2694 94.61 72.7944 94.8185C72.6361 94.888 72.523 94.8648 72.4777 94.8417C72.4325 94.8185 72.3646 94.749 72.342 94.6332C72.342 94.5868 72.342 94.5637 72.342 94.5173C72.2968 94.5405 72.2516 94.5405 72.2063 94.5637C72.0932 94.61 72.0027 94.6563 71.8896 94.7027L71.7539 94.7722C71.7313 94.7722 71.7313 94.7954 71.7087 94.7954C71.4825 94.888 71.3468 94.8417 71.2789 94.7722C71.2337 94.7258 71.1658 94.6332 71.1885 94.471C71.2111 94.4015 71.2111 94.332 71.2337 94.2625L70.9849 94.4478C70.8944 94.5173 70.8266 94.5868 70.7361 94.6332C70.5325 94.7722 70.2837 94.7954 70.148 94.6795C70.1028 94.6563 70.0801 94.61 70.0349 94.5637L70.0123 94.5868C69.9444 94.6332 69.8766 94.7027 69.8087 94.749C69.7635 94.7953 69.7182 94.8185 69.6956 94.8649C69.6504 94.9112 69.6051 94.9344 69.5599 94.9807C69.5147 95.0039 69.492 95.027 69.4468 95.0502C69.2658 95.1429 69.1528 95.1197 69.0849 95.0965C69.0397 95.0734 68.9492 95.0039 68.9492 94.8649C68.9492 94.8417 68.9492 94.8417 68.9492 94.8185C68.904 94.8649 68.8813 94.9112 68.8361 94.9575C68.7456 95.0502 68.6552 95.166 68.5647 95.2587L68.4968 95.3282C68.4742 95.3514 68.4516 95.3745 68.4063 95.3977C68.2932 95.4904 68.1801 95.5135 68.0897 95.4904C68.0218 95.4672 67.954 95.3977 67.9087 95.305C67.8861 95.2587 67.8861 95.2355 67.8861 95.1892C67.8409 95.2587 67.7956 95.305 67.7504 95.3514C67.5694 95.5599 67.3885 95.7452 67.2076 95.9306C67.1623 95.9769 67.1171 96.0232 67.0718 96.0232C66.9813 96.0696 66.8909 96.0696 66.8456 96.0464C66.7778 96.0232 66.7325 95.9074 66.7325 95.8379C66.7325 95.7916 66.7552 95.7684 66.7552 95.7221C66.7326 95.7452 66.7325 95.7452 66.7099 95.7684C66.6195 95.8611 66.529 95.9769 66.4159 96.0696C66.3254 96.1391 66.2349 96.2317 66.0992 96.3012C65.9861 96.3708 65.8956 96.3708 65.8052 96.3244L65.7147 96.4171C65.6016 96.5561 65.4885 96.6719 65.3528 96.8109C65.3076 96.8573 65.2623 96.8804 65.2397 96.9268C65.1492 97.1121 65.0814 97.1584 64.9909 97.1584ZM64.9457 96.3244C64.9231 96.3708 64.923 96.4171 64.9004 96.4634C64.8552 96.6024 64.8326 96.7646 64.8778 96.9036V96.9268C64.8778 96.9036 64.8778 96.9036 64.8778 96.8804C64.8778 96.8341 64.8552 96.7646 64.8778 96.6951C64.9004 96.5561 64.9231 96.4171 64.9457 96.3244ZM66.0087 94.9112C65.9861 94.9112 65.9861 94.9112 66.0087 94.9112C65.9183 94.9575 65.8052 95.027 65.7373 95.0965C65.3754 95.5599 65.1492 96.0927 65.0361 96.6951C65.0361 96.7183 65.0361 96.7646 65.0361 96.7878C65.3076 96.5329 65.5564 96.2317 65.7599 95.9074C65.7599 95.8842 65.7826 95.8842 65.7826 95.8611C65.8052 95.8147 65.8278 95.7452 65.9183 95.6989L65.9409 95.6062C65.9635 95.5367 65.9635 95.4672 65.9861 95.3977C66.0314 95.1892 66.0314 95.0502 66.0087 94.9112ZM65.9861 95.8379C65.9635 95.8611 65.9409 95.8611 65.9183 95.9074C65.9183 95.9306 65.8957 95.9537 65.8957 95.9769C65.8052 96.1159 65.7147 96.2549 65.6242 96.3707L65.7826 96.2086L65.8504 96.2549L65.873 96.2781L65.8957 96.1391C65.8957 96.1159 65.8956 96.0927 65.9183 96.0696C65.9409 96.0232 65.9635 95.9537 65.9635 95.9074C65.9635 95.9074 65.9861 95.8842 65.9861 95.8379ZM66.8909 95.4209C66.8683 95.444 66.8456 95.4672 66.823 95.4904C66.7325 95.5831 66.6421 95.6757 66.5516 95.7684C66.4385 95.8842 66.348 96.0001 66.2349 96.0927C66.2576 96.0696 66.2802 96.0464 66.3028 96.0464C66.3933 95.9537 66.4837 95.8379 66.5742 95.7452C66.6195 95.6989 66.6647 95.6526 66.7099 95.6062C66.7325 95.5831 66.7778 95.5367 66.8004 95.5136L66.8909 95.4209ZM66.9814 95.3514L67.004 95.5136C67.004 95.5831 66.9814 95.6294 66.9814 95.6989L66.9587 95.7916C66.9361 95.8611 66.9135 95.9306 66.9135 95.9769V96.0001C66.9135 96.0001 66.9361 96.0001 67.004 95.9769C67.0266 95.9769 67.0718 95.9306 67.0718 95.9074L67.0945 95.8842L66.9814 95.8379V95.7452L67.004 95.6757C67.0266 95.6294 67.0266 95.6062 67.0492 95.5599V95.5367C67.0718 95.4672 67.0718 95.4209 67.0718 95.3514C67.0718 95.3514 67.0718 95.3282 67.0492 95.3282C67.0492 95.3282 67.004 95.3514 66.9814 95.3514ZM66.1897 95.1197C66.1897 95.2124 66.1671 95.3282 66.1445 95.444C66.1218 95.5135 66.0992 95.583 66.0992 95.6526C66.1445 95.583 66.1671 95.5135 66.1897 95.4209C66.2123 95.3745 66.2349 95.3282 66.2349 95.2819H66.2123L66.1897 95.1892V95.1197ZM67.8861 94.9575C67.8635 94.9575 67.8635 94.9807 67.8409 94.9807C67.8182 95.0039 67.7956 95.027 67.773 95.0502L67.6599 95.1892C67.5921 95.2819 67.5242 95.3745 67.4564 95.444C67.4564 95.4672 67.4337 95.4672 67.4337 95.4904C67.5016 95.4209 67.5468 95.3514 67.6147 95.305C67.6599 95.2355 67.7278 95.1892 67.773 95.1197L67.8861 94.9575ZM67.9766 94.9575L67.9992 95.0502C67.9992 95.0965 68.0218 95.1197 68.0218 95.1429C68.0218 95.2124 68.0444 95.2587 68.0671 95.305C68.0897 95.3514 68.1123 95.3745 68.1349 95.3745L68.0897 95.2587C68.0897 95.2355 68.0671 95.2124 68.0671 95.1892C68.0671 95.166 68.0444 95.1429 68.0444 95.0965C68.0444 95.0502 68.0218 95.0039 67.9992 94.9575C67.9992 94.9807 67.9992 94.9575 67.9766 94.9575ZM69.0623 94.4942C69.0171 94.5405 68.9718 94.5868 68.9266 94.6332C68.8813 94.7027 68.8361 94.749 68.7682 94.8185C68.7004 94.888 68.6325 94.9807 68.5647 95.0502C68.4968 95.1197 68.429 95.1892 68.3385 95.2819L68.2706 95.3514C68.2933 95.3282 68.3159 95.3282 68.3385 95.305L68.4063 95.2355C68.4968 95.1429 68.5873 95.0502 68.6778 94.9344C68.7456 94.8649 68.7909 94.7953 68.8587 94.7258L69.0623 94.4942ZM69.1302 94.4478V94.6563C69.1302 94.6795 69.1302 94.7258 69.1302 94.749C69.1302 94.8185 69.1302 94.8649 69.1302 94.9112C69.1302 94.9575 69.1528 95.0039 69.1754 95.0039V94.888C69.1754 94.8417 69.1754 94.8185 69.1754 94.7954C69.1754 94.749 69.1754 94.7258 69.198 94.6795C69.198 94.61 69.2206 94.5405 69.2206 94.471L69.198 94.4478C69.1528 94.4478 69.1528 94.4478 69.1302 94.4478ZM69.9897 94.471C69.967 94.471 69.9671 94.4942 69.9444 94.4942C69.9218 94.5173 69.8992 94.5173 69.8766 94.5405L69.6956 94.7027C69.6052 94.7954 69.5147 94.8648 69.4016 94.9575C69.379 94.9807 69.3563 95.0039 69.3111 95.027L69.2659 95.0502C69.2885 95.0502 69.3111 95.027 69.3337 95.0039C69.3563 94.9807 69.4016 94.9575 69.4242 94.9575C69.4694 94.9112 69.5147 94.888 69.5373 94.8417C69.5825 94.7953 69.6278 94.7722 69.6504 94.7258C69.7182 94.6795 69.7861 94.61 69.854 94.5637L69.9897 94.471ZM66.1218 94.7722C66.1445 94.7953 66.1671 94.8417 66.1671 94.8649V94.888V94.8649C66.1671 94.8185 66.1445 94.7953 66.1218 94.7722ZM72.4777 94.3783L72.5003 94.5405C72.5003 94.5868 72.5003 94.6332 72.5003 94.6795C72.5003 94.7258 72.523 94.749 72.5456 94.7722C72.5456 94.7722 72.5682 94.7722 72.5908 94.7722L72.5682 94.61C72.5682 94.5637 72.5682 94.5405 72.5682 94.5173C72.5682 94.471 72.5456 94.4247 72.523 94.4015C72.5004 94.4015 72.5003 94.3783 72.4777 94.3783ZM74.1515 93.8918C73.7896 94.1235 73.4051 94.332 73.0432 94.5405C72.9753 94.5868 72.8849 94.61 72.817 94.6563L72.6134 94.7722C72.6361 94.7722 72.6813 94.749 72.7265 94.7258C73.1789 94.5405 73.6313 94.2625 74.1515 93.8918ZM72.4325 94.3783C72.3873 94.3783 72.342 94.3783 72.2968 94.4015C72.1611 94.4478 72.0254 94.5173 71.8896 94.5637C71.8218 94.5868 71.7539 94.61 71.6861 94.6563C71.6408 94.6795 71.6182 94.6795 71.573 94.7027L71.4599 94.749C71.5051 94.749 71.5504 94.7258 71.6182 94.7027L71.7766 94.6332C71.8896 94.5868 71.9801 94.5405 72.0932 94.4942C72.1385 94.471 72.2063 94.4478 72.2742 94.4247L72.4325 94.3783ZM71.4373 93.9845L71.4599 94.1003C71.4825 94.1698 71.4599 94.2162 71.4599 94.2393C71.4373 94.2857 71.4373 94.3088 71.4373 94.3552C71.4147 94.4247 71.392 94.4942 71.392 94.5637C71.392 94.61 71.392 94.6563 71.4147 94.7027L71.4825 94.4942C71.5051 94.4015 71.5277 94.332 71.5504 94.2393C71.573 94.1698 71.5956 94.0772 71.5956 94.0077C71.5956 93.9845 71.5956 93.9845 71.573 93.9845C71.5051 93.9613 71.4825 93.9613 71.4373 93.9845ZM70.0801 94.4478L70.1028 94.4942C70.1254 94.5173 70.148 94.5405 70.148 94.5637C70.1706 94.61 70.1932 94.6332 70.2385 94.6563C70.3289 94.7258 70.4873 94.7027 70.6456 94.61C70.7361 94.5637 70.8039 94.4942 70.8944 94.4247L71.392 94.0308C71.3468 94.054 71.3242 94.0772 71.2789 94.1003C71.1885 94.1698 71.1206 94.2162 71.0301 94.2857C70.8944 94.3783 70.7813 94.4942 70.6456 94.5868C70.5778 94.6332 70.4647 94.7027 70.3742 94.6795C70.2837 94.6563 70.2385 94.5868 70.1932 94.5173C70.1706 94.4942 70.148 94.471 70.1254 94.471C70.1254 94.4478 70.1028 94.4478 70.0801 94.4478Z" fill="#424242"/>
<path d="M53.0486 75.821C53.8855 75.682 54.7224 75.543 55.5366 75.404C56.2604 75.2882 56.9842 75.2187 57.6854 75.1028C58.2961 75.0102 58.4545 74.848 58.4771 74.2225C58.4997 73.6433 58.4318 73.0872 58.4318 72.508C58.4318 71.9752 58.5676 71.7898 59.0878 71.6508C60.3545 71.3265 61.6437 71.0253 62.9104 70.7241C64.3128 70.3998 65.6925 70.0754 67.0949 69.7511C68.927 69.3341 70.7365 68.9171 72.5687 68.5464C73.3151 68.3842 73.7448 68.639 74.0841 69.3572C74.3103 69.8438 74.4913 70.3303 74.7174 70.8168C74.9436 71.3497 74.9662 71.3497 75.5317 71.2338C77.1377 70.8863 78.7436 70.5156 80.3722 70.2144C85.5293 69.2414 90.6864 68.2915 95.8435 67.3417C95.934 67.3185 96.1602 67.2953 96.3864 67.249C96.7709 67.1795 97.1554 67.4575 97.2459 67.8513L97.2685 67.9672C97.3137 68.1989 97.3363 68.4305 97.3816 68.6854C97.6982 68.6854 98.0149 68.6854 98.0601 69.0792C98.1054 69.4267 97.8339 69.5426 97.4947 69.5889C97.5625 69.8669 97.6078 70.1218 97.653 70.3766C98.4673 72.508 101.792 79.9912 102.177 82.308C102.72 85.4588 104.145 88.6327 104.642 91.7836C104.778 92.7334 104.914 93.6833 105.072 94.6332C105.095 94.8417 105.14 95.0039 104.891 95.0502C104.665 95.0965 104.529 94.9575 104.484 94.749C104.348 94.0308 104.19 93.3126 104.077 92.5944C103.647 89.7216 102.267 86.8257 101.792 83.976C101.272 80.9411 97.472 72.9482 96.9066 69.9133C96.9066 69.8669 96.8614 69.7974 96.8387 69.7048C96.703 69.7279 96.5899 69.7511 96.4542 69.7743C91.2971 70.7241 86.0947 71.6508 80.9603 72.6702C76.527 73.5506 72.1389 74.57 67.7282 75.5662C64.3128 76.3307 60.9199 77.1416 57.5271 77.9524C56.6902 78.161 55.8533 78.3926 55.0164 78.6011C54.6545 78.6938 54.27 78.7402 53.8628 78.8097C53.9985 79.3425 54.1343 79.8059 54.2474 80.2692C55.3557 84.4857 56.4414 88.7022 57.5497 92.9188C57.7985 93.915 58.0473 94.9112 58.2961 95.9074C58.3188 96.0232 58.364 96.1391 58.3414 96.2317C58.3187 96.3476 58.2283 96.4171 58.1604 96.5329C58.0699 96.4634 57.9568 96.3939 57.889 96.3012C57.8664 96.2781 57.8664 96.2086 57.8438 96.1622C57.2783 93.9613 56.7128 91.7372 56.17 89.5363C55.5819 87.2195 54.9938 84.8796 54.3831 82.5628C54.089 81.4044 53.8855 80.2229 53.4557 79.1108C52.3021 76.0064 53.0486 75.821 53.0486 75.821ZM96.5899 68.1062C96.3637 68.1525 96.1375 68.1757 95.934 68.222C92.7673 68.778 89.6233 69.3109 86.4567 69.9133C84.1948 70.3303 81.9329 70.7936 79.6936 71.2338C78.2686 71.5118 76.8662 71.813 75.4412 72.091C74.7853 72.2069 74.4234 71.9984 74.152 71.396C73.8805 70.8168 73.6317 70.2144 73.3829 69.6353C73.2698 69.4036 73.1115 69.2646 72.8401 69.3109C72.2067 69.4267 71.5508 69.4962 70.9175 69.6584C67.8865 70.3766 64.8782 71.0948 61.8699 71.813C61.0783 71.9984 60.2866 72.1837 59.4723 72.3459C59.2687 72.3922 59.2009 72.4849 59.2235 72.6934C59.2687 73.1104 59.2687 73.5043 59.2914 73.9213C59.3366 75.2418 58.9295 75.7284 57.6402 75.8905C56.7581 76.0064 55.8985 76.099 55.0164 76.2149C54.6093 76.2612 54.2021 76.3307 53.795 76.4234C53.4783 76.4697 53.2747 76.7941 53.3652 77.1184L53.7271 78.3695C67.9318 74.5931 82.2043 71.3265 96.7482 68.9402L96.5899 68.1062Z" fill="#424242"/>
<path d="M58.1384 86.3623C57.867 86.3855 57.5956 86.4318 57.3015 86.4086C57.1884 86.4086 57.098 86.2465 56.9849 86.1538C57.0753 86.0611 57.1658 85.9221 57.2789 85.899C60.1515 85.1576 63.0241 84.4394 65.8967 83.698C66.3717 83.5822 66.8467 83.3969 67.3217 83.2578C67.5479 83.1883 67.7741 83.2115 67.8193 83.4895C67.8646 83.7444 67.6836 83.837 67.48 83.9065C65.1051 84.6479 62.7074 85.3429 60.2646 85.8526C59.5634 85.9916 58.8622 86.2001 58.1384 86.3623Z" fill="#424242"/>
<path d="M57.5498 88.2621C57.6629 88.1926 57.7534 88.1231 57.8665 88.0767C59.4046 87.6597 60.9653 87.2427 62.526 86.8488C64.1771 86.4318 65.8283 86.0611 67.4795 85.6673C67.6831 85.6209 67.9093 85.5514 68.1128 85.5514C68.2486 85.5514 68.3616 85.6673 68.4974 85.7368C68.4295 85.8526 68.3616 85.9916 68.2712 86.038C67.8414 86.2001 67.4343 86.3391 66.9819 86.455C64.4486 87.0573 61.9153 87.6597 59.3819 88.2157C58.8843 88.3316 58.3641 88.3547 57.8665 88.4011C57.776 88.4011 57.6855 88.3547 57.5724 88.3547C57.5498 88.3316 57.5498 88.2852 57.5498 88.2621Z" fill="#424242"/>
<path d="M56.8716 84.4857C57.0073 84.4162 57.1204 84.3467 57.2561 84.3004C60.2192 83.5359 63.1596 82.7713 66.1227 82.03C66.5525 81.9141 66.9822 81.9141 67.4346 81.8678C67.6156 81.8446 67.7965 81.9141 67.7739 82.1226C67.7513 82.2153 67.5929 82.3543 67.4572 82.3775C65.987 82.6787 64.5168 82.9567 63.0692 83.281C61.1466 83.698 59.2466 84.1382 57.3466 84.5784C57.2109 84.6016 57.0752 84.6016 56.9168 84.6016C56.8942 84.5784 56.8942 84.5321 56.8716 84.4857Z" fill="#424242"/>
<path d="M72.5694 81.474C72.5016 81.4276 72.3885 81.3349 72.2754 81.2423C72.3885 81.1728 72.479 81.0801 72.6147 81.0338C73.6778 80.6631 74.7409 80.2924 75.8266 79.9681C77.3194 79.5279 78.8349 79.0877 80.3504 78.6938C82.3408 78.1841 84.3539 77.6513 86.367 77.2111C87.7241 76.9099 89.1265 76.7246 90.5289 76.4929C91.1396 76.4002 91.5919 76.7014 91.7955 77.3733C92.0669 78.2536 92.2705 79.134 92.4741 80.0144C92.8134 81.4739 93.1074 82.9567 93.4241 84.4162C93.4241 84.4394 93.4467 84.4626 93.4693 84.4857C93.8765 84.3931 94.1479 84.4626 94.261 84.7406C94.3741 85.0186 94.1705 85.2271 93.5824 85.3429C93.5146 85.621 93.4693 85.9916 93.0396 85.9453C92.9265 85.9453 92.8134 85.6673 92.6551 85.482C91.7503 85.621 90.7324 85.7136 89.7598 85.9221C86.5253 86.6172 83.3361 87.3817 80.1016 88.0999C78.5182 88.4474 76.9123 88.7486 75.3289 89.0498C75.1932 89.0729 75.0349 89.1193 74.8766 89.1193C74.7409 89.1193 74.6052 89.0266 74.4694 88.9803C74.5373 88.8876 74.5825 88.7486 74.6956 88.7254C75.1254 88.5864 75.5778 88.4474 76.0302 88.3316C79.242 87.5671 82.4539 86.8025 85.6884 86.0611C87.8598 85.5746 90.0539 85.1576 92.2479 84.7406C92.5646 84.6711 92.655 84.5784 92.5872 84.2541C92.3836 83.3969 92.2479 82.5628 92.0443 81.7056C91.886 81.0106 91.4562 80.5936 90.7098 80.4546C89.6467 80.2461 88.6289 80.3387 87.792 80.8484C86.7063 81.5203 85.6884 82.2617 84.6706 83.003C84.1503 83.3737 83.5849 83.6285 82.9515 83.7907C82.1373 83.9992 81.3004 83.837 80.5539 83.3737C79.6266 82.7945 78.8123 82.864 78.0206 83.2579C77.1837 83.698 76.4599 84.2309 75.9849 85.0649C75.5778 85.7831 75.1028 86.455 74.673 87.1732C74.6052 87.2659 74.6051 87.428 74.6278 87.5439C74.6956 87.7987 74.8313 88.0304 74.8992 88.2852C74.9218 88.3779 74.8766 88.4938 74.8087 88.5401C74.7635 88.5633 74.5825 88.5169 74.5373 88.4474C74.4016 88.3084 74.2659 88.1462 74.198 87.9609C73.7682 86.5477 73.3385 85.1113 72.954 83.698C72.773 83.003 72.7052 82.2385 72.5694 81.474ZM74.198 86.5477C74.2432 86.5477 74.2659 86.5708 74.3111 86.5708C74.4468 86.3392 74.5599 86.1075 74.6956 85.8526C75.2385 84.8333 75.7361 83.7676 76.7766 83.0957C78.0658 82.2848 79.3777 81.7751 81.0742 82.8872C81.0968 82.9103 81.1194 82.9103 81.142 82.9103C81.6849 83.1884 82.2277 83.2579 82.7253 83.0725C83.223 82.8872 83.698 82.6555 84.1051 82.3775C85.1229 81.7056 86.0503 80.9179 87.0908 80.2924C88.4027 79.4815 89.9181 79.3425 91.6824 80.0144C91.4336 79.134 91.2074 78.2768 90.9586 77.4428C90.936 77.3733 90.7324 77.2343 90.642 77.2574C89.4205 77.4196 88.1765 77.5586 86.9777 77.8135C84.2408 78.4158 81.5265 79.0645 78.8123 79.7595C76.8444 80.2692 74.9444 80.8716 72.9087 81.4508C73.3159 83.1652 73.7682 84.8564 74.198 86.5477Z" fill="#424242"/>
<path d="M85.7559 82.725L85.9368 79.551L88.7415 78.6012L89.3975 80.5704L85.7559 82.725Z" fill="white"/>
<path d="M89.7129 76.7477L90.4367 76.8172L91.251 75.4503L91.1831 74.2456L90.0522 74.7553L89.7129 76.7477Z" fill="#C17F6B"/>
<path d="M90.2105 77.8366C90.2105 77.8366 90.2105 76.8404 90.12 76.4697C90.12 76.4697 90.2331 75.5198 90.2105 75.0565C90.2105 75.0565 90.9116 73.7591 90.7985 73.3421L88.9438 73.5737L88.4236 74.7785L87.9712 76.6319L88.4914 77.6744L90.2105 77.8366Z" fill="#D69A83"/>
<path d="M88.6045 77.8598C88.6045 77.8598 88.6045 76.8636 88.514 76.4929C88.514 76.4929 88.6271 75.543 88.6045 75.0797C88.6045 75.0797 89.3057 73.7823 89.1926 73.3653L87.3379 73.5969L86.8176 74.8017L86.3652 76.6551L86.8855 77.7208L88.6045 77.8598Z" fill="#EDB9A2"/>
<path d="M88.559 76.6087C88.4685 76.6319 88.3781 76.6319 88.2876 76.6319C88.1971 76.6319 88.1067 76.6319 88.0162 76.6087C87.9257 76.5856 87.8352 76.5624 87.7447 76.5392C87.6769 76.4929 87.5864 76.4697 87.5186 76.4002C87.5864 76.4466 87.6769 76.4697 87.7674 76.4929C87.8352 76.5392 87.9483 76.5392 88.0162 76.5392C88.1067 76.5624 88.1971 76.5392 88.265 76.5392C88.3328 76.516 88.4459 76.5161 88.5138 76.4697L88.559 76.6087Z" fill="#E0AB96"/>
<path d="M85.2799 77.5354V75.7747C85.2799 75.7747 85.212 75.1028 85.3703 74.5931C85.5513 74.0834 85.6191 72.5312 85.6191 72.5312C85.6191 72.5312 85.4834 71.674 86.7049 71.4655C87.9037 71.257 89.4191 71.0021 90.1656 70.6778L91.7941 69.5426C91.7941 69.5426 92.812 68.8012 93.8072 69.9828C93.8072 69.9828 94.056 69.9133 94.3727 70.3071C94.6893 70.701 100.254 76.6087 100.661 76.9331C101.09 77.2342 116.946 86.2001 117.263 86.594C117.557 86.9878 113.825 95.2124 113.825 95.2124C113.825 95.2124 97.5845 82.4006 96.6572 81.9605C95.7072 81.5203 94.6893 81.7751 94.6893 81.7751C94.6893 81.7751 92.1334 81.6824 90.5727 81.1496C90.5727 81.1496 89.0346 81.0569 88.0394 80.4082C88.0394 80.4082 86.2299 79.5974 85.4608 79.412C84.6692 79.2267 84.8954 77.0721 86.2072 76.7709L86.5239 76.516C86.5239 76.516 87.2251 76.2149 87.6548 76.9562L88.5822 77.4891C88.5822 77.4891 89.5096 77.4428 90.2334 76.6087C90.2334 76.6087 90.3917 75.6588 90.6405 75.3808L90.6179 74.6858C90.6179 74.6858 90.0524 74.5468 89.8715 74.1761C89.8715 74.1761 89.2834 74.0834 89.0798 73.8518C89.0798 73.8518 88.5144 74.3383 87.6548 74.2456C87.6548 74.2456 87.4739 75.1723 87.1798 75.5662L86.9989 76.4002L85.2799 77.5354Z" fill="#F7CFBA"/>
<path d="M87.632 74.4078C87.5415 74.3615 87.4511 74.3151 87.3606 74.2456C87.2928 74.1761 87.2249 74.1298 87.1796 74.0603C87.1118 73.9908 87.0892 73.8981 87.0439 73.8286C86.9987 73.7591 86.9761 73.6433 86.9761 73.5506C86.9987 73.6433 87.0439 73.7359 87.0892 73.7823C87.1344 73.8518 87.1797 73.9213 87.2701 73.9676C87.338 74.0371 87.4058 74.0603 87.4737 74.1066C87.5416 74.1529 87.632 74.1761 87.6999 74.1993L87.632 74.4078Z" fill="#EDC2B0"/>
<path d="M87.1798 75.6357C87.0894 75.6588 87.0215 75.682 86.931 75.6588C86.8632 75.6357 86.7501 75.6125 86.7048 75.5662C86.637 75.4967 86.5691 75.4735 86.5239 75.3808C86.4787 75.3345 86.4787 75.3113 86.4561 75.2882C86.4334 75.2418 86.4108 75.2187 86.3882 75.1723C86.4108 75.1955 86.4334 75.2418 86.4561 75.265C86.5013 75.3113 86.5239 75.3345 86.5239 75.3345C86.5917 75.404 86.6596 75.4272 86.7048 75.4503C86.7727 75.4735 86.8406 75.4967 86.9084 75.4967C86.9763 75.4967 87.1572 75.4735 87.2024 75.4503L87.1798 75.6357Z" fill="#EDC2B0"/>
<path d="M87.6321 74.2225C87.6321 74.2225 87.4512 75.1492 87.1571 75.543L86.9762 76.3771L85.2571 77.5123V75.7284C85.2571 75.7284 85.1893 75.0565 85.3476 74.5468C85.5286 74.0371 85.5964 72.4849 85.5964 72.4849C85.5964 72.4849 85.4607 71.6277 86.6821 71.4192C87.8809 71.2107 89.3964 70.9558 90.1428 70.6315L87.6321 74.2225Z" fill="#EFC4B1"/>
<path d="M87.0216 76.4929C86.9763 76.4929 86.9763 76.4929 86.9537 76.4929C86.9311 76.4929 86.8859 76.5161 86.8859 76.5161C86.818 76.5392 86.7954 76.5624 86.7275 76.5856C86.637 76.6319 86.5466 76.6782 86.4335 76.7709C86.2525 76.8867 86.0716 77.0257 85.8906 77.1647C86.049 77.0026 86.2073 76.8636 86.3882 76.7014C86.4561 76.6319 86.5692 76.5624 86.6597 76.4929C86.7049 76.4466 86.7501 76.4234 86.818 76.4002C86.8632 76.3771 86.8859 76.3771 86.8859 76.3539C86.9085 76.3539 86.9311 76.3307 86.9311 76.3307C86.9537 76.3307 86.999 76.2844 87.0442 76.2844L87.0216 76.4929Z" fill="#EDB9A2"/>
<path d="M90.2112 75.126C90.1885 75.126 90.1659 75.126 90.1433 75.126C90.1207 75.126 90.0981 75.126 90.0981 75.1028C90.0754 75.1028 90.0302 75.0796 90.0302 75.0796C89.9623 75.0565 89.9397 75.0333 89.8719 75.0101C89.7814 74.9638 89.6909 74.9175 89.5778 74.848C89.3969 74.7321 89.2159 74.6163 89.0576 74.4773C89.2386 74.5931 89.4195 74.6858 89.6231 74.7785C89.7136 74.8248 89.804 74.848 89.9171 74.9175C89.985 74.9406 90.0076 74.9638 90.0754 74.9638C90.0981 74.9638 90.1207 74.987 90.1433 74.987C90.1659 74.987 90.1659 74.987 90.1885 74.987H90.2564L90.2112 75.0565V75.126Z" fill="#CC8E7A"/>
<path d="M90.1426 76.5161C90.0747 76.5161 89.9616 76.5161 89.8938 76.4929C89.8259 76.4929 89.7354 76.4466 89.6449 76.4466C89.5771 76.4234 89.4866 76.3771 89.4188 76.3539C89.3509 76.3075 89.283 76.2612 89.2378 76.1917C89.3057 76.2612 89.3735 76.2844 89.4188 76.3075C89.4866 76.3539 89.5771 76.3771 89.6449 76.3771C89.7128 76.4002 89.8033 76.4002 89.8711 76.4002C89.939 76.4002 90.0521 76.3771 90.1199 76.3771V76.4466L90.1426 76.5161Z" fill="#CC8E7A"/>
<path d="M86.8408 76.4002L89.9622 66.1601L90.0979 65.9516C90.5051 65.2566 91.5456 65.6272 91.4551 66.415L87.9718 77.1416L87.6551 76.9562C87.4515 76.6087 87.248 76.5161 86.8408 76.4002Z" fill="#232323"/>
<path d="M87.1118 80.0144L86.7273 80.9411L85.8678 82.1458C85.7547 82.308 85.5285 82.2385 85.5285 82.03L85.5059 80.6862L85.913 79.551H85.9356C86.3654 79.6669 86.7273 79.8059 87.1118 80.0144Z" fill="#232323"/>
<path d="M89.6904 66.9941L91.0928 67.4343L90.9571 67.8282L89.5547 67.3648L89.6904 66.9941Z" fill="url(#paint1_linear)"/>
<path d="M78.7434 111.175L75.8934 114.465C75.8029 114.511 75.7125 114.581 75.622 114.673C73.8803 116.156 71.1887 114.905 70.3744 114.442L52.6412 94.1235L51.5781 92.0847C52.6186 86.4782 50.3793 82.6092 50.3793 82.6092C50.3567 82.2385 49.8817 81.1033 49.5198 80.2229C49.1579 79.3194 49.5876 78.3231 49.6781 78.0451C49.746 77.7439 49.7686 76.4234 49.4293 75.7747C49.3162 75.5198 49.2257 75.265 49.1805 75.1028C49.1353 74.9638 49.09 74.848 49.0222 74.709C48.3888 73.3884 47.3484 73.5506 47.3484 73.5506C46.1722 74.0835 46.6924 75.7515 46.6924 75.7515C46.6924 75.7515 45.7877 77.1416 44.7246 78.578C43.6615 80.0144 43.3222 80.7789 43.2996 81.7056C43.2544 82.6323 44.4532 88.9571 44.4532 88.9571C44.4532 88.9571 46.0139 91.3665 46.5341 92.8956C47.2353 94.9344 48.0496 96.9268 49.0448 98.8265L49.6329 99.9386C49.6329 99.9386 64.9006 130.775 71.9803 132.651C79.0601 134.551 79.3541 133.161 80.7112 132.072C82.0684 130.983 85.3707 127.114 85.3707 127.114L98.648 108.302L78.7434 111.175Z" fill="#FFDBC2"/>
<path d="M88.5828 117.801C82.8376 129.338 76.5496 129.732 73.1115 129.802C69.6734 129.871 67.2984 125.632 67.2984 125.632L47.8462 96.3476C48.2081 97.2048 48.6152 98.0388 49.045 98.8729L49.6331 99.9849C49.6331 99.9849 64.9008 130.821 71.9805 132.698C79.0603 134.597 79.3543 133.207 80.7114 132.119C82.0686 131.03 85.3709 127.161 85.3709 127.161L90.5959 119.747L88.5828 117.801Z" fill="#EABFA2"/>
<path d="M46.8057 75.6125C46.8057 75.6125 46.5796 74.431 46.7379 74.0835C46.9188 73.7128 47.5974 73.4811 48.1855 74.0139C48.4569 74.2688 48.5474 74.5931 48.57 74.8712C48.5927 75.1723 48.3891 75.4735 48.1177 75.5662C47.5974 75.7515 46.851 75.96 46.8057 75.6125Z" fill="#F4D8CE"/>
<path d="M46.5341 76.5161C46.5341 76.5161 46.4662 77.5123 46.4662 78.0451L46.2627 79.5974C46.2627 79.5974 45.7651 81.9836 45.0865 83.3273C45.2448 83.003 44.5889 80.3851 44.5889 80.3851L46.5341 76.5161Z" fill="#EDC2B0"/>
<path d="M46.5115 77.0953C46.6473 77.0258 46.7151 77.0026 46.8508 76.9563C46.9865 76.9099 47.1223 76.8636 47.258 76.8404C47.3937 76.7941 47.552 76.7941 47.6877 76.7941C47.8234 76.8173 47.9818 76.8636 48.0723 76.9331C47.9592 76.8636 47.8008 76.8404 47.6651 76.8404C47.5294 76.8404 47.3937 76.8636 47.258 76.9099C47.1223 76.9563 47.0092 77.0026 46.8735 77.0721C46.7604 77.1416 46.5794 77.2574 46.4663 77.3269L46.5115 77.0953Z" fill="#EDC2B0"/>
<path d="M45.1318 83.003C45.2902 82.6555 45.3128 82.6092 45.4485 82.2385C45.5842 81.891 45.7199 81.5434 45.833 81.1728C46.0818 80.4546 46.2628 79.7364 46.3985 78.9718C46.3306 79.7364 46.1497 80.4777 45.9461 81.2191C45.8556 81.5898 45.7426 81.9373 45.6295 82.308C45.4937 82.6787 45.2675 83.1188 45.1318 83.4895V83.003Z" fill="#D1AA9F"/>
<path d="M90.8443 120.859L95.5716 114.256C97.2228 111.824 97.3133 112.773 98.3311 115.53C99.9371 119.909 100.842 124.682 101.136 127.832C101.453 131.006 103.895 130.497 99.0549 139.532C96.2049 144.861 102.787 150.977 108.713 151.626L114.006 152.159C119.095 155.889 133.571 160.939 142.687 158.02C150.581 155.472 152.503 152.506 153.25 150.189C153.612 149.031 153.499 147.78 152.956 146.737C152.187 145.278 150.988 143.077 148.93 140.598C145.966 136.984 145.378 135.339 145.378 134.713C145.378 134.088 146.577 131.308 146.08 130.242C145.605 129.176 143.139 126.859 143.659 125.191C144.18 123.523 148.319 110.132 149.518 102.441C150.716 94.7259 149.518 84.8796 149.518 84.8796L117.67 83.2579C114.436 81.4739 97.3811 82.9567 93.1288 86.1075C92.5859 86.5013 91.8847 87.0805 90.8216 88.6559C84.5562 98.6644 80.3491 107.051 77.9741 111.43L90.8443 120.859Z" fill="#0068C9"/>
<path d="M84.1943 115.994L90.8443 120.859L95.5716 114.256C97.2228 111.824 97.3133 112.773 98.3311 115.53C99.9371 119.909 100.842 124.682 101.136 127.832C101.453 131.006 103.895 130.497 99.0549 139.532C96.974 143.447 99.9597 147.78 104.054 150.073C111.722 128.041 97.9919 104.086 97.9919 104.086C92.7669 110.99 86.7503 114.65 84.1943 115.994Z" fill="#005BAE"/>
<path d="M129.839 35.6483C124.954 29.7405 118.485 28.4431 113.26 29.6247C109.392 30.2734 105.999 32.4743 103.896 35.3239C100.955 38.8686 100.865 41.9035 100.457 43.7106C100.163 45.1007 100.571 46.8382 101.068 48.1588C101.453 49.1782 101.747 50.3134 101.837 50.9158C102.29 53.8581 101.566 54.4141 101.656 58.9318C101.679 59.928 102.946 59.7426 103.466 60.1597C103.601 60.2755 103.669 60.345 103.737 60.4377C104.167 62.0826 104.71 63.5421 105.434 64.7005C108.397 69.5657 110.274 69.9596 112.4 69.3341C114.526 68.7085 121.493 65.3261 121.493 65.3261L131.31 61.8277C131.31 61.8277 130.427 59.5573 131.785 57.7966C133.142 56.0126 137.824 45.286 129.839 35.6483Z" fill="#FFDBC2"/>
<path d="M101.838 50.9157C101.838 50.9157 102.064 52.468 101.951 53.5337C101.838 54.5994 101.453 57.0088 101.657 58.9318C101.657 58.9318 101.544 59.511 102.313 59.7426C103.082 59.9743 103.421 59.9975 103.738 60.4377L103.692 60.2755C103.014 57.9587 102.516 55.6188 102.177 53.2093L101.838 50.9157Z" fill="#F4CDB3"/>
<path d="M140.267 111.847C140.313 119.423 192.404 157.95 155.083 176.531C155.083 176.531 154.042 167.681 135.676 157.858C123.394 149.193 117.988 133.022 129.976 103.113L140.267 111.847Z" fill="url(#paint2_linear)"/>
<path d="M120.815 92.8725C135.494 117.06 133.142 121.415 133.753 145.903C134.069 159.039 155.263 170.392 163.112 167.241C155.308 176.322 126.334 174.77 122.692 158.854C113.825 168.654 101.883 159.642 97.6304 154.29C110.614 157.14 111.202 149.865 115.771 127.786C118.734 113.561 112.808 98.9656 114.821 85.1345C116.834 87.7061 118.824 90.3009 120.815 92.8725Z" fill="url(#paint3_linear)"/>
<path d="M123.416 161.171C123.416 161.171 122.624 162.793 128.324 167.218C128.324 167.218 126.605 159.85 130.699 157.626C134.816 155.379 137.326 159.943 137.326 159.943L133.753 145.903L123.416 161.171Z" fill="url(#paint4_linear)"/>
<path d="M104.077 167.611C104.077 167.611 117.06 175.164 125.52 161.518C135.088 146.089 129.727 134.551 129.433 126.489C129.161 118.426 131.695 109.136 134.929 104.132L129.863 105.151L124.185 120.651C121.222 128.713 119.775 137.424 119.956 146.181C119.978 147.201 120.023 147.896 120.069 147.988C120.385 148.568 122.873 163.997 104.077 167.611Z" fill="url(#paint5_linear)"/>
<path d="M121.064 131.817L120.906 132.651C120.634 134.041 120.453 135.455 120.34 136.868L120.227 138.235C120.227 138.235 122.014 133.509 123.846 132.767L123.62 129.709L121.064 131.817Z" fill="url(#paint6_linear)"/>
<path d="M158.95 86.1538C162.117 91.6446 162.321 92.0153 162.569 105.36C162.569 105.36 162.366 110.132 162.366 110.202C162.615 118.009 160.534 138.026 174.309 146.158C174.309 146.158 150.921 155.935 140.448 131.284C134.771 116.318 144.542 97.784 145.356 89.351C145.809 84.6016 146.397 79.8986 147.121 75.2419C148.025 69.3341 140.742 48.1125 139.272 44.3825C141.805 45.7957 147.347 59.3488 150.061 67.9904C150.921 70.7473 151.283 72.9019 152.481 75.7284C152.934 76.8173 154.155 79.0414 154.788 80.0376L154.924 80.2692C156.462 82.6555 157.48 83.6054 158.95 86.1538Z" fill="url(#paint7_linear)"/>
<path d="M116.788 28.976C116.788 28.976 103.443 28.4431 100.05 41.8804C99.2134 45.2629 101.362 48.182 103.692 50.3829C109.166 55.5493 117.58 57.8198 117.331 42.3669C116.358 31.9183 116.788 28.976 116.788 28.976Z" fill="url(#paint8_linear)"/>
<path d="M153.16 108.024C153.205 115.6 150.536 143.193 180.506 144.56C180.506 144.56 166.844 173.913 145.108 154.197C132.826 145.533 130.903 129.223 142.868 99.3131L153.16 108.024Z" fill="url(#paint9_linear)"/>
<path d="M150.762 79.551C150.762 79.551 190.413 134.783 166.957 155.912C166.957 155.912 174.105 135.733 145.266 133.578C118.666 131.632 150.762 79.551 150.762 79.551Z" fill="url(#paint10_linear)"/>
<path d="M152.866 106.634C152.866 106.634 152.708 109.507 152.052 114.928C151.532 119.121 150.627 123.245 149.36 127.276C146.782 135.385 142.529 151.325 147.302 155.912C147.302 155.912 137.101 149.1 139.905 144.953C140.675 143.818 151.351 105.221 152.866 106.634Z" fill="#2B1C11"/>
<path d="M143.049 142.706C143.049 142.706 145.401 136.034 148.477 127.925C153.476 114.789 154.878 100.147 152.277 86.1075C149.586 71.6972 144.564 61.5961 141.805 54.9701C141.805 54.9701 127.283 21.8867 113.395 35.3008C93.1515 32.9608 117.195 64.1214 117.195 64.1214L123.732 125.701C123.732 125.701 121.448 167.611 151.802 177.55C151.802 177.55 134.024 162.074 143.049 142.706Z" fill="url(#paint11_linear)"/>
<path d="M148.478 71.6045C148.478 71.6045 152.549 83.7907 153.228 93.0578C153.228 93.0578 151.079 85.8063 148.41 94.2162C147.234 97.9462 145.832 101.56 144.18 105.035C142.303 108.951 140.448 112.194 141.082 108.279C141.76 104.062 148.478 71.6045 148.478 71.6045Z" fill="#1C1109"/>
<path d="M114.074 153.41C114.074 153.41 110.116 136.335 130.812 125.145L110.387 132.953C110.365 132.953 107.198 143.262 114.074 153.41Z" fill="#2B1C11"/>
<path d="M112.875 30.8989C112.875 30.8989 114.889 27.6091 122.262 29.2308C129.274 30.7831 134.974 36.7372 138.186 44.1508C140.176 48.7612 141.873 54.5068 141.534 60.3914C140.697 73.736 112.875 30.8989 112.875 30.8989Z" fill="url(#paint12_linear)"/>
<path d="M108.533 53.9739C108.103 53.2325 102.358 47.1394 105.434 36.7603C108.284 27.1457 115.251 28.5821 116.517 29.3235L108.533 53.9739Z" fill="#EF0C48"/>
<path d="M114.074 153.41C101.317 139.88 108.035 124.172 113.916 116.225C119.684 108.418 130.134 98.0389 121.403 81.2191C118.349 61.3644 104.755 60.7389 106.61 41.5097C106.949 37.9651 108.352 35.8568 109.098 34.4436C116.246 20.6125 137.983 37.0384 143.343 51.7962C143.773 52.6534 144.384 54.2519 145.085 56.3602C146.94 61.8741 148.229 67.5734 148.772 73.458C149.744 83.7907 147.505 89.0498 144.112 102.51C143.705 104.132 143.23 105.731 142.71 107.306C141.737 110.225 141.036 112.82 139.86 115.669C139.86 115.669 137.734 122.967 125.723 127.531C106.587 134.806 114.074 153.41 114.074 153.41Z" fill="url(#paint13_linear)"/>
<path d="M124.14 31.0843C124.14 31.0843 138.028 40.8379 124.954 71.9057C111.88 102.974 150.061 119.909 150.061 119.909C150.061 119.909 120.136 122.759 112.808 93.7992C105.525 70.2376 125.723 39.9575 124.14 31.0843Z" fill="#2B1C11"/>
<path d="M134.115 45.7494C136.784 57.1711 136.445 61.2022 131.966 78.439C131.581 79.2962 130.79 83.9297 130.745 84.0224C129.636 87.9609 128.437 109.646 150.061 119.886C150.061 119.886 123.326 118.009 116.404 99.0119C109.754 80.7789 113.124 70.5852 115.974 60.9937C117.58 55.5725 119.39 50.2208 121.403 44.9849C123.959 38.3126 125.271 35.2081 123.529 30.6672C129.862 33.8644 131.514 38.3589 133.73 44.6837L134.115 45.7494Z" fill="url(#paint14_linear)"/>
<path d="M107.108 51.7498C107.108 51.7498 107.176 49.9891 108.872 50.2439C111.27 50.6146 109.619 56.5223 108.872 57.5881C108.126 58.6538 106.226 55.92 107.108 51.7498Z" fill="#FFDBC2"/>
<path d="M107.967 52.9082C107.582 52.4912 107.582 51.7961 108.057 51.4718C108.261 51.3328 108.532 51.2865 108.871 51.4255C110.07 51.8888 108.487 56.6382 108.487 56.6382C108.487 56.6382 107.424 56.6382 107.718 55.3176C107.831 54.8543 108.125 54.6689 108.329 54.5531C108.532 54.4373 108.6 54.2056 108.532 53.9971C108.419 53.6264 108.216 53.1862 107.967 52.9082Z" fill="#EABFA2"/>
</g>
<defs>
<linearGradient id="paint0_linear" x1="80.3927" y1="60.0573" x2="77.0177" y2="111.945" gradientUnits="userSpaceOnUse">
<stop offset="0.0446927" stop-color="#8C8C8C"/>
<stop offset="0.4302" stop-color="white"/>
<stop offset="0.6955"/>
<stop offset="0.8492" stop-color="#525252"/>
<stop offset="0.9777" stop-color="#D1D1D1"/>
</linearGradient>
<linearGradient id="paint1_linear" x1="89.5515" y1="67.4109" x2="91.0764" y2="67.4109" gradientUnits="userSpaceOnUse">
<stop offset="0.0446927" stop-color="#8C8C8C"/>
<stop offset="0.6955"/>
<stop offset="0.8492" stop-color="#525252"/>
<stop offset="0.9777" stop-color="#D1D1D1"/>
</linearGradient>
<linearGradient id="paint2_linear" x1="143.242" y1="140.242" x2="164.683" y2="152.329" gradientUnits="userSpaceOnUse">
<stop offset="0.2993" stop-color="#B86B28"/>
<stop offset="1" stop-color="#402C2B"/>
</linearGradient>
<linearGradient id="paint3_linear" x1="144.426" y1="113.297" x2="105.872" y2="199.923" gradientUnits="userSpaceOnUse">
<stop offset="0.0760537" stop-color="#402C2B"/>
<stop offset="0.1625" stop-color="#50342B"/>
<stop offset="0.4284" stop-color="#7D4C29"/>
<stop offset="0.6662" stop-color="#9D5D29"/>
<stop offset="0.8649" stop-color="#B16728"/>
<stop offset="1" stop-color="#B86B28"/>
</linearGradient>
<linearGradient id="paint4_linear" x1="123.372" y1="156.555" x2="137.341" y2="156.555" gradientUnits="userSpaceOnUse">
<stop stop-color="#221C1F"/>
<stop offset="1" stop-color="#B86B28"/>
</linearGradient>
<linearGradient id="paint5_linear" x1="133.184" y1="143.391" x2="116.068" y2="134.411" gradientUnits="userSpaceOnUse">
<stop stop-color="#402C2B"/>
<stop offset="0.0936136" stop-color="#50342B"/>
<stop offset="0.3814" stop-color="#7D4C29"/>
<stop offset="0.6387" stop-color="#9D5D29"/>
<stop offset="0.8537" stop-color="#B16728"/>
<stop offset="1" stop-color="#B86B28"/>
</linearGradient>
<linearGradient id="paint6_linear" x1="123.841" y1="129.839" x2="119.223" y2="137.648" gradientUnits="userSpaceOnUse">
<stop stop-color="#221C1F"/>
<stop offset="1" stop-color="#B86B28"/>
</linearGradient>
<linearGradient id="paint7_linear" x1="139.467" y1="96.5643" x2="185.862" y2="93.2123" gradientUnits="userSpaceOnUse">
<stop offset="0.0840727" stop-color="#221C1F"/>
<stop offset="0.7474" stop-color="#B86B28"/>
</linearGradient>
<linearGradient id="paint8_linear" x1="100.026" y1="44.7731" x2="119.374" y2="40.3937" gradientUnits="userSpaceOnUse">
<stop stop-color="#221C1F"/>
<stop offset="1" stop-color="#B86B28"/>
</linearGradient>
<linearGradient id="paint9_linear" x1="155.545" y1="127.733" x2="159.985" y2="152.321" gradientUnits="userSpaceOnUse">
<stop offset="0.0760537" stop-color="#402C2B"/>
<stop offset="0.1625" stop-color="#50342B"/>
<stop offset="0.4284" stop-color="#7D4C29"/>
<stop offset="0.6662" stop-color="#9D5D29"/>
<stop offset="0.8649" stop-color="#B16728"/>
<stop offset="1" stop-color="#B86B28"/>
</linearGradient>
<linearGradient id="paint10_linear" x1="140.345" y1="129.581" x2="185.278" y2="102.19" gradientUnits="userSpaceOnUse">
<stop stop-color="#221C1F"/>
<stop offset="1" stop-color="#B86B28"/>
</linearGradient>
<linearGradient id="paint11_linear" x1="130.145" y1="83.2328" x2="155.303" y2="169.565" gradientUnits="userSpaceOnUse">
<stop stop-color="#221C1F"/>
<stop offset="1" stop-color="#B86B28"/>
</linearGradient>
<linearGradient id="paint12_linear" x1="123.085" y1="27.0996" x2="133.437" y2="64.785" gradientUnits="userSpaceOnUse">
<stop stop-color="#221C1F"/>
<stop offset="1" stop-color="#B86B28"/>
</linearGradient>
<linearGradient id="paint13_linear" x1="106.436" y1="91.3057" x2="149.001" y2="91.3057" gradientUnits="userSpaceOnUse">
<stop stop-color="#221C1F"/>
<stop offset="1" stop-color="#B86B28"/>
</linearGradient>
<linearGradient id="paint14_linear" x1="140.645" y1="115.648" x2="95.9794" y2="-4.08431" gradientUnits="userSpaceOnUse">
<stop stop-color="#221C1F"/>
<stop offset="1" stop-color="#B86B28"/>
</linearGradient>
</defs>
</svg>